<mxfile host="Electron" modified="2023-05-02T11:18:21.504Z" agent="Mozilla/5.0 (Windows NT 10.0; Win64; x64) AppleWebKit/537.36 (KHTML, like Gecko) draw.io/21.1.2 Chrome/106.0.5249.199 Electron/21.4.3 Safari/537.36" etag="xiqTsxnj1Btjd6CLn6FV" version="21.1.2" type="device">
  <diagram name="CGL_Opt" id="NoOaUv_mFvhol0M9a5fB">
    <mxGraphModel dx="1115" dy="1103" grid="0" gridSize="10" guides="1" tooltips="1" connect="1" arrows="1" fold="1" page="0" pageScale="1" pageWidth="1400" pageHeight="850" math="0" shadow="0">
      <root>
        <mxCell id="0" />
        <mxCell id="1" parent="0" />
        <mxCell id="SNusuQs0wdvb_EjiltgN-3" value="" style="shape=image;verticalLabelPosition=bottom;labelBackgroundColor=default;verticalAlign=top;aspect=fixed;imageAspect=0;image=data:image/png,iVBORw0KGgoAAAANSUhEUgAABDgAAAUeCAIAAAAU8BZHAAAAAXNSR0IArs4c6QAAIABJREFUeJzs3X98VNWd+P8zVrbMqKGSWIORbB6gzChoYow0OsEfoTXjSmtJWmh3Er9rV5pI+hAR4hY1cZupdmuqETWUiKsuyXQNNcH60SVBiD/IlAgBMhh1BgrOBrPEbQZMoJlY1Pn+cerd60wy+cEk92Z4PR/8kblz55z33Dncue85P64hGAwKAAAAANCTs7QOAAAAAABCkagAAAAA0B0SFQAAAAC6Q6ICAAAAQHdIVAAAAADoDokKAAAAAN0hUQEAAACgOyQqAAAAAHSHRAUAAACA7pCoAAAAANAdEhUAAAAAukOiAgAAAEB3SFQAAAAA6A6JCgAAAADdIVEBAAAAoDskKgAAAAB0h0QFAAAAgO6QqAAAAADQHRIVAAAAALpDogIAAABAd0hUAAAAAOgOiQoAAAAA3SFRATDRnE6n4atcLlf4bi6XS71PUVFRIBCIYhh+v99msym1e73etLS0tLQ0r9erDtXhcEQuZ4RxOhwO9W4hFQUCgaKiIoPB4HQ6R/4WlFcpho02nN/v//GPf6wORk1+WKM6+PJIqt+I3DLsJ346cSr7yM9UGtXBjAEhbz/8gI/h0wQADZGoAJg48kIqPz8/ZHtWVpb6Cltef2dlZan3qa6uNplMY7jAHTOHwxEeqtoI45SX6WVlZerd3G63xWI5nStpr9d77bXXVldXqzeWlZWFpEDDFrJw4cIPPvhgzGGEa2trc7vdKSkp8qHT6bRYLG63W71PVlbWaJOfYeOU+zQ1NSlb8vPzx5C5AQB0gkQFwAQJBAIPPPBAU1NTamqqx+MJBoPBYLCnpycnJ0cIUVZWplzcNzQ0yOvvlpYWuZvH40lNTRVCOBwOv98/HuGZzeb29vb29naz2TzCl4wkTr/fv2LFCrfbnZOT09PTE7JbRUXFyJMKtQjFut3uFStWjNNRGonDhw+npqYmJCQIIVwul0z2ysvLg1+qra0VQlRXV//mN7+JYr0yQVIOiKylvr5+bEd4UqutrQ1+ldVq1TooABi9IABMiJaWFiGEOkuRZK6iXOsrqUvIxVZLS4v6ory8vFwIUV5eLv9QilVeLoRQ7y/Ji1e5vyxQfJlmyKt8WU5/f39hYaH6VKmEFxL2sHHKGsMj8Xg8N998s3IolBrDLzEHFaFYmQLJcuRuhYWFW7duDX8v8hNRFBYW9vf3D1qR8pRy2NWvVccs34jcX3lT6ixFXazyqYXUErJlJHEqsSnPKh+Q+rNTGkD4oVa3nMLCQpmChr/xkOrCE7DwwpX3sm/fPvnphB8Tde2DNirlqfCDGV7IUK0o/DiHhB3edJWdQ5rWoEcAAKKLHhUAE6S5uVkIkZmZmZycrN4eHx/f2Nio/OLr8Xhkr0tGRoZ6N6vV2tjYGB8fr95YVlYmh1TJYkMG/zQ1NS1cuFD5Qd3pdCpDudxud1ZWlnqY0GiNJM5AILBjxw65MSRys9nc1NQ08t4btcjF5uXlCSEOHz6sbKyurr755puVh1lZWac5eaOsrEw94C0/P1/pDevs7GxtbU1KSjIajfJvIUR2dnZICTabLScnx+129/T0nE4karIWOfTO6XTKdhVUdSaEjOVTDwzz+/12u11pD9XV1SGZ6rAiFK6UedVVVylD4MrKypRPYdBBa8qzTqdTfbTLysqiNclEjl1Uh63+L5ORkZGamtra2trZ2Sm+7LASXzatQCDQ1dUlBvtwASBaSFQATCh5CTvsbomJiXLs0LDk7+Xr168XQlRWVrrdbuUX39raWrfbvWnTJiGE3++vqakRqh+A5e/BgzIajevXr1f/YDzUyJkRxjlr1qyRvJfRGrRYubGrq0t9LSuPidLFUVNT4/f7rVaruh9p/fr1I/loJHnYlZ/wZRYqhOjp6XG73eqLV2UYmJrJZJKTWHw+37B1jTBOq9WqfKb5+fkhs8ZdLldZWZnSYyAjVwaGNTY2yjxB3b02wkMxbOGKkE9hx44dMrxNmzaFD1qTn5HX662oqFC6nuRrq6ur9+7dGyEe+faHXWJh79696rGLsnC3211ZWRkIBJKTkzMzM5VkUkl9XS6X3++XWWhOTo7FYhn5gQKAUSFRAaCZkIWwxjDvubCwMD09Xf7d398vr3qVqzT5U7G8rlI6QJYsWSL3X758uXqwzcQIX6drAlamKiwszM3NFUIYjcaVK1empqZ2d3efTleGctjj4+NDUrjm5uZBM5OJUVpaqs4xqqurr732WpktyLbR1NSUkJBgMBgSEhKamprcbndbW5v48iq8vLxcvh2z2VxSUjLyeiMXLuXk5NhsNiGE0WhcsGCBsl3pmigoKJD9Y3a7PRgMyn45mfjJpRcMBoPJZJKphZIZng5ZiPKujUZjQUGBEEL2oihxNjc3+/1+l8uVmpp68803y8YjO1jC+/QAIIpIVABMqJBf+ocyhivpnp6e7u7uyPuMvKNmhEYYp3ogVhQNWqzcOMKeq7EZqnB5zR0yum/Q8V1KVqksDhYtclGE4JfzOpQutXH6CKSRFJ6SkmIymcK3Rz4UI+lxChcyR6W0tDR8HyVBUvfLJSQkqLuS5Ogvl8vV0tLS1NSUmZmZl5cnEzD5lsepqxAAJBIVABNEmUKgjFopLS1Vj4SRLBaLnL2g/jVaCOFyucIX3lVfMSckJCQmJoqwie/yl2l5BXaaPQlqI4lT+U1aGQUkB5UFwyZPj4pSrOwsUj/l9Xrr6+vFV68gfT5ff3//2OoaFfUEFSGEHDskBvv5Xw61Cul7Ucc52rxCuYWI0kNltVrlGCqZG8sDEj4R3263j7wWJc1WrvKl0yk88ig4+VT4qgmD5h6jYjQak5KSxFcPtezAUR7KT7Cpqek///M/hRALFiyYO3euEGLjxo319fXhE7QAILpIVABMkPT0dJmQZGVlqW8zogyUl+Lj4+X4E/UUba/XW1xcHHnhXeWCr6amRl5NyqFlckSZTGOU39eFEOvWrTudyfQjjFOZNb506VJ1lqVMihgbWWzIagFer3fp0qVytoMcZSQ1NTU1NjYKIQKBgJzGE/WeJSlkgooylChk/reyqkFeXp56OQEljVTSrZFTBqHJqR1CNStJJk6ybSh5csj9PWWmoeSTcmZIeC1KKhXSaCMXHpmSMCiRy1uIypfLBFv5BEPuUnqa5LtWVgYPBALyiCl9YkpKXFdXJ9MSmZ9v3brV7XaHL4wBAFE21uXCAGDUIncjKD0h4asDh+8z6NKoIevYiq+uhqxehjW8TPV0bXUV0qDrvY4kzmDEmdkhk6QH3Weo5V+HKnbkbzmkkPCf7YNDL0+s7KDeUltbG7789FAxqPsfhnov4WvjDhXnUIVEPsLKGxnq+CsBhDctdQmRC4+8+PJQkUdY9WGoBZpHuzzxoGGHfIJKbMphV+IZ4VLaADBm9KgAmDhyxdjwaz553axMy5bjo0J2k9dJke9bpywPJR+mpqbW1dUpv9nb7fZB76MylGFn248wTjlrIuR6XV4Ojur+kiFksSFXseXl5eFlhtzBo6WlRQlvtLPGI5CLJof31djt9vAEtaWlRb14l9lsrqqqUr+LkMM1kjjNZvP27dvVFeXk5Gzfvl0eDfVKbkotygAqo9FYWVmpXLWHB6AMJJNqa2vVRUUufFhms3nnzp3qnKG2tlZ5eWlpqbrqwsLCysrKqExAkmGHFL5z5051+1FGVCrz5mWPGeO+AEwAQzAY1DoGAMC4kIOsonhpe+bg0AGA5uhRAQAAAKA7JCoAAAAAdIehXwAAAAB0hx4VAAAAALpDogIAAABAd0hUAAAAAOgOiQoAAAAA3SFRAQAAAKA7JCoAAAAAdIdEBQAAAIDukKgAAAAA0B0SFQAAAAC6Q6ICAAAAQHdIVAAAAADoDokKAAAAAN05W+sAAAAAMFJHjhz56KOPhBAdHR19fX3qp2bOnDlz5kwhxOWXXz5t2jRt4gOih0QFAABAv3p7e99///0//vGPf/zjH8OTk6HMnDlz7ty58+bNu+6666699trxDhIYD4ZgMKh1DAAAAAi1adOmLVu2NDY2KlvOPfe8OXMsV1/9LfkwPX2+8tSJE30HD3rk33v2vLN37251UUuXLrXZbDabbfyjBqKGRAUAAEBHOjo6nn322S1btsjOkzlzLDfc8O1LL7WYzZfNmJE08nK83g8OHvQcOPDBm29u6+7+HyHEzJkzly5dumTJEjlCDNA5EhUAAAC9KCsr27BhgxDi3HPPW7Ro8a23LjabLzv9Yvfs2fXqqw1vvbX95MkTcXFxq1evXrZs2ekXC4wrEhUAAADtdXR03HPPPe+9915i4kX33nv/jTd+O+pVnDjR99prLz/zzFMnT56w2WxPPPEEc+6hZyQqAAAAGtuyZctPfvITIcStt37/3nvvP++8uPGr6+jRrl/84ud79+6Oi4vbtm0bw8CgWyQqAAAAWurt7Z0/f35fX19Z2a8WLVo8MZVu2PD0hg1Pz507d9u2bRNTIzBa3PARAABAS/fcc09fX9+yZT+bsCxFCLFs2c/S06957733fvOb30xYpcCo0KMCAACgGTnoa84cS23tyxNc9YkTfbfdtvDkyRO7du1iABh0iB4VAAAAzezcuVMIsXLl/RNf9Xnnxf34x/+fEOKPf/zjxNcODItEBQAAQDMdHR1CiDlzLJrULm8ZeeTIEU1qByIjUQEAANDMzp07ExMvGtdlviKQCRI9KtAnEhUAAAAtffHFF1pVLROktrY2rQIAIiBRAQAA0JLf/2etqj56tEsIcerUKa0CACIgUQEAANDS559/LhOGief1fqBJvcBIkKgAAABobM+eXZrU+9Zb3O0R+kWiAgAAoKWvfe3sxx9/ZOI7Vfbs2fXaay8LIbirHvSJRAUAAEBLM2ZcdPLkiZKS4oms9MSJPqVGg8EwkVUDI0SiAgAAoKVvfvPC9PRrDhzwlJQUnzjRNwE1er0f3HXX7SdPnli27GcTUB0wNiQqAAAAGquoqEpPv+att7bfdtvCN98c33kjGzY8XVCw+MABz623fp9EBXpGogIAAKCx886LW7++Ztmyn508eeK++3521123v/XW9uhWceJE32uvvZyf//0NG54+99zzHn306Yce+rfoVgFE19laBwAAAAAhhFi27GfXX7+wsvKRPXt27dmz69xzz1u0aPGtty42my87nWL37Nn12mub33xz28mTJ4QQ6enXVFRUyVs9AnpmYJ0HAAAArcyYMSM9/Zr162vUG73eD1588T/eemu7TC3OPfc8s/my9PT5V1/9rUsvNQ+bYxw92nXggGfPnncOHvQoCx8nJl703e/mLlq0eMaMJPXO8+dbhBBHjx6N5rsCooFEBQAAQDODJiqKV1/d/NZb2/bs2SUzFsWcORYlXbn0UsvBgx759//8T1fIMseJiRddffX8RYtyr756/qBVkKhAtxj6BQAAoFOLFi1etGixEOLo0S6v94ODBz179rxz8uSJAwc8yj4hN4ucM8cyY0bSnDmXpafPV+czwKRDogIAAKB3M2YkzZiRdOON3w5Zp8vr/eDkyRMXXZQUMqALiAEkKgAAAJPVac6zB/SM5YkBAAAA6A6JCgAAAADdIVEBAAAAoDskKgAAAAB0h0QFAAAAgO6QqAAAAADQHRIVAAAAALpDogIAAABAd0hUAAAAAOgOiQoAAAAA3Tk7imVVVf22o6Pjiy++iGKZI2cymb7//e/fcMMCTWqPVdp+pmeIadOmLVt256WXXqJ1IDFo06aX3nrrrc8++0zrQGIEbRUAxuwvf/nL448/0dXVFQwGtY4lCs4+++wbb7zxhz/MG99aolXQv/zLmquvvu7++/8xWgWOwZNP/tvnn5/Kzs7WMIZYoofP9Ezwl7/85dFHyx98cM3f//3fax1LTPntb6sHBj7/+c9/qXUgsYO2CgBjtnr1fT/60U9mzYqd33peesn5299W33VX4fhVEZ2hX++9996550679trro1LamN19989feqlB2xhihk4+0zPBOeecs3z5qn//9xe0DiSmBIPBffvaf/ADu9aBxBTaKgCMze9/X3/TTTmxlKUIIX7wA/u+fe3j2kEUnUTlv//7yKWXXh6Vok7TqVOM8YgO/XymZ4KEhG8eP35c6yhiSldX18UXJ2sdRQyirQLAGHz44eF5867SOorou/ji5K6urvErPzqJyte+ZohKOdAPPlNMdjExBhgAAP0a769aVv0CAAAAoDskKgAAAGe0iy++WOsQgEGQqAAAAGgmLi7u6NH/0ar2o0e7hBAzZ87UKgAgAhIVAAAAzcydO/fo0a4TJ/o0qd3r/UAIcd1112lSOxAZiQoAAIBmZJKwZ88uTWrfu3eXEGLu3Lma1A5ERqICAACgGZmoVFb+auI7VbzeD158cWNcXBw9KtAnEhUAAADNXHfddcuWLTt6tKu8fM1E1nviRJ/DsUYI8cQTT0ybNm0iqwZGiEQFAABAS6tWrZo7d+5bb23fsOHpianxxIm+8vI1Bw54bDbbLbfcMjGVAqNFogIAAKCladOmPfHEExdffPGGDU/n539fTnAfP3v27LrttoVvvbV97ty5TzzxxLjWBZwOEhXoSFtba3LyN9raWoUQmzdvKijIO378mBBiYGDgkUfKDh06GN26bLas6JYZgfrtIFYNDAysWbNyzZqVAwMD8u+1ax+VT7W1tSp/R8s4tWHaKqCJefPmbdu2zWazHTjgKShYvGHD03Lh4Ojyej8oL19z1123nzx5YtWqVdu2bWPQlx5s3rwpOfkbQ31NbN68KYpn++PHjxUU5G3evCkqpY03EhXo1OLFS2pq6s8/f7oQoqOj/e23m7WO6LSo3w7OBFOnTv3VrypXrLhPCDEwMFBfX6d1RCNFWwW0Mm3atOeff/6JJ56Ii4vbsOHp225beNddt7/22sunP8n+xIm+F1/cmJ///YKCxa++uvniiy+ur69fvXp1VMJGVFx++bzdu1vD84fNmzetWPFTTULSg7O1DgAAAAB/s3TpUpvN1tjYuGHDhj17du3Zs+vcc88zmy9LT58/Z85lc+ZYZsxIGkk5R4927d272+t9/+BBj7L2sc1mW7JkCZNS9Okf/uF7u3btvOWW702dOlVuGRgY+OCDjqKiuyf7z7VjNkE9KrKbKTn5G/Kf0rclt//udy+sWbNSPiVHTchnDx06aLNlbd36X8proz52AmMmR7bIz0XpkVQ+UJstS/m81HsqI7sUsrtTFnLggEe9XY4/2bx5U26u7f33O2666ZqhGsCgwYSXv3Xrf9lsWSEBhJMvUX7VkO1QaZlDNebIzZXhNHozVJvZvHnTmjUrH3mkTL1dDkoMP0eJr7aHxx9/JKT8tWsfPX782LJldqfz+cceeyRC331027Ak26QSeUiTpq0CujVt2rSlS5du27Zt165dy5Yt+8Y3pu3Zs2vDhqdLSopvu22h7Gm5667bH3/8kQ0bnlb/k8O67rrr9uzsa267beEvfvHzF1/cuGfProsvvri8vNzj8Tz//PNkKbo1Z47lxIm+rq4jypauriPf/GbiZZfNU++mfCkMegEWckW9du2j8mHIid3v71G+ApTvtZBBy+KrY/I1MRGJyvHjx+6+e1lu7tLOzk86Oz95443dW7a8ou7b+vnP75k//9rOzk8OHOgWQvziF2vU1wF33vmPK1aUdHZ+4nYfbmt7h1xFD+S1lxDiwIHuzs5PCgvvLi6+Q7m02rjx2aqq5zs7P1mx4r6QPRsaGnNzbUqLX7v20erqJ994Y3dn5ydVVc9v3PhseF2LFy9paGi8/PJ5b7yxWw6kGXkwIeU//vgj77/fMey7W7x4yapV91dXP3no0MGBgYFnn113wQUX3ndf6dSpU4dtzDTXSSFyA3Y6nz/nnHM7Oz9pbGyZPftSmSo3NDSGn6MOHTr44x9/LyPjW7I9nHPOuU7n8yF1nX/+9A0bnHb7HatW3S8LHFU8Y2vDMrbi4jt++cvfyNgaGhpXrPip+suGtgro38yZM8vLy3fv3r1r167nnntu1apV11577V/+ckL2tLz44saQROXVVzfLp77xjWk2m23VqlX19fUej2f37t3Lli1jOorOGY3nnHde3P79+5Qt+/fvS0tLV++zefOmhoY6t/uwPLffcsv3/vVff65kID//+T15eUvl9cm+fbvnzElMTk6RX14XX5z86KMO5QK7vPx+eTEz6LW3fkxEovLmm9uEEDfe+G35cPbsS2+55Xu7du1UjsiqVfcvXrxECDF16tQ771y+b9/ujo525eVr1z6TkZEphDj//OkrVpRs2fLKhE2AxlDkZyqv3YUQt9zyvauuukb5r3XLLd9TrsbefHPbn//88Z13Lpd7ZmRkrlp1/9q1FcePHzt06OCWLa8UFt4td549+9Jf/vI3UQwmvPzCwrtHWObtt995wQUXPvvsuoaGF53O51esKJFD9odtzDTXSSFyA7788nmLFi2Wfx8/fqyhoW7Vqvvlx6qco7ZseUUI8eqrmy+44MLbb79T7lxYeLfdfkcU4zmdNvzqq5uvuuqaefPS5MN589Ls9jtcrreVHWirwCQyc+bMW265ZfXq1Q0NDV6v9+jRo7t27ar/Unl5ufK3x+M5evTo7t27n3/++dWrV1933XXkJ5PF1KlT58+/VrmoGBgY6Oz0zZ49R9lBfiXl5i5VphEuWrT4z3/++NChA/Kh8m2VlDTzqquusdvvuOWW7yklf/RRZyDQr+wZ4dpbPyZijsrixUvksZC/8MmfA9Vf58nJKcrf06fHX3DBhS7X2/JACyFmzkxWnj3//HghxP79+wb9VRITprPTd/HFyUajST6U84aFEDKnVz7QgYGBXbt2XnXVNUlJM5XXWq3Xb9nyyrFj/uPH/UKIK6+8Snnq/PPjL7/8K/2bpxOM/PFYXb66LUUmL91yc21C9d9ejKAx01wnhaHajHTBBRdOnx4v/z506MBbb21fsaJEeVae/Ts7fQMDA93dRzMyvqV8YUydOjUxcUZ399FoxXM6bVjpfmxra5UtWQixatX9gxZFWwUmnZkzZ86c+bfvVu4rHzOuvPKq+voXu7qOzJ59qcwc1EubnH/+9Jqaevn32rWPPvbYIyEvV19RR6beU36vuVxvK79t6ccEDf2Sw+BuuumaW275XmfnJ+ovS/HV70uj0XTxxf/3MCHhm/IbVJJpzATEjAjk9dnI93c6n58zJ1EZT6lcMx050hmy50g+35Chme+/3zFUMOHlD5oIDTWOX/4Crf5xXQzXmGmuk8JoG7AQIjfXprSQOXMS5fiuQKD/o49C29hIviSUEcNy0HB39/+cZhsedN6U0rBzc21r1z5z4EC3OqOmrQKADiUlzZw58+9lD7/L9bbVen3IDspV0JYtr7zxxu433tg9hl94xWh+9tLWRPSoyIkHbvfhoda7PHKkU/nFWn73JybOkA97ev73+HG/EH/7ke/YMf+f//zx+IeMaFq16v4h5pb4Q7aM5PNV+jSkCEMqw/8THj/uDx/fP3v2pY2NLeEv37LlFXk9+uyz6x566FdyTE7kxkxzjUmXXz6vqur58K6GgYEB9a8qUmenb9gCV6y4T/0/4vTbsPo3NqXMZ59dd9VV17z88jbZdENqoa0CgA4po78yM7O6u4+qx30JIQ4dOlhd/eTatc8oF0JjHrKrvvbWs3HvUZE/XqpHNRw/fqyt7R31Puqvdvl9qc4g1b8phg8WwsQLH+kohFi79tE1a1Z++umn4Xu2tb2jXmhCWVNIGW2iPDXoRdiYgznnnPNCyg//fXoo8lywatX9cjqanJAwksZMc9W/CG0mPGeYPXvOBRdc+NVW+rdbZcmBXurmPYa+msjxjLkNK7/4KGtcdnUd2bdvt3of2ioA6NCVV1515Mh/v/HG1sTEGSG/isrLJPVvWPv37xvthZOkvvaWXxDhvTdiNBdO42TcExX5Xb5v325ltbWNG599663t6n0ee+wRORT7+PFj//qvP1dPABVCyMWXhBCHDh188MHV6ona0IqcTa4sH9HW1vrYY4/k5S39+te/HnlPmQDIeWByZrDy+R4/fmzt2opBq5MpTXgPTORgLrts7i23fE/dfqqrn7z88nnqES+DUlb6uv32O9VBjqQx01wnhaHajHJZrzj//Om5uUvV62XJXjVZgpxGr6xWp/TChVDmrgzVeRL1NizH0CpJlGzSIV9mtFXg9Pn9fpvN5nA4lL+dTqd8yuFwuFwuTaP7G6fTabPZ/P7Bv0MnjPpYeb3etLQ0nRwfvZGjv37+83vCMwc5+ldZFkV+KYytlkGvveUPZ8raKqdTfrRMxNAvOcjhppuukQ/Xrn1m7dpnqquf7Oo6ImeslpU9snZthbzgCx8mdPvtdyqzltW9XdCQXHH1F79YM2dOohBCrh08e/al4fdeCNlTCNHQ0Kiemy5UbePf/u2JQcefyGleubk2u/0OZRTWsMEIIVasuC85OUWWf/nl8+699/5BV0AOUV39pNP5fENDo/wlQ67rVVx8R1XV8xEas9xCc50UIrSZcIsXL5k5M1mZW2W337Fhg1M2wvPPn/7kkxvuvntZcvI35FNFRXefOHEivBCr9frcXJtsV+G97VFvw1OnTn3ooV/94hdrUlNnyS0NDY0h/T+0VSC64uPjGxsb5d9er7e+vj47O1vbkCS73W6327WOAiMlf9u64YaFIeO+hBCzZ19aVfV8cfEdchr9DTcsXLfuhYce+heX6+3wnSMb6tp78eIlnZ0++aVzww0Lf/nL3zz44OoovKuxMgSDwdMvpamp6fjxT63WG0b7QuWuFIN+Ryr3ARj5KLry8n/ZsGH9aMNAuDF/pnrW1ta6dm3Fk09uGGq61OkYQ3NVe/TRh5566omoR3XG+uijj/7932t+8pPlWgcSZVFpw7RVIFr8fr/dbrdaraWlpertXq936dKlVVVVVqtVq9j0Rn2szsDj8+gXZuV9AAAgAElEQVSjFYsW/ei88+K0DiTKnntu3T//c8HFF188TuVP0J3pgYknVz1SVvGSQ8vUi8kCOkcbBqIoEAgUFRUZDAaDwZCWlub1epWNlZWVNpvNYDAUFRUFAgEhhNPpNHxJjlZSyGFL8qmNGzcq25WhXy6Xy2KxuN3urKwspcAI1AUaDAb1gCh1zOqnQsK+884777zzzpC6HA6HHPEVMvRLxikLDBkSNtS7Dgkj5ICM8K2pj5X03nvvKc+OvEycUUhUELPkHSRXrPipXMgvNXVWbu7SQdcfA/SJNgxEi9/vX7x4sRCiv78/GAyWlJQsXbpU5ipCiHvvvbe0tDQYDK5fv95oNDocjoqKCo/HEwwGe3p6XC6Xchktk5CSkpJgMNjf3+/1epuamkLqslqtHo8nNTW1paVFFhghMNm3IAsMBoMtLS3FxcUysJCYW1pasrKy1GmMEvazzz570003tba2dnZ2Ku/X5XIVFBTEx8eHVLdw4UKr1Sqrs1qtdrtd5ipDvetAILBy5UolDPmUMhUngmGPVWFhYVVVVfhBBhQTMUclgvBVNdWGWjcWGKGMjMzOzk8mpi6aK8bDeLRh2irOQHL2yMMPPyzThtzc3B07drS1tSUnJwshCgsL09PT5Z5yeklJSYnZbBZCxMfHl5aWZmVlZWdnp6en19TUFBYW5ubmCiGMRuPDDz/s8w2/KHkEPT09QoiMjAz50Gq1tre3KzF3d3evXbtWxmy1WsvLyx0Oh9PpNJlMIWHbbLaampq2tjYZtsfj6e7uVopVbNq0KTMzc/Xqv806WL58ucvl8ng8CQkJQ71ri8Xi8/kKCgpkGOqpOBEEAoFhj1Vtba0c+iWrKy4uXrJkiQwAkOhRAQAAMe7w4cMpKSny+l4IYTQa169fr0wxT0pKUvo92trahCpzEEJYLJacnByfz9ff3+/z+RYsWKDsbDKZUlJGei/wQVkslsTERIvFEtKfEAgEduzYkZmZKVMpKTs7u7u7W+Y2IWHHx8dbrdYdO3bI0V/Nzc0hr5VldnV1hbyqsbHRarVGeNey5Pz8/FEtHTaSY6V+KI+DDANQkKgAAIBYJi/QR76/2+22WCzKlIyEhAQ5Zqmnp6e7u1u9p9FoTEpKOp3YZKpQXl5eVlYWPlujurraZDIpkWRlZUUoKjs7W47+kuO+1EmCJJOHoV4+1LsWQpSWlra0tDQ1NSUkJITPbBnUsMfqwgsvTEhIiFwIQKICAADwf3Jycnp6eoJfZbfbExISEhMT1XuONgUaipxqEgwGa2try8rKlFylvLw8JIz29vahBkcpnRIej0cIYbPZRhXDUO9aPqtMa5GDypSZLUMZ9lh9/PHHStcQMBQSFQAAEMuMRuOCBQvk2C1lo8PhGHRJroyMjO7ubnmtLyl3J5SDl5ThVWK4PooxyM3NLSwslBf0CxYscLlcIatyRejNiI+PLygo2LFjxx/+8Aer1RoyjV58OTysq6tLiV8u5+VwOCK865BCzGZzSUmJegTaoEZyrNQPh5pUgzMciQoAAIhxsnvhgQcekNfNLperrKxMmSCuZjab8/LylKW3AoFAZWVlZmZmenq60WhcuXJla2trQ0OD3HndunXhq36JL/sTRpLDuFwu9brDnZ2dra2tctRWSMxer7eioiJ8IS+1jIyM1tbWioqKoe41uWTJktbW1t/85jfyYUNDQ2trq5zCPtS7Vt9RXgwxeSbcSI5VRUWFrM7r9RYXF+fl5TGTHiGik6h8/nlQiCjcOBL6wWeKyc5g0DoCALoRHx+/efNmIYSc8lFcXOzxeIa622BpaWlJSYmcsGEymZKSkpRVhs1mc11dXUVFhZzIceLEicLCwkGrG+EEdKvVKtcdlgXK9XzlgKuQmC0WS1VVVeR7zCcnJ2dmZubk5FgslkF3MJvN27dvl9mRwWCoqanZvn27TA+Getfx8fHy5jDyJXJBgsrKysjLLo/kWC1fvnzp0qXKuw65aWaMicb91fVovL9qo3Nn+oMHD/7Hf/yusPCe0y/qNP3612VPP71W6yhigX4+0zPBRx91bt/+/x588H6tA4kpy5YVlZX9WusoYg1tFQDG4JVX/t8nnwRuuilH60CirLz8XzZsWD9+5UenR+XSSy8V4vPt2/8rKqWNzWefnfr1rx/6x3/8kYYxxBI9fKZniI8/Pvrcc1X//M8/0TqQWHPdddfV1DyjdRQxhbYKAGPzve99d9eulv3792odSDTV1Dxz3XXXjWsV0elRkWprf7d79+7PPvssWgWOyrnnnvuP//jj1NQrNak9Vmn7mZ4hvvnNbxYV/fTCCy/UOpAYtG3btv/6r8ZPP/1U60BiBG0VGAOHw1FWVjboU6mpqXV1dZN0YobL5YqwXHJtbW3kUWpnpqeeetrrPRgMfqF1IFHw9a9//R/+wfbtb397XGuJZqJymjo6OmbPnj3skEcggkAgcOjQoXnz5mkdCDAKnP0AjBknEISIpSaho1W/mpqaent7tY4Ck1tvb++gC7AAesbZD8CYcQJBiFhqEjpKVAAAAABAIlEBAAAAoDskKgAAAAB0h0QFAAAAgO7oKFGZO3dubCxQAA0Zjca5c+dqHQUwOpz9AIwZJxCEiKUmoaPliQEAAABA0lGPCgAAAABIJCoAAAAAdIdEBQAAAIDukKgAAAAA0B0dJSodHR2BQEDrKDC5BQKBjo4OraMARoezH4Ax4wSCELHUJHSUqDQ1NfX29modBSa33t7epqYmraMARoezH4Ax4wSCELHUJHSUqAAAAACARKICAAAAQHdIVAAAAADoDokKAAAAAN3RUaIyd+5co9GodRSY3IxG49y5c7WOAhgdzn4AxowTCELEUpMwBINBrWMAAAAAgK/QUY8KAAAAAEgkKgAAAAB0J5YTFafTWVRUFAgE/H6/zWZzuVwR9nQ6nWOoYtiSAQAAAIxBLCcqIxQIBNxud0ZGhtaBAAAAAPgbHSUqHR0dgUBg4uvt7+/v6+tLSEiY+KoRdYFAoKOjQ+sogNHR6uwHIAZwAkGIWGoSOkpUmpqaent7I+zg9XrT0tIMBoPBYJBjuuR2l8tl+FJaWprX6x1VvR6PJykpKT4+Xj50OBxKacqYrkAgUFRUJDfed999RUVFDodj9G8R4663t7epqUnrKIDRGfbsBwBD4QSCELHUJHSUqETmcrksFktVVVUwGAwGg0lJSStXrgwEAi6Xq7i42OPxyO15eXkrVqzw+/0jL7m5uTk7O1t8mY10dXX19/cHg0GPx1NcXOxyuQKBwMqVK5OSkoLBoOx+qa6uHrc3CgAAAECcrXUAI9Xc3FxeXm61WuXD0tJSZXteXp7ZbJYPs7Oz6+vre3p6lB6SyAKBwIkTJ+S4r87Ozg8//PDJJ5+Ud8kxm83t7e1CCJfL5fP5Hn74YSGE0WhcuXJla2trtN8fAAAAgP8zOXpU/H6/y+WaNWtW+FOlpaUyaZFDtrKyskZVcmdnpxAiOTlZCNHW1mYwGMInqzQ3N6ekpJhMJvkwOTk5MzNzDO8CAAAAwAhNjkRFSklJCd+oTFCpr6/3eDwtLS2jKrOtrS01NVV2ocgqlIQEAAAAgFZ0lKjMmzdPSRgG5fP5QrYEAoGampry8vJgMNje3q4MABu5w4cPq/Mfn8/X398/2kKgH0ajcd68eVpHAYzOsGc/ABgKJxCEiKUmoaNEJScnZ9q0aYM+ZTKZUlJSDh8+HLK9v7/f5/PJqfBSc3PzyGv0+/1dXV0Wi0U+TElJ6e7u7unpCdktOztbncB0dnYyR0W3pk2blpOTo3UUwOhEOPsBQGScQBAilpqEjhKVCIxGY0FBQVlZmbJesNPptNlsAwMDKSkpNTU1cqlil8tVVlbmdrvDk41BhSxMnJ6enpmZWVlZKUuTd513Op3p6ekpKSnr1q0TQgQCgcrKSrfbPeiEGQAAAABRMTkSFSGE1WqV6wXLGSk1NTVOpzMpKenhhx/2+Xwmk8lgMDgcjpaWltTU1PBBYoPy+XzqfMNoNK5fvz4pKUmWlpCQUFBQYLfbjUZjZWVlV1eXwWAwmUzp6emFhYXj9kYBAAAACEMwGNQ6hknG7/fb7fbS0lJlrWSMtz/+8Y+PPPLI7bffvmTJEq1jAQAAwESYND0qGnI6neob3jc2NgohlJktmABxcXHvv//+ihUrZs2aVVZWduTIEa0jAgAAwPjSUaLS0dEhJ4fojd1uz8vLs1gs6lFnI7yhJKJi3rx5r7zyitFoDAQCGzdunD9//qJFizZt2hS+ZyAQ6OjomPgIgdOh27MfAP3jBIIQsdQkdJSoNDU19fb2ah3F4EpLS4NfamxsJEuZeEqu8umnnwoh9uzZs3r16vAOlt7e3qamJu3CBMZCz2c/ADrHCQQhYqlJnK11AP+np6fn0KFDMXNkEXVTpkx58sknf/azn8lc5dSpU6dOndq4ceOGDRuuvvpqZrAAAADEEh0lKp9//vkPfvADraPAJKN0sOzZs+fFF1/89a9/rXVEAAAAiAIdJSoJCQnvvPPOhRdeqHUg0K+XXnpp9erV6i1f//rXzzrrrO9+97vLli2bN29ed3e3VrEBAAAginSUqHzta1/7u7/7u69//etaBwKdqqurk1lKMBicMmXKZ599NmfOnOXLl9tstpi5AysAAAAkHSUq8+bNMxqNWkcBnaqrq7vnnntEWBdKyG5GozF8I6BznP0AjBknEISIpSbBDR8xCWzZsuUnP/mJEIIuFAAAgDOEjnpUgKHMnDlzyZIlg3ahAAAAICbRowIAAABAd3R0w0cAAAAAkEhUAAAAAOiOjhKVd999NxAIaB0FJrdAIPDuu+9qHQUwOpz9AIwZJxCEiKUmoaNEZevWrb29vVpHgcmtt7d369atWkcBjA5nPwBjxgkEIWKpSegoUQEAAAAAiUQFAAAAgO6QqAAAAADQHRIVAAAAALqjo0TliiuuMBqNWkeByc1oNF5xxRVaRwGMDmc/AGPGCQQhYqlJcGd6AAAAALqjox4VAAAAAJBIVAAAAADoDokKEInL5bLZbH6/XwjhdDqLioqGutury+VyOBxjqyVyyQAAAGcgEhUgOpqbm7Ozs7WOAgAAIEboKFF59913+UUZpykQCLz77rua1HvixImEhISJrxoxgLMfgDHjBIIQsdQkdJSobN26tbe3V+soMLn19vZu3bo1wg5+v99msxkMBoPBoIzpEkIEAoGioiLDl0Y7iKuzs1MIkZycLB96vd60tDRZlHpMl8vlkhvT0tKeeeaZtLQ0r9c76jeJmMPZD8CYcQJBiFhqEjpKVIDx5vV6Fy5cWFBQEAwGg8FgQUGB3W73+/2BQGDlypVJSUlyu8fjqa+vdzqdIy+5ra0tNTVVLlvucrksFktVVZUsLSkpaeXKlYFAwOVyFRcXezyeYDBYVVVVWFg4bm8UAABg0iNRwRmkra0tMzMzNzdXPrTb7Y2NjfHx8Z2dnR9++OGSJUvk9uTk5MzMzMOHD4+85MOHD6ekpMi/m5uby8vLrVarfFhaWrp+/XohRE1NTUlJidlsFkJYrdby8vJovS8AAIDYQ6KCM0UgENixY0dSUlL47VrNZnNTU5PZbJZDtkwmU3V19chL9vv9XV1dFotF/u1yuWbNmhWyT2dnZ2trq5LMCCGYeQ8AABABiQrOLOEphFBNULFYLHl5ef39/aMal+XxeJKSkuLj45Ut6oQEAAAAY3C21gH8nyuuuCL8p25gVIxG4xVXXBFhh0EHdO3du7e1tdXj8chxWaNdK8Pn84XkPz6fTxn6BQyLsx+AMeMEghCx1CR01KNy8803T5s2TesoMLlNmzbt5ptvHvQpo9GYlJTU1dUVnof4fL7MzExlzS45TGuENQYCAbfbnZGRIR+aTKaUlJTwdEjOe/H5fMqW5ubmEVaBmMfZD8CYcQJBiFhqEjpKVIDxtmTJktbW1oaGBvnQ5XLJBYJTUlKqq6v37t0rhAgEApWVlW63e9CUJlzIwsRGo7GgoKCsrMzlcsktTqfTZrP19/cXFBRUVFTI9YhdLldZWVliYiK3XgEAABgUiQrOIGazefv27TU1NfJmJsXFxXV1dWaz2Wq11tbWZmVlGQwGk8m0YMGC8vJyn8/X398/bJk9PT3nnXeeuo/VarV6PJ7i4mJZS01NjdPpjI+Pt1qtVVVVFotF3qfl5ZdfHs/3CgAAMLkZgsGg1jEAZyKn07ljx47KysqYGUh6htuyZcu8efNmzpypdSAAAMQIelSAieD3+202m3LDe7/fX1NTs2DBArKUmPHb3/52/vz5ixYt2rRpk9axAAAQC3TUo/Luu+9ecsklXLfhdAQCgT/96U+RF/7SitfrXbp0qdvtlg9ra2vtdru2ISGKent7b7311kOHDk2ZMuXss8/Oz89ftmzZCDtYOPsBGDNOIAgRS01CRz0qW7du7e3t1ToKTG69vb1bt27VOorBmc3m9vb24JfIUmLMtGnTXnvttdmzZwshAoHAxo0bR97BwtkPwJhxAkGIWGoSOkpUAGBSk7lKcnLylClTPv30UyHEnj17Vq9ePWvWrLKysiNHjmgdIAAAk4mObvgIREVdXZ2yNDAw8aZPn37kyBGD4W8Da0+dOnXq1KmNGzdu2LBh/vz5drv9l7/8ZchL/vrXvz7//PNnnfWVX45uuOGGp556auLiBgBAZ0hUEGtmz5594403ah0Fzlzt7e27d+9Wb5EdLBdeeOGiRYtycnIeeuihe+65J3Ih//mf/zmeMQIAMAmQqCDWZGRkFBYWah0FzlB1dXXyDjnBYNBgMEyZMuXUqVO33nprQUHBddddp+x2zjnn5OfnRyiHRAUAAB0lKldccYXJZNI6CkxuJpNJn0t+4UxQV1cnu0pkfnLhhRcWFxcvWbJk2rRpWocGIGZx+YQQsdQkdJSo3HzzzVqHgEkvLi6OhgRNKFmKECK8CwUAxgnfeggRS01CR4kKAExe69evpwsFAIAoIlEBgCh4+eWXyU8AAIgi7qMCAFFAlgIAQHSRqAAAAADQHR0lKvv37w8EAlpHgcktEAjs379f6ygAAJggXD4hRCw1CR0lKq+//npvb6/WUWBy6+3tff3117WOAgCACcLlE0LEUpPQUaICAAAAABKJCgAAAADdIVEBAAAAoDskKgAAAAB0R0eJypVXXmkymbSOApObyWS68sortY4CAIAJwuUTQsRSk9DRnem/853vaB0CJr24uDgaEgDgzMG3HkLEUpPQUY8KAAAAAEgkKgAAAAB0h0QFAGKcy+Wy2Wx+v9/v99tsNpfLFb6Pw+EoKiqKfDNjv9/vcDgm7w2PvV5vZWWl1lEAAEZKR3NUAADjKj4+vrGxccwvX7duXVdXVxTjmUiBQKCysjIpKUnrQAAAI6WjHpX9+/dP3h/qoBOBQGD//v1aRwEAwATh8gkhYqlJ6ChRef3113t7e7WOApNbb2/v66+/rnUUwDhyuVxpaWler1e9RY7sCgQCRUVFhi85HI6Q14YM/XI4HHLPoqKiEydOKLt5vd60tDSlHJfLJUsuKyurrq6+9tprZe3q3cLrEkLIVz3zzDNyN1mv0+lUlxxeaVpamnxHyv7qMWkhb195C+qNIcfB5XL5/f7FixdXV1eXlZXJY3VanwGgJ1w+IUQsNQkdJSoAgGFZLJbExMS2tjZlS3Nzs9VqNZlMK1euTEpKCgaDwWDQ4/HU19c7nc6hynE4HC6Xq6enJxgMLliwoKKiQm73er1Lly6tqqqS5dTW1hYXF3d2dq5fv768vLywsHDnzp1ms1nuVlJSEgwG+/v7u7q6hprism7durq6umAwaLVanU5nRUWFx+ORERYXF8sI1aXV1dUVFxc3NTUNeyjUb6GqqspiscicSn0cWlpaiouLe3p6Nm/eXFhYWF5e3tjYGB8fP+rjDgCYcCQqADCZxMfHW63WHTt2yKzA7/e7XK7s7OzOzs4PP/xwyZIlcrfk5OTMzMzDhw8PWojX662vry8tLZWX7Lm5uYWFhfKptra2zMzM9PR0+TAjI0MI0dPTE1LCpk2bMjMzc3NzhRBGo3HlypWtra179+4NrysvL89sNstQa2pqSkpK5EOz2VxSUlJTU+P3+9Wlmc3mqqqqYY9DyFuwWq3l5eU1NTXHjh3z+XyzZs2Su1mt1vb2dlkjAGByIVEBgEkmOzu7tbW1s7NTCCEnx1ssFrPZ3NTUJPs60tLSTCZTdXX1UCX09PQkJiZaLBb50Gg0KrPM7Xb7+vXrjUajHKNlsVjcbnfIy2V2tGDBAqPRKLfIvMjn84XXpeQMHo+nu7tbZj5SRkZGMBj86KOPurq61KUlJCSkpqZGPghtbW3qtyAPi8/nmzp1qtVqzc/PH3YRMwCAzpGoAMAko4z+CgQCO3bssFqt8fHxysQMi8WSl5fX39+vdJKEC88olHRCmSuSn5/f0tLi8XiGyhny8/OVeSCR8yKF2+22WCzKqywWy8cffzwwMBAST0JCQmJi4rClNTU1JSQkKKVlZWXJ7aWlpbW1tdXV1SaTaaj5MwAA/dNRonLllVeaTCato8DkZjKZrrzySq2jAMaXMvrL6/W2trZmZ2cLIfbu3dva2iqnf5SWlkYuISUlJWSLMkhMjsLq7++Xs0oiFFJbWxv8KrvdHrne1NRUGaGivb39yiuvDImnp6enu7s7clFCiJycHDlBRaHMP7Hb7cocm7KysghzdYDJjssnhIilJqGjROU73/lOXFyc1lFgcouLi/vOd76jdRTAuJOjv373u98pw598Pl9mZmZycrLcobOzs7W1daiXJyQkdHd3ezwe+TAQCMgbpMg/1KOw2trawod+mUymlJQU9QSYCLeSVFcqvjrdRa7u1d/fn5SUpMy6kfuoK/X5fP39/crf8o+UlJTu7m51aSHrg0l2u728vHyouTpADODyCSFiqUnoKFEBAIyQHP1VUVEhx30JIVJSUqqrq+V0dnlzQ7fb3dXVNeg8DbPZnJeX53A45EK9DQ0NcuCWnKwiJ7gLIbxer1wNLGRolpw9r15VbN26dSkpKcoU/EHJ2fPFxcVyHWF5n/uCgoL4+Pjly5f7fL6GhgZlu/KqlJSUpqYmmVMp8QghrFZrXl7eihUr1KEWFBT09/fbbDYlMDnnXnY6AQAmFxIVAJh85OgvIYRyCW61Wmtra7OysuSMkQULFpSXl6v7IkKUlpZarVY5x2PHjh0lJSVy++rVq1NSUuR2uU5xTk6O7JFYsmRJa2uryWRyuVxms7murq6iokLOD+nq6qqsrFT6YYZit9tLSkrkNJWEhISCggI5Wiw+Pt7pdNbU1Mjtubm5ysQY9ftasWJFVVXVhRdeGP4WLBZLVVWVTNuUouT2kpISq9VqNBoLCgrKyspC7kIDANAtQzAY1DoGADiDXHbZZQ888EB+fn6EfW688cYrrrjiqaeemrCodEW5l0vkSTIAgNhGjwoAAAAA3dFRouJ2u1nzHqcpEAiET/wFACBWcfmEELHUJHSUqGzbtq23t1frKDC59fb2btu2TesoAJwWs9nc3t7OuC9gJLh8QohYahI6SlQAAAAAQDpb6wAAAKEGBgaOHDny8ssvax1IqFmzZnFPVQDAxCBRAQA9eu+99x599FGto/iKEydOJCUlNTY2ah0IAOCMQKICALozdepUm82mt+WJa2tra2pqtI4CAHCm0NEcldTUVJPJpHUUmNxMJpNynzgAAGIel08IEUtNQkc9Kt/+9re1DgGTXlxcHA0JAHDm4FsPIWKpSeioRwUAAAAAJBIVAAAAALpDogIAAABAd0hUAAAAAOiOjhIVt9vd39+vdRSY3Pr7+91ut9ZRAAAwQbh8QohYahI6SlS2bdvW19endRSY3Pr6+rZt26Z1FAAATBAunxAilpqEjhIVAMDI9fb2cpN4AEAM09F9VAAAI9HR0fHss8++8sorgUDg9ddfnzdvntYRAQAQfSQqADA59Pb2NjU1VVVVHThwwGAwBIPBJ554giwFABCrSFQAQO+ULpQvvvji008/FULILGXp0qVahwYAwHjRUaKSmppqMpm0jgKTm8lkSk1N1ToKIDrUXShTpkz561//ajAY5FNkKQAkLp8QIpaahCEYDGodAwCcQS677LIHHnggPz8/wj5Wq/WLL77o7OwMBoPqs3QwGDQYDJdccsk3v/nN8Y801Mcff3zWWWe9/fbbE181AOAMpKMeFQCANGXKlOnTp0+ZMuXgwYNnnXXWF198IVMU+ZTRaPzOd76jSWDXXXedJvUCAM5AJCoAoEdJSUkNDQ1Hjhypq6vbuHHjJ598curUKSHEX//614MHD+7fv3/dunVaxwgAwDjiPioAoF8zZ85cvXr1/v37q6urFy5caDAY/u7v/m5gYODVV19dvny51tEBADCOSFQAYBK45ZZbamtrd+3adffdd19wwQWnTp3avHkzuQoAIIbpKFFpb2/v7+/XOgpMbv39/e3t7VpHAYwXpYPlueeeW7hw4ebNmzs6OrQOCoCWuHxCiFhqEjpKVLZv397X16d1FJjc+vr6tm/frnUUwLiTHSwej4cbPgJnOC6fECKWmoSOEhUAwKhMmzZN6xAAABgvJCoAAAAAdIdEBQAAAIDukKgAAAAA0B0dJSppaWkmk0nrKDC5mUymtLQ0raMAAGCCcPmEELHUJHR0Z/qFCxdqHQImvbi4OBoSAODMwbceQsRSk9BRjwoAAAAASCQqAAAAAHSHRAUAAACA7pCoAAAAANCd4SfTd3V1TUAcQoj33ntv1qxZRqNxYqpDTAoEAocPH547d67WgQBD+uKLLwKBQF9fX4R9Pvvss5MnT07Y6XecJCUlaR0CEPva29vnzJkTM6s84fTFUpMwBIPByHt87Wtf++KLLyYmGgBAbHjwwQcdDofWUQCx77HHHrPb7YmJiVoHAr2IpSYxfI+KzFKmTZs2/sFMtGur5r0AACAASURBVL/85S+fffbZN77xDYPBoHUsiI5gMPjZZ59NmTJF60CAIQUCgVmzZkX+Ctm7d++nn346derUCYsquo4fP651CACASW9E91E566yzPvzww/EOZeL96Ec/2rp16/vvvz9jxgytY0F0dHd3O53OVatWaR0IMKTLLrtszZo1+fn5Efa58cYbr7jiiqeeemrCooqim2666c0339Q6CgDApMdkegAAAAC6Q6ICAAAAQHdIVBBTTCZTWlqa1lEAADBB0tLSYmN9J0RLLDUJzRKVioqK6dOnV1RUKFt+//vf//73v9cqHsSGuLi4hQsXah0FAAATZOHChXFxcVpHAR2JpSahlx6VioqKwsJCraMYBYfDYTAYDAaDw+Hw+/02m62oqCgQCAghXC6X8pT6JV6vNy0tLbrrdTqdToPB4HK5Qv5Wk/E4nc4o1jtO5CEyGAxpaWler1frcAAAAKAZvSQqk1FqaqrH4yktLVVvDAQCNTU1OTk5PT09IU9hKH6/3+FwBAIBs9nc3t5eXl6udUQAAADQ2LgnKnKIl3TvvfcODAyE7DAwMHDvvff+6le/EkIUFhZef/31f/rTn8Y7quiKj49vbGxcv3690WiMsJu8Ch+/7MVutweDQavVOk7ljxO/32+32yf7HbgBAAAQXSNKVMZ8P8SKigqZgUgvvPCCrm4LcOzYMXEa706hDP06duzYypUrq6urm5qaEhISQkZhqYd+yb/vu+++oqIi9Ugnh8Nhs9n8fr+6WDmiTI7skgYdx6Ue+hUIBJSS33vvvUHDljEUFRXZbDZZqfKqkHFrymA2GbASocPhUCIPGXimvEQ9iEu+I7ldqfGBBx5oamqqrq6+9tprGe4FAAAAaUSJSjAYHEPRx44de+edd7Kzs//0pz8dO3asurpaCHH06NGQTpWpU6c+/vjja9asEUJUV1e//fbbl1xyyRiqG6077rijra0tIyMj8v2hR8VoNFZWVhYWFsqhX8N2buzfv//hhx/2eDxCiE2bNgkhsrOzm5qaGhsbhRAej6epqamgoMBoNLpcrvz8/JaWlmAwWF5eXlFREfmavqGhobq6uqWlZefOnXv37o2wp8/nczqdjY2NJpNp5cqVPp+vp6fH4/HU19fLdEiOyyosLOzv77/tttvk5xiZy+XKysqqra0NBoN5eXkrVqyQic26deuEELL87u7udevWGY3Ghx9+OCcnp7CwcOfOnWazedjCI+vv79+3b99pFgIAwGSxb9++/v5+raOAjsRSkxjHoV/Tp09/6aWXXnrppWPHjl1//fX6mSv/+eef33777X/4wx+uueaa7du3axiJ1WqNj49PSEhITEzs6uoKBAIWiyUnJ2fHjh2BQKC5uTknJ8discg9g8Ggz+czGAxlZWWRiw0EAjt27JCvNRqNBQUFw8YghOjs7GxtbZUPk5OTMzMzZRgyX1qwYIHRaExPTx/J59jc3JyampqRkSG+TL1kMiaEkH1NPT094zQKrq+vr7m5OerFAgCgT83NzX19fVpHAR2JpSYxjomKnHwyffr0+fPnd3R0jF9Fo/L555/fcccdr7766jXXXNPc3Ky35dvi4+MLCgpaW1v37t3rcrmULEKOpKqpqenp6Rl2rnl/f7/P50tJSRnDKtplZWUGg8FkMlVXV/t8PlmUECIlJWVU5bjdbovFYjAYsrKyhBCykCVLlqSmpgohsrKyJstCZAAAANDEOCYqbrf7hRdeEEJs2bJFGfqlrZAs5dxzz9U6okHIjoinnnqqqakpOztbbpR9FGvXrpV5S2QmkyklJUWmGaOtvby8PPilxsbG+Ph4maLITGPk5JJoSlF2u118uZxAMBisra0VQgw7gA0AAABnrHFMVDo7O4UQ//RP/5SamjowMLBz585hXzLaq+FRmRRZihBCDruqq6srLCxMT09Xtrvd7p6eHq/XW19fH7kEo9G4YMECOeBKLpc88npdLpff71fP+1ePRtu7d6864Zw1a5aMSg42U7ZnZ2e73e62tjahmnAvZ+rLOfR2u728vDwxMTEhIUGmVaM6RAAAAIh545ioJCcnCyFeeOGFiy666KKLLpK9K5H96le/mj59+jvvvBP1YCZLliK+TDOEEHJaiNy4fPnynJycrKwsi8WSl5cn04MIhchMICsr69prr1VnO5HrraysTElJSUhIsFgsmZmZq1evFkLEx8evXbu2tbXVZDL94Q9/UM9RsdlsMqrFixer58FbrdaWlpb8/Hw5o6aqqspsNqvLNxgM9fX1soNIvt/q6mqTyRR+t0oAAACcmQzDruhlMBjOOuusyJfFQ/n9738vr2v/6Z/+afXq1Xfffff//u//Pvfcc5dccolcuXjNmjUlJSVCiGPHjv30pz+V06C3bNnyrW99awzVDWU8shSHw1FfX19XV3f6C1VNIoFAQK4M5nQ6RzIIbWxO59j29fW1tbUpQ+YAHbrsssseeOCB/Pz8CPvceOONV1xxha7Wcx+5m2666c0333zwwQfVq5wDGCfNzc0ZGRl6m3MLDcVSkzh7XEv/4Q9/+MMf/lB5+NJLLyl/l5SUyBRFkkuEjUcMk6gvBacvLi6OLAUAcObgWw8hYqlJjPud6bU1rlmKXNiKnwyjSM6NGXb9ZQAAAMS88e1R0da4ZimlpaXjcRsQnTMajevXrx+/8uWyYONXPgAAACaLmO1RYcQXAAAAMHmNqEfliy++mD59+niHMh6+9a1vbdu2jSwFAAAAmFyGT1QMBoMQ4vrrrx/vUE6ePGkymc46K2qdPAkJCS+88AJZyhmlv7/f6/VeddVVWgcCAMBE2Ldvn9lsNplMWgcCvYilJjF8oiIzhzfffHO8Q3nsscfsdntiYuJ4V4QY1tfX19zcTKICADhDNDc3z5gxIzauShEVsdQkYnaOCgAAAIDJi0QFAAAAgO6QqAAAAADQHRIVAAAAALqjo0Tlqquuio15P9CQyWRiJj0A4MzB5RNCxFKT0NGd6bOzs7UOAZNeXFwcDQkAcObgWw8hYqlJ6KhHBQAAAAAkEhVgSF6vNy0tzeVyKVv8fr/NZjMYDAaDweFwqHd2Op1ye1pamtfrDS8tEAgUFRUZvqqoqCgQCIwqKllOSO1DlR8ep7YqKysHPTgAAAAhSFSAwQUCgcrKSrfbrWzx+/12u72goCAYDPb09LhcLqfTKZ9yOp01NTU9PT3BYLCkpGTFihV+v3/QYsvLy4Nf6u/vF0KsXLlytLlKBOryg8Ggx+Opr69X4tSWy+X6j//4D62jAAAAkwOJCjC4hoaG6upq9ZbGxkYhhM1mE0LEx8eXlpbW1NT4/X6/319TU1NQUBAfHy+EyM3NTUlJkTtHZjQaCwoKfD6fzFjGg9lsLikpkXGOUxUAAADjQUeJyt69e8fvcg1niP7+/r17955+OV6vd+PGjS+//HJqaqqy8fDhw1arVWYjQgiLxSKE8Hg8siMlIyNDbjcajQsWLNixY8cY+klcLpcyZEs9hEw9rOuhhx4aVZkpKSnd3d09PT3yoTJEzWAwqEe1yXFusl6Xy2Wz2eSzTqdTPT7N5XKpA3M4HIMOeFO2GwwG2Z/jdDqzsrLcbrfFYtFJDw8AxAAunxAilpqEjhKVN954o6+vT+soMLn19fW98cYbp1mIHPSVlZUlUxFlY1dX16xZs0J29vl8PT09BoMhISEhZPuwp4lAIFBTU1NaWiqTH5fLVVxc7PF45KitvLw8OYQsEAisXLlSCNHf3x8MBs8777yQrp7IfD5fYmKiDM/pdFZUVMgqPB5PcXGxzBm8Xu/SpUtLSkqCwWBdXV1xcXFTU9OwJTscDpfLJfO0qqoqi8UicxuHw9HV1SWj9Xg8FRUVLpfLbre3tLSkpqZ6PB673T7y+AEAEXD5hBCx1CR0lKgAOrF3716fz7d8+fLxKLysrEzpajCZTNXV1T6fTz7V3Nycl5dnNpvlw+zsbNkTsnfv3tbW1pUrVxqNRiHE8uXLc3JyRlid1+utqKiQw9LkELWSkhJZhXpU2KZNmzIzM3Nzc+X2qqqqkZRcX1+vZFlWq7W8vLympubYsWNdXV1JSUkyWrPZ3N7ebrVaR32kAADAmY1EBfgKv9/vcDiU6++oC5nsXl5eXlFRIQdNlZaWlpaWii/HTWVlZcmX+Hy+zMzM/5+9+w9q47zzB/4ocWpLQNJaSlBDwihcrpJTE4iCiZyF2CFtUXqdXGzOZnpC7o+5O1HcqUMT5duMK6UjjZvLiQ72+aAoyfUSC80UPOAmndTQq6lttDa2MTYpbaT8oCqOavBJtASQ7NiJvn88573NCoTAwK7E+/WHB612H320Wszz0fN5ns3Pz6cPFQqFRqOZrX1+IiSTyXQ6ndVqpSMYfr9/dHSUK1EjhJSUlMTj8Q8++CAUCpWXl9PUghCiUqn4NW8z6u/vV6vV/EGnioqKYDAYj8fLy8vtdrvRaMTEGAAAAFgwJCoAn9Lc3MwwzLKNANTV1anV6v7+fsKboNLR0eH3+30+H91neHiYf4hcLs/Ly5utQS4RCofDlZWVFouFjpNQdIoIP40ZGxu7fPkyN6pDqVQqtVo9Z/Dd3d0qlYprjcusaJUX9+wClmAGAAAAQKIC8H8ikQjLstyghE6nGxwcLCsrczqdND0Q5AyEEI1Go1KpaGIg2K5QKFJ/aTpfhaYZ58+f5wrACCGCiTF0tsycDSqVyn379vX19TU0NHAb6RQR/pDO+fPn77//fsEQTTgcHh0dnfMlKisr6QQVTldXF1cJRrf4fD63282PAQAAACAVEkpU9Hr9vDp2AIkUCoVer1/w4Uqlsquri38TkqKiIp/PRyuyCgoKWJblypn8fj8hRKfT0XEDOipCCInFYr29vfxKqjlpNJpoNBoMBisqKriNPT093LN9fX0jIyP0Id0zlWbpLBS73U7nuNP59PyEiq7uFY1G8/Ly+MuUhcNh/g1k+AsDcC8tWEyMJKwPRjEM09raGgqFMKgCALAU0H0CgUy6JCSUqDz66KO33nqr2FFAerv11lsfffTRJWqc3kGlubmZXJ/KQiepK5VKs9nMTTXp7OwMBoN05zk1NzdrNBr6f4pGo/F4PLRDTwd2BgcHw+GwXq83GAyNjY30qebm5lSW5KK2bt1qsVicTmckEqF5y86dO2mc/LdQV1cXDAY7Ozu57VwLGo2mu7ubZmV0aj7dzjAMty4Z4c3aJ4TU1tZyLdAZ/PNK2wAAIHXoPoFAJl0SEkpUACROqVR6vV46k0SlUjEMwy2zazKZrFYrnf7hcrn27ds321x8wWT3UCjU2Ngol8vlcvmePXuCwaBCoZDJZE6nky7mGwwG5XJ5Y2MjIYQ+NTk5abFYUoxZLpfX19ePjo7u3r07Fovx41SpVGazmb4F+tY8Hg/dvnXrVm4yPR0SKSsrk8lku3btampqys3NpU/ZbDaGYeiAkk6na2pqYhiGRhsKhegb5J8omnHpdDp+IgQAAAAwI1k8Hk++x6pVqwgh165dW5Z4AJbcxMREd3d3Tk7O448/LnYsEkVvq0ITD7FjyUDr1q3bvXt3TU1Nkn02b95cWFi4f//+ZYtqET366KNHjx794Q9/iIwUAABuBEZUYAUZGhp66qmnHnjggV27dh09elTscAAAAABgVqvEDgBgydEhlKampnfeeeemm2765JNPnnzyyRdffFHsuAAAAABgVhJKVAYGBnQ6XcYsUwCiiEajfr+fW/hraGjolVdeeeONNz755JMrV67QQscnn3zypz/9qahhSh29nbzYUQAAwNzQfQKBTLokJJSo/Pa3v73zzjsz47SCWD788MPf/va3f/M3f8MNodxyyy1Xr14lhMTj8ZtvvvmJJ55AlgIAABkD3ScQyKRLAnNUINP89re/LSkp2bVr1zvvvBOPx2mWQgi56aabHnzwwZ/+9Kf33Xfffffdd/DgQULI73//e/rw97//PSGkvb2dPqSHPP/88/fdd9+2bdvow23btt13333PP/88fbgM7Rw8eFCsdtrb25etnR/96Efp3s7Q0NB82wEAAIDkJLTq109+8hOTyaRWq5f6hSCDjY6Oer3eu+6668CBAwMDA6tXr75y5Qp/h71799Jr7Atf+MLnP//5ycnJgYEBQoher8/Jybl48eI777xDCNm0aRMh5J133rl48WJ2dvaDDz5ICDl79uzU1NTnP//5L3zhC4SQY8eOoR20s4B2/v7v/x6rfgHAYkH3CQQy6ZJAogIZhSYqTz/9NCHkwoULL7/8stfr/eijj/gX8N69e6urq8WLEVY6LE8MAIsI3ScQyKRLAqVfkLHuvvtuh8Px/vvvNzQ00On1q1evJoQ89dRTbW1tYkcHAAAAAMlIKFHR6/WZMe8HRKRQKLglvzjV1dVvvvnm6dOnd+zYQa8x5CoAAJAZ0H0CgUy6JCSUqDz66KO33nqr2FFAerv11lsfffTRGZ/iBlj27t2r1+svXLiwzLEBAAAsOnSfQCCTLgkJLU8MsDyqq6sxRwUAAABA4iQ0ogIAAAAAAEAhUQEAAAAAAMlBogIAAAAAAJIjoUTl7Nmz0WhU7CggvUWj0bNnz4odBQAAwDJB9wkEMumSkFCicvTo0Q8//FDsKCC9ffjhh0ePHhU7CgAAgGWC7hMIZNIlIaFEBQAAAAAAgEKiAgAAAAAAkoNEBQAAAAAAJAeJCgAAAAAASI6EEpUHH3wwKytL7CggvWVlZT344INiRwEAALBM0H0CgUy6JFaJHcD/2bx5s9ghQNrLycnBhQQAACsH/uqBQCZdEhIaUQEAAAAAAKAyNlFhWba4uDgQCHBbvF6vTCaTyWSC7bFYrLa2lj5VW1sbi8USWwsEAsXFxbJP83q9842KtsOybGK0sgSCOMUVCAQaGxvFjgIAAAAAVorMTFQikYjT6eRv8Xq9Ho8nHA7H43Gr1bpr165IJEIIicVi9fX1eXl58Xic3sWzoaFhtmZ9Pl/8Or/f73K5FpCrzKaoqMjv98d5qqqquDjFFYvFGhsbp6amxA4EAAAAAFaKzExUmpubu7u7uYeRSMTj8ZjNZqVSSQjZunWrRqPp6uoihAwMDPT19W3fvp0QIpfL6+vrfT5fKuMYWq22qqpqeHh4yd4EqaurI4TQOAEAAAAAVhQJJSpnz56lYxo3iGVZlmV/8YtfcFvoQEpJSQl9KJfLy8vLe3t7Y7FYMBg0GAz5+fn0qfz8/Hvuuae/v3++L8qvH5PJZPzxHH7Z2LFjx1JvU6FQaDQaLheKRCJGo3HGEjWucsxoNLIsW1lZGQgE6P5cmRmNkAtsttb40RqNxkgkEolEtmzZ4na77XY73TLfk7OcotHo2bNnxY4CAABgmSxW9wkyRiZdEhJKVI4ePfrhhx/eYCO06MtsNqtUKm5jOByWyWT8LYSQYDAYjUaHh4fz8vLkcjn/qVTGSQKBwB/+8Ac66MGvH6NVYR0dHbQqLBAIVFdXW63WeDweDoc7OzsHBwdTfC/RaDQYDBYUFND3ZTKZGIahL5GXl7dlyxaaM7AsW1ZWRsvSbDZbWVnZ2NjYnGdpxtZotE1NTXQ7wzC7d+9WKBSHDh2yWCwOh6Orq4uOSknWhx9+ePToUbGjAAAAWCaL0n2CTJJJl4SEEpVF0dXVpdFotm7duhSNl5WVcWMmOp3u7bffDofDhJCRkZE//vGPtH6MEJKfn28wGGi2097ebjAYaDxKpdJms6X+cs3NzYQQo9FIrheA0byI8KrCYrGYx+NxOBwMwxBCGIZpbW2ds+XZWqNvh8vobDZbS0uLIIsDAAAAAFgGGZWoBAKBAwcO1NfXL1Hfmj+ZPhwOq9XqxsbGWCym1Wq7u7u1Wi2tm1IoFG63mxASi8VCoVB5eTkXj0qlKioqmrHxwcFBnU7HX/WLZVmv16tUKmOxWG9vL8Mw3GiGUqlkGGZ4eJiOulRUVHDtaDSa5O8iSWs6nU6tVut0ukVcJAAAAAAAYAEyJ1GhK1Pt2LFDq9Uuw8vR4ZG+vr6RkRFugopOp6uqqopGoxaLhVyv3eIfpVKp1Gr1jA3yV/2ioyI2m41fZ2W32/lpjN1uJ4SEw+HR0VHBS+Tm5s4Z/4ytKZVKWuVVU1PDJUvzPjUAAAAAADcscxKVkZGRvr4+roddVlZGxyi8Xq9KpaJjIPz9NRqNQqEoKCgIhUKCe6fQaSGpo0uH0TSDX9xFZ8Pz90zMK2ZkMpkcDsfOnTv56485HI74p9lstsTMJxwOzzlHZbbWCCFyubylpYUu1myxWAQxAAAAAAAsDwklKg8++GBWVtaCD9dqtefPn+e63T6fj45RmEwmlUolk8m4tbxo7ROtyNJoNHRUhD5FZ5tw64PNSa1Wq1QqwdJhNGUihMjl8ry8PLq8GH0qHA6nOJm+rq6OKy2j7fATKjqG4/V6aS7U09PDHSgYw+EecsM7SVrjHyiXy/fs2aNWqwUJnsRlZWU9+OCDYkcBAACwTG6w+wSZJ5MuCQklKps3b87JyVmKlpVKpdlsdrlcdHCgs7MzGAzSSep6vd5gMNB8gBaPlZWVpVI8xi0vplQqNRqN2+0eGBgg1yvQBgcHaSawffv2vr6+zs5OMtNtKJPHbLPZ3G43Pbauri4YDHI3o+TeAr33S0dHB63RCgQCLpeL7kNzGC5N4t9bZrbWWJYtLi7mhlDonHudTpdizFKQk5OzefNmsaMAAABYJkvXfYI0lUmXhIQSlSVlMpmsViudre5yufbt20enf8jl8sbGRkKIQqFQKBSEkGeeeWa2RvirfqlUKrPZbDKZyPW1tuizCoWivLzc4XDQ5Y+1Wm1bW5vL5aKHbN26dbbJ9IkYhnE4HDU1NSzLKpVKr9fL3S/F4/HQefaEEPoSO3fulMlk1dXV3FpedEgkGAwqFAqZTFZQUOBwOOhTs7XGMExTUxM3p587UXK53Gw22+12fhoDAAAAALB0ZPF4PPkeq1atIoRcu3ZtWeKZ28TExG233SZ2FNLFsuzOnTvb2tqWZ1EBAJivdevW7d69u6amJsk+mzdvLiws3L9//7JFtYgeffTRo0eP/vCHP0x9DBkAACBROo2otLW1fe1rX9PpdENDQ2LHAgAAAAAAS2iV2AHM7cKFCy+//HJrayuda/Hkk0+uX79e7KAAAAAAAGAJSWhEpb+/PxqN8rfQIZTS0tIDBw7EYrGbbrrpySef/OlPfypWhGmBYZjz58+v2LqvaDTKLe8GAACQ8RK7T7DCZdIlIaERlWPHjt11110KhYIbQrl27drVq1cJIZcvX7755pufeOIJZCmQ3Icffnjs2LHUF5gGAABIa1z3SexAQCoy6ZKQUKJCCHnjjTfeeOONs2fPrl69+sqVK3RjPB6/6aabnnjiidra2hdffJEQ8v/+3/8jhHR1dQ0ODqrV6m984xuEkNdee210dLSoqIiuO0z3rKysLC4uHh0dfe211wgh3/jGN9Rq9eDgIF14F+1kXjsAAAAAkBkklKhMTExcvHjx7bffXrVqFZelUKtWrdq8efNf//pX/tq4ly5dCgQCly9fpg//9Kc/BYNB7jbtdE+DwUAIuXz5Mn1Id87UdiYmJtAOAAAAAGQGCS1P/JOf/MRkMqnV6ra2tgMHDgwMDHDjKvF4fPXq1f/2b/9WXV291GFAWhsdHfV6vU8//bTYgQDMCssTA8Ai4rpPYgcCUpFJl4SEJtNzqqur33zzzdOnT+/YsUOhUKxatUomk125cuXZZ59ta2sTOzoAAAAAAFhyEkpUSkpKsrKyuId33323w+F4//33Gxoa9Hq9TCa7evXqU089hVwFksjKysJMegAAWDkE3SeATLokJJSobNq0KScnJ3E7N8DyT//0TwqF4qmnnsINH2E2OTk5mzZtEjsKAACAZTJb9wlWrEy6JCSUqCTHDbD87Gc/ww0fAQAAAAAyW9okKpzHH39c7BAAAAAAAGBppV+iAgAAAAAAGS/V+6i88sorSxoHAMAKEY1G33vvvb6+viT7TExMvP322/iPFwAAVrKU7qPy8ccfL080AACQGXAfFYDl0d/fv27duoxZ5QluXCZdEnOPqNx3333LEAch5C9/+UtOTg69vyTAwly7dm1ycvJzn/uc2IEAzOpPf/pTaWmpVqtNss+hQ4euXr2aGbfrAoAldezYsbvuuiszeqWwKDLpkpg7K3jrrbeWIQ6SWffRBLHgzvQgfevWrfvGN76R/M70Q0ND6XtnegAAgEWByfQAAAAAACA5SFQAAAAAAEBykKgAAAAAAIDkSChRKSkpyYx5PyCirKyskpISsaMAAABYJug+gUAmXRISWmJr06ZNYocAaS8nJwcXEgAArBz4qwcCmXRJSGhEBQAAAAAAgEKiAgAAAAAAkoNEBQAAAAAAJAeJCgAAAAAASI6EEpUzZ85MT0+LHQWkt+np6TNnzogdBQAAwDJB9wkEMumSkFCicvz48cnJSbGjgPQ2OTl5/PhxsaMAAABYJug+gUAmXRISSlQAAAAAAAAoJCoAAAAAACA5ErrhIwDA9u3bh4eHY7GY2IEslfz8/Egk8t///d9//etfk+z2wQcfXLx4cfv27csWGACkqffff//YsWNr1qwROxCQivS9JNrb2wVbkKgAgIT8+te/npiYEDuKJfSHP/yBEHLgwIEDBw7MufM777yz9BEBQNobGBgQOwSQlnS8JHJzcxM3SihR2bBhQ1ZWlthRQHrLysrasGGD2FHAwl2+fJkQ8thjj61evVrsWBbZu+++++67737lK185f/78k08+uXHjxiQ7/+u//ustt9zy0EMPLVt4AJCmLl269LnPfe6WW24ROxCQinS8JP7zP/9zxu2yeDy+zKEAAMxmzZo1V65cOXbsWGFhodixLLIXX3zxxRdf/OUvf2m1Wnfv3l1TU5Nk582bNxcWFu7fv3/ZwgMAABDFuXPn9Hp9bm7u6Oio4ClMpgcAaSzDlQAAIABJREFUAAAAAMlBogIAAAAAAJKDRAUAAAAAACQHiQoAZD6Xy7V27VqXy8Vtee+9955//nk6dx8AAAAkSEKJypkzZ6anp8WOAtLb9PT0mTNnxI4CpO7UqVOlpaWTk5NiB5Iqr9crk8lkMlltbW0oFDIajbJPY1l2OSNJ/eUCgUBxcbHT6VzcAGZ74/TlFuW0RCIRo9FYW1tL7+rjdDqLi4sDgUCSQxLfbCpHpYJ/AWTwXYZgYdB9AoFMuiQklKgcP348jfoNIE2Tk5PHjx8XOwqAJeHz+VpaWug9vCwWSzQajV/HMIzY0f2fSCTidDoXvT8di8Vqa2tdLpff76fvurW1tayszOv10h1YltXpdFardcZnF1djY+ONpx+pM5lM4XC4srJy2V4R0gi6TyCQSZeEhBIVAABKJpMt7MBTp06tve6RRx557733Evc5ePDg448/Tgh59dVX77zzzoMHD95QrCuMyWRKnhdFIhGTyRQKhehDrVZ7/vx5m8124y/d2dnpdrubmpq0Wi0/GJPJRK5nRw6Hgz4UPHvjbDbb+fPn6Us7nc7XXnttUZoFAIAkkKgAQIY4deoUzUCooaGhH/zgB+Pj4yKGxPnzn//c2dlJCKHjIUuHXxnFFT7RkqTa2lqj0Wg0GiORCP8QOlJBD+HKlmg79KHT6eRa45d+0eIoeiBtNhaL7d69u7u72+12b9y4MRAI8Kuh6M/PPvssfTl+TRTLsrSdr3/961//+tdnDLK3t7eyslKn0834xv1+f3d3d0FBwYzPJp6BGd81/wQeOHCA3wJXxOX1eu12++DgoE6nm+9wDT2Tgk9nxkjouaVnY1GKxwAA0hESFQCQnIXdiJZW/R0+fHh8fPz06dPr16+/dOlSYqKybdu2w4cPE0K++c1v/vnPf962bduNB5zcxYsXH3/88Xffffc73/nOl770paV7Ia/XW1NT4/P54vG4z+cTFD4Fg0Gv19vV1aVUKrmNsVisvr4+GAyGw2G/39/R0UEP2bp1q8Vi6ejoeOmll+x2u8PhSBxFaW5uJoTQA0dHR5ubm+Vy+Z49eyorKy0Wy8mTJ7mhD7633nprz549fr+fENLe3k6uD4bQYrbvfve7P//5zxOPikajwWBQo9EoFIoZ33swGCSEaDSaJOeHOwMKhWLGdx0IBFwul8PhiMfjd9xxR3d3d2IjJpPJ4XAUFRX5/f55DdewLGu3230+XzQatVgsTqeT5kszRkK9/fbbP/rRj7iRHACAlQaJCgBkCKvVOj4+XlRU9P3vf7+0tHRoaEjsiAgh5OLFi0aj8cKFC9/5zndoz35RuN1uhULBn2BNxxwsFoteryeE6PV6i8XS29vLzRVhGIafolAjIyN9fX30qfz8fIPBQA+Ry+X19fWEEIvFUllZWVdXN2MY3d3dKpUqHA6nXt9FX0ulUqnV6lAoFIvF6GBIeXm5XC6nYc/ZCDcCM6/55dwZmO1d9/f3Dw4OVlRUEEKMRuNSzAkpKytraGhoaWmhGeNskdCdDQZDfn7+oscAAJAuJJSolJSUZGVliR0FpLesrKySkhKxowBxHDx4cO3atXfeeeerr74qdiz/i8tSvv3tby9ilkI+PZm+paVFLpfTMQfBbsFgMBqNztma3W6XyWQKhcLtdnOHaLXaqqoqMkuGQwjZvn17UVERIaSsrEwmky142noqgyEKhUKj0XCxMQwTj8f588vp4YlnIInEdz08PFxUVKRSqRb2RpLjcjD6uvz8asbzD5AidJ9AIJMuCQklKps2bcrJyRE7CkhvOTk5mzZtEjsKEMH4+HhbWxsh5LnnnuNKv8QNiZ+lvPLKK0v9crQrL9iYpFaKjxY7UVxtGC1VIoTY7fYZ1/mlE+Xp+lqEEJfLtbCpFKnkGHK53Gw2d3d305qxRDqdrrKycnh4OPXXTXzXBQUFg4OD4XB4XvFz6DDRbM/K5fKWlpZ4PO73+4uKitxuN522NGMkCwsAViZ0n0Agky4JCSUqAAALNj4+funSpfXr12/ZsoUQcu7cuTlLv0ZGRpbuq2suSzGZTK+88sqC1zFLnVwuLy8vd7vdAwMDhJCBgQG3203rqZIcRcuNWJaNRCL8ie903khlZaXP5ysqKqITKvgH0ingdGI6nbahVqtVKtWM+VJyNMegJU807Bl3oyMSO3fupOkQN3GfPqtUKm02m91u5wZ26LT4Gcd5ZnvXJSUlRUVFPT09hJCurq4Z56gQQmabsq9UKhmG6ejooBFGIhGWZbnyLW4dAq1W29TURAjRaDSzRQIAAASJCgBkhrVr195xxx1DQ0OlpaVr165NZZ5DT0/Pvffey79d/WLhZykHDhxYhiyFMplM9OYhMpmsrKzM5/PNOdtbLpc3NjZqNBqVSqXT6QwGwzPPPEMIaW5u7u7uttlsDMNYrdbu7m5B6Rr/QJlM1tHRsW/fPqVSyeVLCoUixfst0hyDHvL666/P9tnREQmr1arT6bhCKYvF0tjYSJMxhmH8fr/L5aJzV+i6AjOegdneNU0haCHWpUuXZpujQutLdTpdYlJhs9mqqqpohCqVSqPRcOEJPp3W1laGYWaLBAAACCGyha2uAwCwFNasWXPlypVjx44VFhbO99j33nvv29/+9tDQ0Pr163/2s58dOnTohRdecLvd27Ztc7lcL7zwwnPPPWe1WunOdAshhL9xUXBZyj/8wz+0tbXddJPw+6B169bt3r27pqYmSSObN28uLCzcv38/fcgt5yWpGzsuBboKFiGE698DRUeu+JkPAEBmOHfunF6vz83NHR0dFTy1SpSAAAAW3b333ktXKKasViuXgfB/nm3LouCylCeeeOLnP/95YpYCiQKBQHV1tVqtpmVawWCQDjWIHRcAAIhMQn9Ez5w5Mz09LXYUkN6mp6fPnDkjdhSwQvGzlI6Ojptvvnlx2y8rK0t9Kd40otVqaXWZSqWi5VIofxLwer0qlWq2OTOwwqH7BAKZdElIKFE5fvz45OSk2FFAepucnOR/pw6wbLgsxWg0dnR0rFq1mOPVJpOJvxLxIrYsEdwbzOD3eCMy/gKAG4HuEwhk0iWB0i8AkJz/+q//ys3NFTuK+fn5z39+4cKFr371q2+++abYsQAAAGQCJCoAIDnSuWPjvBiNRmQpAAAAiwWJCgBICF3161/+5V8+//nPix3L/HzmM5/5/ve/L3YUAAAAmQOJCgBIyJo1ayYmJmprax944AGxYwEAAAAxSWgyfUlJSVZWlthRQHrLysqi92IDAABYCdB9AoFMuiQkNKKyadMmsUOAtJeTk4MLCQAAVg781QOBTLokJDSiAgAAAAAAQCFRAQAAAAAAyUGiAgAAAAAAkoNEBQAAAAAAJEdCicqZM2emp6fFjgLS2/T09JkzZ8SOAmCZeL1eGY/X603lqEgk4nQ6Y7GYYHsgECguLmZZdgkinUEsFqutrZXJZMv2iqngn5xAIFBZWRkIBMj1kyP7tBRPOMCSQvcJBDLpkpBQonL8+PHJyUmxo4D0Njk5efz4cbGjAFhykUjEaDT29vZGo9F4PB6Px/1+v8vlqq2tTcxABJqbm0Oh0PLEmcTIyMjExITFYvF4PHPGvGySnxyfzxe/LhwOezwep9O5nOEBJEL3CQQy6ZKQUKICAACpiMViu3fvZhimpaVFLpfTjVqttq2tra+vb2BgQNzwUtTe3n7bbbdVVVX19fWNjIyIHc68KZXKffv2dXR0SGpECAAgkyBRAQBIMyMjI3/84x+3b98u2J6fn19VVcXd54tfrUS/+KfVVna73e12b9y4kRY1pYjfGn/chqvg4r8QIYRlWaPR+Prrr3NP8Tv0kUiEZdny8nK9Xq9Wq/v7+/mvRceL6FFGozESiSSPgV8Cx5Vj0Ua4F6Vx0vC8Xm9tbe1LL71EDykuLg4EAgs4OVqttqqqSlIjQgAAmQSJCgBAmunv77/nnnvy8/MF2+Vyuc1mKy4uJoQEAoHq6mqr1RqPx6PRaCgUqq2tJYS0tLQ4HA6LxXLy5EmtVpviK7Isq9PpuNYIIfX19bFYLBaL1dfX5+XlceVnHR0dXKrQ3d19+PBhWpzmcDicTieXcvj9/tHR0ZKSEqVSyTBMb28v19cPBAKPPfaY2WymbZrNZpPJRBMbnU7X1NREt+fl5dEYnE6ny+Xy+/1c/VsqU0fcbvfY2Bh9OwaDobGxcWEnp6CgIBgM0nMCAACLC4kKAECaGR4ennOf9vZ2g8GwdetWQohcLq+vr19wVVgsFvN4PA6Hw2QyCVoTjO3k5+cbDAYuvKKiovr6elqctn379tHRUb/fT5/q6ekxGAw016qoqHC73Vxs/f39XOSEEJPJ1NXVpVQqe3p6HA4HwzB0u81ma2lpGRkZ6ejoaGpqonmFVqu1Wq0ej4fLiGZTWVlZV1dH347ZbF5w+ZlGo1nAUQAAkAoJJSobNmzgKhYAFiYrK2vDhg1iRwGwrPiFUrQmKhQK0cIqbgYLTSGCweAC2o9Go8FgsKCggNtCW+vp6dFqtd3d3VqtlhZlKRQKt9vN7aZWq1UqVWKDgUCgo6PDbDbT8PR6vcVi6enpIYTEYrHe3t68vDwucu49sizLj4EKh8OEEP6rlJSU8DOi2Wg0GoVCkeIZAJAydJ9AIJMuCQklKo888khOTo7YUUB6y8nJeeSRR8SOAmBpCfrrSqWyq6uLFkQ5HA5ue01NDZe9CFKIBZhx6ICboKLT6aqqqqLRqMVimbOp/v7+wcHBsrIyfmwsy3LDIIkJSZIYZkuHlsfCcj+ARYTuEwhk0iUhoUQFAABSodFoUilVam1tjX8ard1amMQeeUFBwcDAQF9fH50fYrPZUmmHjpk4HA5+YHTKCjcMMltt24xZwejoKB1X4eTm5i5b6jI8PMwwjFKpXJ6XAwBYUZCoAACkGb1ebzAY2tvbZ9tBLpdrNBp+d1+wBNa8KBQKQWsjIyN9fX0ajSYYDHJTTbjtyVuj+1RUVPA30loyj8dDCMnLywuFQoJ1tBJjoGhCwk9U+vv7ZTIZl6hwuQ0tYEv5TaeE1rAJ3gsAACwWJCoAAGlGLpfv2bOHrv/LlUvRVMRut5vN5rVr19bX1/MX4GpubtZoNHq9fmEvZzab7XY7bS0WizU2NhoMBr1er9FouHnwdPvg4GBimsHX3t6uVqt1Op3gJcrLy+kw0fbt2/v6+jo7O+lTLMsWFxePjIzQGLhcy+v1Go1GlUpVVVW1c+dO7v7xLpfLbDYrlUqa23DriTU3N3d3dy/g7c8mEons2rWrqqqKm98PAACLC4kKAED6ofNSzGazSqWiMz1UKhXDMPF4nPab6f0fXS4XfTYUCjU2NnILcPX19SkUihkHWLipI/zbmDAMQ1f+pVNK8vLy6L0mGYZpbW2lhygUivLycofDkWS53omJCZZlZ6yVKikpIYT09/drtdojR454PB4awM6dO9va2rRaLY1h586ddLvH4/F6vUql0mazWa1WnU5Hp8o0NTVxq5Pt2bMnGAwqFAqZTFZQUMCfwDOb1E+OSqUym80pFrwBAMACyOLxuNgx/K8zZ87cd999GbNMAYhienr6D3/4Axb+Sl9qtXpsbGxgYOCBBx4QO5alsm7dut27d9fU1CTZZ/PmzYWFhfv371+2qAAgTaH7BAJpd0mcO3dOr9fn5uaOjo4KnpLQiMrx48cnJyfFjgLS2+Tk5PHjx8WOAgAAYJmg+wQCmXRJSChRAQAAAAAAoJCoAAAAAACA5CBRAQAAAAAAyVkldgAAACB0+fLlixcv/uY3vxE7EKE77rjj/vvvFzsKAABYESSUqGzYsCGNFigAacrKysKSX5AZzp49+/TTT4sdxadcvnz5i1/8IneHEwCQAnSfQCCTLgkJJSqPPPKI2CFA2svJycGFBBlgzZo1X/va16S2PHFrayu9eTwASAf+6oFAJl0SmKMCAAAAAACSg0QFAAAAAAAkB4kKAAAAAABIDhIVAAAAAACQHAklKqdPn56enhY7Ckhv09PTp0+fFjsKAACAZYLuEwhk0iUhoUSlt7d3cnJS7CggvU1OTvb29oodBQAAwDJB9wkEMumSkFCiAgAAAAAAQCFRAQAAAAAAyUGiAgCQrg4fPix2CAAAAEsFiQoAQJq5cOGC3W4vKCj49re/PTQ0JHY4AAAAS2KV2AH8n9LS0qysLLGjgPSWlZVVWloqdhQAS6Wtrc3j8Zw9e5Y+3Lt37/r168UNCQDEhe4TCGTSJSGhRKW8vFzsECDt5eTk4EKCzHPhwoWXX365tbX12rVrV69epRv37t1bXV0tbmAAIDr81QOBTLokJJSoAACAADeEsnr16itXrnDbkaUAAEDGQ6ICACA5V69ePX/+/F133RWPxz/55BNCCD9LWb9+/a9+9atf/epXyxzVBx98wI3nAAAALDUkKgAAknPLLbfk5OTccccdFy9eXLVq1bVr1+j2eDx+8803f/zxx/fff//yR3X//fd/+ctfXv7XBQCAlQmJCgCAFGk0ml/+8pd0dorX6/3oo4+uXbsmk8k+/vjjd955R6fTNTc3ix0jAADAEpLQ8sSnT5+enp4WOwpIb9PT06dPnxY7CoBFc/fddzscjvfff7+hoUGv1xNC1qxZ8/HHH7/xxht1dXViRwcA4kP3CQQy6ZKQUKLS29s7OTkpdhSQ3iYnJ3t7e8WOAmDxVVdXv/nmm6dPn96xY4dCofj4448PHTqEXAUA0H0CgUy6JCSUqAAAQHLcAMvevXv1ev2hQ4dww0cAAMhUmKMCAJB+qqurq6urJyYmbrvtNrFjAQAAWBIYUQEASFfIUgAAIIMhUQEAAAAAAMmRUKJSWlqanZ0tdhSQ3rKzs0tLS8WOAgAAYJmg+wQCmXRJSGiOSnl5udghQNrLzs7GhQQAACsH/uqBQCZdEhIaUQEAAAAAAKCQqAAAAAAAgOQgUQEAAAAAAMlBogIAAAAAAJIjoUTl1KlT09PTYkcB6W16evrUqVNiRwEAALBM0H0CgUy6JCSUqPh8vsnJSbGjgPQ2OTnp8/nEjgIAAGCZoPsEApl0SUgoUQEAAAAAAKCQqAAAAAAAgOQgUQEASFdOp1N2XW1tbSwWS75/LBarra31er2EEK/XO9shsVjs2WefDQQCC4uqsbFRcKzX6+XiNBqNkUhkYS1zWJYtLi4OBAL8dzTjS7Msm+LJyTCJp4LP6XRyJ20RcZ9LJBIxGo0sy84WTGZ/LoFAoLGxkf7sdDqdTif3s+zT5vXrQM+qTCZjWZZ/hv/nf/7nS1/6kqBl7vOlvyP0qPm+Ee4DTb6b1+uds3HuPxzBtZGIBsydtKUg+H9jNoFAoLi4WJaAHuh0OhMvYHoIfXcz7iDYR8Dr9S7pG09HSFQAANIP/VNHCIlfl5eXt3HjxgVnF3wjIyOEkPz8/AUcy7Lsa6+9xj2knZLe3t5oNErjNJvNKpVqAX2mGcnl8paWFpPJlPjSVE9Pj9Vq7evrGxgYWJRXTAszngr+s6FQaOvWrUsXgFKp7OrqYhhmtmAy+HOJxWKNjY1TU1MzPmuxWLjfBfrr8Nhjj6X4a9vV1UUICYfD9MQK+Hw+rtlwOOzxeGiXl/6O+Hw+p9N5498RJAoEAi6Xa87dTCZTS0uLXC5f9ACWGv/EUvQ/nKWwdevWUCi0WP89ZgYJJSoPPfRQdna22FFAesvOzn7ooYfEjgJgadGeUFVVlc1m4zY+88wzBoOhsbHxxr+iDofDOTk5i9KlaG5u1mg0jY2NXGsmk8nhcCxRn0kgEAh0dHR8+ctfNhgMPT09S/1yaSESiTidTrPZLGKXEZ8Lx2QyVVVVpfhrOzw8rNFoFAqFYPv9999/002f6s4plcp9+/Z1dHRwXV6VSkUTmMWKHJaCXC43m80ej+cG/xvPpB61hBKVsrKyjDmtIJbs7OyysjKxowBYWgMDA319fdu3b+dvlMvltbW1XEpAS2uoVIo3+Hp6eioqKujPXLFKbW3ts88+y69k4J7i2vd6vWVlZYODgzqdzuv10v5oYp+4urra6/UqlcpIJPL1r3/9pZde4jeS2CzFvaPi4uLf//73dCNXwiF4afpsf3+/Wq3W6/Xl5eW0WoZuF7zuqVOnkoTBr1BiWdZoNL7++uvcU/zvPud1rsj1oiDuKVoFxD3kV4DwS1C47XS06vXXX6flQNxTM54Kjt/vJ4TodDpuC78wj+7Psix9C/z3Pq/PhSvvkeznQiuRaONc+9yp4H92XMEVfzu98F566SVaVcU9FYlEtmzZ4na77XZ7imVd27dvv8GRpQcffFCQqBBCtFptVVXVArq8M36gFP9SoWeYZVmdTjc4OFhWVkYvP67STHC5zlhryr+wUzxdib8LiaVi/MquGT8+KdPpdMFg8AZHGjOpRy2hRAUAAFIRDAYNBkNiaVZxcTGXpezcudPv99NChaqqql27dqU4ghGJREKhEO3IOp3OUChEK1Xy8vL4BR5Op5Nl2XA4HI/Hm5qadDody7Imk8nn8xUVFfn9fpPJFA6H1Wo1v09MfeELX1AqlfTnv/zlL52dneFw+Pz581qtdsZm6TsqKyujNRhtbW3Nzc2CNgUvTQiJxWK9vb0MwyiVypKSktHRUdpHT3zde++9NzEM7o2Hw+FgMNjQ0EAP7O7uPnz4MH2KPzQ033NFn7Lb7QUFBfF43O/3j46OqlQq7mFHRwftaQUCgerqaqvVGo/Ho9FoKBTi97eef/75ffv2xeNxn89nt9sTPwXBierp6aHnhIvN4/HQ2Gi9EH1Rt9udk5MTj8dpuU5Gfi5ut3tsbIw2RS/U4eFhQcuRSMRkMjEMwxVYbtmyhftVslgsZrOZfl59fX2dnZ1KpfLQoUMWi8XhcHR1dXHnOQmVSqVWq4PBoKCLn5iPEULy8vJSHworKCgIBoPRaDTF/UnSD9Tr9bpcLvq/it/v37lzp9frZRjG7/cXFRX5fD6bzRaLxerr6/Py8ujp4l/GieiF3dTURHdmGGb37t3JE4kZfxcIIYKMd2Rk5I9//GNJSUnyj49KnDiUeta0FJRKJcMwK3ykkQ+JCgBAmhkeHk6+Q09PT1VVlVarpQ8rKipGR0dTrPoIh8O33nqrQqEIBAI+n6++vp52jOrq6iorK+k+dKjEZrPRfhjDMA6HI/G722AwmMorms1m2s5szY6Pj3s8HofDQUvztVqt1Wqds9mRkZG+vj46NJSfn28wGAQRcq8reBiJRFiW5QaCaL8hFArRY4uKirhzsn37dtrPXvC5qqysNBqNXIQWi4VOHaEP6Qfd3t5uMBjodrlcXl9fz/8C3mq10g9ar9dbLJbk/Rv61goKCvgPudjoxBKaThQVFXFDdhn5ufDfI22qsrKyrq5O0DKdFkK3cz/QjYQQ/nuvqqrq7e1dwBf2CoVCo9GQ65NJ4glorhiLxUKh0Lxaps1yxsbGkv8nEIvFZvtAI5GIx+PhLjb6lMfjEfTmaYbAXTn8yzgRDUalUtGHNpttzkkss/0uCDLe/v7+e+65Jz8/P/nHx71u4jlPMclcIgUFBdyFDUhUAAAyjc1mo9NX6JeF86qH7O/vLyoqksvl/f39MpmM60bQ3hu3j2CopKKiYr7f3XK47tRszUYikWAwyFWjkYQe2Ixon0av15Prld99fX10nYAZG+EechPBuaIRu93O7aZWq7lzwlnwueKmHMjl8ry8vMTvy2nvvLy8nNtOO39cEpjKqeCEw+HR0VHuEG4YJ3FP/tvMyM9FcEhBQUHi9A/+4A+/Ba7nzaV8y4Cf4C0ATaWS57HRaHS2D5ReKiUlJdxTJSUliZNetFptd3e3VqulBVoKhcLtds/2cjqdjl5XKS5Al+R3gf5A3x3NqcrLywkhyT++FJWVlfEHW5ZhVS6NRrPg/04zDxIVAIA0M2f3iKsy7+jo8Pv9Pp8vxZZjsdjg4CC/OzKb7u5ulUrF/fGeMReaVx86SbPj4+Ojo6P83VQqVW5ubpJ2aJ/G7XYrFAquqcHBwf7+/lTCoAmeSqXSaDTRaNThcMz3jcz5pualpqaGOzx552++ZuzfJ8rIzyVFdrud30/lZ0eLgqYHyfdhWXbXrl1HjhyZcb2v2QiatdlsBQUFSeZp0DyWv4X/gdKJRtx50Ol0Y2Njgha46jWdTldVVRWNRi0Wy2zhcWVy3OWdympXM/4uyOVyrvpLkFPd+McnWPWLv4TJjHJzc1P5nUou9THwjCehROXUqVPT09NiRwHpbXp6+tSpU2JHAbC0NBqN4Etoit70YHBwkNZvxONxWtmfesvRaPTDDz9M5a9sZWUlnbGQpFhCpVIJZiBQSW4jMGOz9957r1qt5u8WDocTO0l8tLPCzdKhHA5HKsU5tNKJ9k4WZUHVVM5Vcq2trYLSlMVaIDXF/lBGfi4por9K8+qqzgs9sSUlJUnmqOj1+n379v3jP/7jjKtiDA4OfvLJJ4nbh4eHBfORhoeHk5w6OltGEBv3gdKJRvzzkPjfC13ng+6Wylniqt1oSrNz5845l/2Y7XeBq/7q6enhT+Gb8+Nb8ByVGb8wmvNXIEUpfoMwm0zqUUsoUfH5fJOTk2JHAeltcnIy9S+PAdKUXq83GAzt7e38jbS+3GAwqFQqQf1G6vMy/X5/Xl4e7dkISjvod+H0Z41GI+jgzrikz2zrDrW3t884yX62ZmUymUaj4b+LOb+BFnRWqIqKCrfbPedyOoI1APhvfDY3fq5mQycw8ItV5rxfXhLcvG3uIbk+VSCJjPxcUkHr8fizBVK8UeC8tLe30wkVyeeo5Ofn33PPPTMOPQ0MDCQmKjSv4/4fEDycEb3YZvxAEy8VutKaoDcvWOeDlqulchLkcvmePXvUanWSqzH57wI334krD0vx41vwHJUZC7RmW+lkXoLB4IzrUKcuk3rUEkpUAAAgFXQWaUdHB79auqGhoa+vr76+fu3atRqNhksPWJZPYv0nAAAgAElEQVS12+2Dg4OpfHHOX5hYq9WWlZVxd3hobm7u7u6mkygYhuGvJEbv+DbjrTnq6uqCwWB9fT3XV/B6vXa7nZuZzTdbs2vXrjWbzXRJK5LCDeZon4xfy07pdLrKyso50zY6EMTNuKVvPHnJ+KKcqxlxnzXXu6K3pqFzPOZLUKNPM0lugazZ7giekZ9L8tfi0AuYW1uss7MzGAzS9Q8Whdfr7ejo4Kb7J0G73SnOr4hEIrt27aqqqppXqRidMjTjB0pnz3MjHtzdeAS/xRqNhss56e2eBgcHZ5sXLrjtPf1kE7+/4IeX5HeBVn+53W5+3deSfnx6vV6j0fBXKmNZtqam5sZvUjQ8PDyvqzSzIVEBAEg/Wq325MmToVCIq1UIhUInT57UarX0u8lgMEinATidTro+7JzfdsdiscnJSX69gc1my8vLo+0QQvhTAmw2G8MwdN6CTqdramqiXSI62qPT6Wh/l06A5hqRyWR0MdzZ+k+zNcswjM/no7Naq6uruWV8+LiX/uEPf0gISZxpQ7vpLMuOj48nP7dNTU1cKTwhpLW1dc4SqQWcqxRptdq2tjaXy8V90PwbaM5I8CnwVVRU8BdytdlsZrOZxqZQKPLy8mas2MnIzyUVSqXS6/Vyk77o8s3Jv2vnuvsz3r+IPz+HNnjkyJF51WfOhj/nW6VSmc3mJMVXsw3rJflATSaT1Wql01Ro+7Tmiqa7ZWVltESttbWVHq5QKMrLyx0Ox2zJJMMwdKlrGrPL5dq3bx93bgVzS+gMluS/CyUlJUVFRfwBjQV8fKmjI2D8/9zoovD8327Bxy27fqsikjBHnxueouN+C141IQMlDniJpaGh4eLFi2JHAent4sWLDQ0NYkcBC0cnbg4MDIgdyBLS6XQejyf5Pps2bfrud7+7PPGkiBaRJxaIQyIpn6twOFxZWSmYH7xCSPlzSYXD4UiccRFPrfvk9/u/8pWvcJNMotGo2+2mt5cBSfH5fBaL5QY/mrTrUdNRuNzc3MSnMKICAAAzoF9DcjX9dJpsKguCrUBpdK6USqXNZlvADcvTURp9Lqm4kdtrhMNhGW+l5pGRkenpaRQXSQ2dajhb8djf/d3f1dTUCO4Dk/EklKg89NBD2dnZYkcB6S07O/uhhx4SOwqATMAwDFfFQasa2traFqVGJfOk17liGCYvL6+zs1PsQJZcen0uc6I3OlQoFIIlAZJ3n+jUo7KyMv6Ukv7+/tLS0iWNFhags7MzLy9vttLQHTt2HDly5Fvf+lZRUdFPfvKTCxcuzNZOJvWoZfF4XOwYAAD+l1qtHhsbGxgYeOCBB8SOZamsW7du9+7dNTU1SfbZvHlzYWHh/v37ly0qAACQuLa2tqeeeooQ8pnPfOajjz567LHHampqFnF1B7GcO3dOr9fn5uYK7uRDCFklSkAAAAAAAJC66upqQojVar1y5Qoh5MiRI729vZ/97Gd37Nixffv2u+++W+wAFx8SFQAAybl8+fLo6OiRI0fEDgQAACREpVJ961vf+tnPfnb16lVCyJUrVy5duvTv//7vDQ0NGTPAwodEBQBAivr7++vr68WOAgAApIUuh0VX3Kb/XrlyRSaTHTly5O23356YmKADL5kBiQoAgOSsWbPma1/7GuaoAAAA38TExJNPPjk1NXXt2jVCiEwmu+WWW65evfrYY4+ZTKbHH39c7AAXmYRW/err65uenhY7Ckhv09PTfX19YkcBAACwTNB9WjlolhIMBi9fviyTyT7zmc/cfvvt3/ve906fPt3a2splKZl0SUgoUWFZdnJyUuwoIL1NTk4K1m0EAADIYOg+rRA0S/H7/XQs5bHHHnO73W+99dYzzzwjmEafSZcESr8AAAAAACSNZim33377jh07qqurM3KNr0RIVAAAAAAAJK22tvbWW2/NvFkoySFRAQAAAACQtExayyt1EpqjAgAAAAAAQEkoUTEYDNnZ2WJHAektOzvbYDCIHQUAAMAyQfcJBDLpkpBQ6RfDMGKHAGkvOzsbFxIAAKwc+KsHApl0SUhoRAUAAAAAAIBCogIAAAAAAJKDRAUAAAAAACQHiQoAAAAAAEiOhBKVvr6+qakpsaOA9DY1NdXX1yd2FAAAAMsE3ScQyKRLQkKJCsuyGXNaQSxTU1Msy4odBQAAwDJB9wkEMumSkFCiAgAAAAAAQCFRAQAAAAAAyUGiAgAAAAAAkoNEBQAgA7EsK0tQXFwcCATEDg0AACAlEkpUDAZDdna22FFAesvOzjYYDGJHASAJRUVFfr8/zlNVVbVr165IJCJ2aACwaNB9AoFMuiQklKgwDJMxpxXEkp2dzTCM2FEASFRdXR0hpKurS+xAAGDRoPsEApl0SUgoUQEAgCWlUCg0Gs3w8DB9GAgEiouLaVWY0+nkduNvNxqNdAQmEAhUVla+/vrr3FP8pcD5h9TW1sZiMUJIJBIxGo2vv/660WhMfBWn08nVpHm9Xm671+vltmO1cQCAlQyJCgDAShGNRoPBYEFBASEkEAhUV1dbrdZ4PB6NRkOhEE0w6PampiZaLcYwzO7du2niMTY29vzzz7e1tcXjcZ/PV1ZWRhMJlmV1Oh3XFCGkvr6eHkIIef755/ft20cPsdvt9BCn0xkKhaLRaDwe9/v9LpeLbvd6vS6Xi1as+f3+nTt38nMYAABYUZCoAACsFM3NzYQQo9FICGlvbzcYDFu3biWEyOXy+vr6vr6+gYGBcDhMCFGpVPQQm83W0tIil8vpQ6vVqtVqCSEMwzgcDo/HMz4+7vF4HA6HyWQSNCU4RK/XWyyWnp6eWCwWCoXy8vJos1qt9vz58wzDRCIRj8fD7a/Vaq1Wq8fjwaQaAICVCYkKAEBmGhwc1Ol0/FW/WJb1er1KpTISibAsW15ezmUg+fn5BoMhGAzqdDq1Wq3T6RKHMnJzc0tKSriHFRUVwWAwEolwozT8pnp6euhDjUYjaEcul5eXl9vtdq6ujPL7/aOjo/yXKCkpicfjNHcCAICVRkKJysmTJ6empsSOAtLb1NTUyZMnxY4CQBL4q361trYSQmw2m1Kp5HaoqanhchiFQuF2uwkhSqXy0KFDFouFezaViSKJ2UhyJpPJ5/N1d3erVCr+tBZBcqXT6cbGxub3tgFWGHSfQCCTLgkJJSonTpzImNMKYpmamjpx4oTYUQBIjslkcjgcO3fu5N9HpbW1Nf5pXPlWS0sLnXBisVgER3GCweCMP1P8MZYZMQxDX9Tn87nd7oaGBjLTksrnz5+nlWAAMCN0n0Agky4JCSUqAACwdOrq6tRqdWNjYywWEyz/Ra6v0CUYPJHL5Xv27FGr1bT4amxsrL+/n3t2eHiYYZi77rpL0NTIyEhfX1/qYywMw7S2toZCIbqeJr/Qi2VZQXkYAACsHEhUAABWBKVSabPZ3G53Z2cnnfLe0dHBTURpbm7WaDR6vZ5lWf4N7OlNV3Q6HX3ocrnoUyzLdnR0bN++XS6Xm81mu91Om4rFYo2NjQaDQa/XzxZJLBarra3lliqmc+jLy8uLioqsVis3gBOJRJxOp9ls5perAQDAyoFEBQBgpaBLddXU1LAsq9Vq29raXC4XnQ0SCoUaGxvlcjnDME1NTdxEEZfLtW/fPi5VqKurq66ulslkO3fubGtr41YAo0sM07kueXl5/IXCEsnl8sbGxlAoRF9CpVIxDEOrzkwmk9Vqpa+uUqnMZjPdDgAAK9AqsQMAAICFuHDhQnt7+9NPPz3jswzDnD9/PnG7zWaz2Wz0Z7ou8IzHxuPxGZv94he/OOMhMzalVCrpgAxFp77wf+Ye8plMJiQnAABAJJWobNy4kRYoAyxYdnb2xo0bxY4CYGm1tbV5PJ6zZ88SQjZu3Pjwww+LHREAiAbdJxDIpEtCQokK/tbCjcvOzsaFBJnqwoULL7/8cmtr67Vr165evUoI2bt3Ly54gBUO/wmAQCZdEhJKVAAAYEbcEMrq1auvXLlCN+7du7e6unrZYpitTgwAAGCJIFEBAJCoxCEUsbIUAACA5YdVvwAAJOfy5cvHjh0rLS195ZVXYrEYzVI4DofjM5/5zIYNGzZs2EC3vPDCCxs2bNixYwd9uGPHjg0bNvz4xz+mD+menZ2dhJC3336bPnz77bcJIYcOHVqUdjo7O9HODbbzwgsvpHs7P/7xj9GORNo5dOhQurdjNpvRzsLaySSy2ZZ2AQBYfmq1emxsbGBg4IEHHhA7lqWybt263bt319TUJNln8+bNBQUFd911l9fr/eijj65duxaPx2UyGSFk9erV99xzz3/8x3/86U9/IoR89atfJYQMDQ2NjIzcdtttDMMQQliWnZiYyM/PX79+PSHkV7/6FSFk/fr1+fn5ExMT9K6ODMPcdtttIyMjQ0NDaAftoB20g3Yyph2Sbs6dO6fX63Nzc0dHRwVPSShROXnyZGFhYcYsUwCimJqa+t3vfoeFv9IXEhVq8+bNhYWF+/fvJ4S0tbUdOHBgYGCATlCJx+NyuVyj0fziF7+47bbblitqAJAodJ9AIO0uiSSJioRKv06cODE1NSV2FJDepqamTpw4IXYUAIupurr6zTffPH369I4dOxQKxS233HL58uV33333ySefnJiYEDs6ABAZuk8gkEmXhIQSFQAAmM3dd9/tcDjef//9hoYGvV7/8ccf+/1+5CoAAJDBkKgAAKQTboDln//5nz/44IMLFy6IHREAAMCSQKICAJB+6ADLu+++S6dRAgAAZB4kKgAAAAAAIDkSSlQ2btyYRgsUgDRlZ2djyS8AAFg50H0CgUy6JCR0Z/qHH35Y7BAg7WVnZ+NCAgCAlQN/9UAgky4JCY2oAAAAAAAAUEhUAAAAAABAcpCoAAAAAACA5CBRAQAAAAAAyZFQonLixImpqSmxo4D0NjU1deLECbGjAAAAWCboPoFAJl0SEkpUTp48mTGnFcQyNTV18uRJsaMAAABYJug+gUAmXRISSlQAAAAAAAAoCd1HBQAgFQcPHnz//fcvX74sdiAL9Je//OXYsWNXrlyZbYe//du/nZqaev/99w8ePLicgQFAOvrd7373y1/+8rOf/azYgYBUSPOS2LZt2wKOQqICAGnmO9/5TiQSETuKG/LKK6+88sorc+52+PDhZQgGANLda6+9JnYIIC1SuyRyc3ORqADAikBLb9etW3fLLbeIHcsiGxsbGxsb+/KXv/zWW29dvXpVpVKJHREASN3ExER2dvbNN98sdiAgFVK7JN55550FHyuhROXhhx/Ozs4WOwpIb9nZ2Q8//LDYUcByaGlpKSwsFDuKRfbiiy+++OKL3/ve9xoaGgoLC/fv3y92RAAgdSdPniwsLEQPCjiSuiTOnTun1+sXfLiEEpWNGzeKHQKkvezsbFxIAACwcuCvHghk0iWBVb8AAAAAAEBykKgAAAAAAIDkIFEBACCEEJfLtXbtWpfLxW157733nn/++fRdBxkAACCtIVEBAJjBqVOnSktLJycnxQ4kVV6vVyaTyWSy2tra8fHx2tpamUxWXFwcCAQEO3i93ht8rUAgUFxc7HQ6F3Z4JBIxGo2yT7vxqFYgr9drNBqXf7Vu7lriX2BJduaC5F+lsVhsWYIFgDQmoUTlxIkTdNVRgAWbmpo6ceKE2FEAiMbn87W0tMjlcvpwcHAwHA4TQmKxWG9vr6ihCVkslmg0Go/H4/G4w+FwuVxzdnmBLxKJeDwehmGUSuW8DgwEAo2NjQt+3UAg4HK5HA5HNBo1GAy7du1KnimVlJSMjo52dXURQkwmUzgcrqysXPCrQyJ0n0Agky4JCSUqJ0+ezJjTCmKZmpo6efKk2FGApJ06dWrtdY888sh7772XuM/Bgwcff/xxQsirr7565513pvUd4nt6eggh0Wg0GAxWV1eLHc7MKioqBgcH+/v7xQ4knfj9/u7u7oqKinkdFQgEqqurb+SvrVarPX/+vM1mk8vleXl5o6OjNBmeTX5+vsFg6O3txRDKEkH3CQQy6ZKQUKICAJA6mUy2gKNOnTpFMxBqaGjoBz/4wfj4+OLFdUMWt6deWVlpsVhYlo1EIrRT+8UvfpG/A1eHw1VexWKx2tpao9HY2NhItzudTqfTOWN11uTkZGKBmdPp5B7S9lmWnW/ktLSMvij/cC4S/na6Mw1bJpMJSqG4Q/hB0kOeffbZxPj5L80vT5otpDnD5odHY6OnhQZGy+f4tXD8F03ck6+np6eyslKn0/HP/LPPPst9UizLCt57JBLZtWvX4OCg3W5PDMZut9M46Qmcs8AvFouFQiGDwZCfn8+9HI2fNkvDoPlMX1/fyMhIsk8dACABEhUASEvxeHwBRx0/fpwQcvjw4fHx8dOnT69fv/7SpUuJicq2bdsOHz5MCPnmN7/55z//edu2bTcecHJXr17dunXrkSNHHnroofl+R56EVqulX3gHg8HKysr777+fe4pl2ZqaGp/Pl1h51d3dXVpaGo1GLRaL3W4vKCigPwuqs9566609e/aEw2G1Wt3Y2Hgj35f39PQUFRWVlJSQ61/5V1VVxePx1tbWnTt30hdlWdZut/t8PhqM0+nkJyTBYNDr9dKv9nfv3k2DcTqdHR0dfr8/Ho9brVadTsfPMWj8fr+fENLe3k4IicVijY2NBoMhGo36fD63293Z2ZkkJL7k+9Dwurq6+GVa8XjcZrNFIhGTyaTRaKLRaDQaJYRs2bJFUExF9+RvoUmCRqNRKBTcxsHBwaKiong8bjKZWJYtKytrbW2Nx+NVVVW0QEupVO7bt6+oqMjhcCQG43A4zGZzd3c3PSf9/f2Dg4OzXY2RSGTLli2EkMbGRlpqyDCMw+Fwu90ej8flclkslq1bt9KdCwoKuCpEAIDUIVEBgBXEarWOj48XFRV9//vfLy0tHRoaEjsiQgi5evVqdXX10aNHH3rood/85jf8rucNKi0tJYQcO3ast7dX0KllGCYejweDQfpVOv+ooqIilUpFvwin+QP9WdA4nR2hVCoZhlnA9+Vut1uhUNCv/Ds6Otra2rRaLfl0/5imLvyBprKysoaGhpaWFkE/OzGYSCTCsmxVVRVt1mg0VlZW0kI4/iEqlUqtVodCIS7RcrvdGzduVKlUtMc/Z0hU8n0SZ5JwCQAd7DKbzXK5XC6X81MFwZ58tJZPsJFL9sinc7+KigpBmwLcS+h0OnqW6KQm/oiNgFKp7OrqKi8vVygUXPpXV1dHx/EIIfX19dxcKY1GQwhJDBgAIDkkKgCwghw8eHDt2rV33nnnq6++KnYs/4vLUvR6/W9+85vs7OxFbPz2229Xq9UdHR19fX20T8k9RQt1PB5POBx2OBz8o9RqtUqlSv1VFvZ9OZ1M7/P5ZnzFsrIymUym0+kGBweHh4cJIXq9nvaA7XZ7kmWjuGDC4fDo6KjgWX5CkojmCYSQwcFBnU4nqPJKDClRKvsIzNh9X5Q+PfcuysrKUmyTZnosyw4MDPT19c05U7+kpKSoqIhL/5RKJT2BXD0YAMCNkFCi8vDDDy/uX2hYgbKzsx9++GGxowCJGh8fb2trI4Q899xzXOmXuCHxs5Senp5F/z+Q9jt//etfDw4O0m+1OfQb93379s13zahEw8PDdBBmAcfSeqHu7u7m5mb+dlqTRtGqJ7lc3tLSEo/H/X5/UVERV5c1WzB0qETwbF5eHvc1/2zxcAuREUL4BWaJISVKZR8BweeSZON8FRUV0bI3io4OzYkOv+zfvz9J3ZdAQUEB/YEuCEYIme3TgaWA7hMIZNIlIaFEZePGjRlzWkEs2dnZGzduFDsKkKjx8fFLly6tX7+e1tafO3duztKvkZEROm1gKXBZSmFhYU9Pz2233bYUr0I7kTPW8NCRh0Ag0NHRsYCWOzo6AoEArbDivkHnBjRSXxCZ1gvZ7XY6fMH/kp4/HZ/7WavVNjU1kU/35hODoUka3U4I6erqmnONLDqpnY7VPPPMMxaLhdbLzRYSXyr7zIhWW3k8nlgsFovFPB5PkoIrjkKhSJ7M8BdS469wMGP+lhhPW1vbbGHQsTg6UZ7O7aEFZnSGDyHE5/NVVlbyZzTRwZxFyb4gEbpPIJBJl4SEEhUAgCW1du3aO+64Y2hoqLS0dO3atbSOKLmenp57772Xf7v6xcLPUo4ePbpEWQq53oFOrOGh6UFZWZlOp6uqqlpA7Ra9hwYdSNmzZw8dqaBTQcrKyrZs2UInh8xJqVTSwQc6fKHVatva2jo6OmQyWU1NTWtrK8MwhBCTydTa2kprq+g0cbqd+spXvtLY2CgIxmazVVVV0fInl8vl9/v5h8wYidfrDQaDCoVCoVAEg0Ha1Gwh8aWyTyovSgg5dOjQnMNcdNZQMBicLZFmGMbn89XU1NA5SE1NTfTjoPmb3W6f7V6NdAcy07waruXW1lbaMn9yUWdnp9vttlqtDMPYbLbBwUFuiYUbGXMDgBUtDgAgGbm5uYSQgYGBJPusXr2aEHLs2LHx+ePKvdavX3/69OnnnnuOEOJ2u8fHx+nPtCqMolsEGxfF2NjY5s2bCSE6nS4SiSS+x02bNn33u9+d16lrbW0lny49WiFoJZjD4RA7kOVGp/csxSdOy94Wq2W6Sht3f096w0f+7T4BIIMNDAwQQnJzcxe2zyoRciMAAJHce++9dIViymq1Wq3WxJ9n27IouLEUnU53/PjxtWvXLvpLwEpAa7SCwWCKQzcpouVzqZSfpWhkZKSvr89qtSafHQQAkAilXwAAy4fLUmjKdPvtty9u+2VlZbMthwUZhi6x5fF4BDdduREsy6pUqu7ubpvNduOrLFD9/f1qtdpoNBJCvF4vbX9RWgaAjCeLL+imaUvhxIkT999/f8bM/gFRTE1NvfXWW1j4K32p1eqxsbGBgYEHHnhgtn3WrFlz5cqVY8eOFRYWLmdsN47LUnJzc8+fP59kTvPmzZsLCwv379+/nOEBQDpC9wkEJHVJnDt3Tv//2bv/oDbOO3/gjxwbW8LgTKQWzSnhFF/Pkls7Igpx1ayUOLgp6mTasc0UeiO4m+tcDgrpObTGc61H8lWq5zsZ2cGMB2KcmbtpheYOMkDc9hw8iUlctAlJCIbWbaQkRzQ4SqAnxeWXZOM0+/3jqfc2KxAyNuxqeb/+QqvdZz+7+yR+Pnp+rNVaVFSUvl58NvvIaOjX66+/vnXrVpncVshRs7Ozr7/+OhKVtWBkZGRqakrqKG7OyZMnX3311Q0bNvzkJz/JvPISAECW0HwCESVVCRklKgAA2Ttw4IDUISyH0Wi84447MC8FAABgSUhUACDHrF+//tq1aw888EDO/VyUl5d3+vTpb37zm1IHAgAAkAOQqABAjtm8efPc3Nxzzz2XYR4LAAAA5Dqs+gUAAAAAALIjo0TloYceyrmBHCA3mzdvxkx6AABYO9B8AhElVQkZDf362te+JnUIkPM2b96MigQAAGsH/tUDESVVCRn1qAAAAAAAAFBIVAAAAAAAQHaQqAAAAAAAgOwgUQEAAAAAANmRUaLCsuzs7KzUUUBum52dZVlW6igApMeyrCpNSUlJJBKROjQAuJ3QfAIRJVUJGSUqg4ODirmtIJXZ2dnBwUGpowCQBYvFEg6HOYGKiooDBw4kEgmpQwOA2wbNJxBRUpWQUaICAAArqr6+nhDS19cndSAAAABLQ6ICALBWaDQao9E4NjZGP0YikZKSEjoqzOfz8bsJtzudTtoDE4lEysvLz5w5w38lHGYpPKSuri6VShFCEomE0+k8c+aM0+lMP4vP5+PHpAWDQX57MBjkt2MkJwDAWoZEBQBgrUgmk9FodOvWrYSQSCRSVVXV1NTEcVwymYzFYjTBoNtbW1vpaDGGYQ4fPkwTj8nJySNHjnR2dnIcFwqF7HY7TSRYljWbzXxRhJDGxkZ6CCHkyJEjLS0t9BCPx0MP8fl8sVgsmUxyHBcOh/1+P90eDAb9fj8dsRYOhxsaGoQ5DAAArClIVAAA1oq2tjZCiNPpJIR0dXXZbLb9+/cTQtRqdWNj4+Dg4PDwcDweJ4TodDp6iNvtPnXqlFqtph+bmppMJhMhhGEYr9cbCAQ++eSTQCDg9XpdLpeoKNEhVqu1tra2v78/lUrFYjGDwUCLNZlMIyMjDMMkEolAIMDvbzKZmpqaAoEAJtUAAKxNMkpUGIbZvHmz1FFAbtu8eTPDMFJHASALo6OjZrNZuOoXy7LBYFCr1SYSCZZlHQ4Hn4EUFxfbbLZoNGo2m/V6vdlsTu/KKCoqKi0t5T+WlZVFo9FEIsH30giL6u/vpx+NRqOoHLVa7XA4PB4PP66MCofDExMTwlOUlpZyHEdzJwBYEJpPIKKkKiGjRMVmsynmtoJUNm/ebLPZpI4CQBaEq351dHQQQtxut1ar5Xeorq7mcxiNRtPe3k4I0Wq1vb29tbW1/LfZTBRJz0Yyc7lcoVDo3LlzOp1OOK1FlFyZzebJycmbu2yANQbNJxBRUpWQUaICAAArxOVyeb3ehoYG4XtUOjo6uM/jh2+dOnWKTjipra0VHcWLRqML/k0J+1gWxDAMPWkoFGpvbz927BhZaEnlkZEROhIMAADWGiQqAABrQn19vV6vb25uTqVSouW/yI0VukSdJ2q1+ujRo3q9ng6+mpycHBoa4r8dGxtjGObuu+8WFTU+Pj44OJh9HwvDMB0dHbFYjP4EKBzoxbKsaHgYAACsHUhUAADWBK1W63a729vbe3p66JT37u5ufiJKW1ub0Wi0Wq0sywpfYE9fumI2m+lHv99Pv2JZtru7u7KyUq1W19TUeDweWlQqlWpubrbZbFardbFIUqlUXV0dv1QxnUPvcDgsFktTUxPfgZNIJHw+X01NjXC4GgAArB1IVAAA1gq6VFd1dTXLsiaTqbOz0+/309kgsVisublZrVYzDNPa2spPFPH7/S0tLXyqUF9fX1VVpVKpGhoaOjs7+RXA6H3ypbEAACAASURBVBLDdK6LwWAQLhSWTq1WNzc3x2IxegqdTscwDB115nK5mpqa6Nl1Ol1NTQ3dDgAAa9B6qQP4PyzLWiwWxcz+AUnMzs6Ojo5i4S9YC1588cWurq4TJ05s2bIl/VuGYUZGRtK3u91ut9tN/6brAi94LMdxC570K1/5yoKHLFiUVqulHTIUnfoi/Jv/KORyuZCcAGQPzScQUVKVkFGPyuDg4OzsrNRRQG6bnZ0dHByUOgqAFXT58uXjx49bLJbvfe97AwMDly9fljoiAJASmk8goqQqIaMeFQAAyODFF18MBoPnz5/Py8u7fv16fn7+Cy+8sGPHDqnjAgAAWBFIVAAAZO3y5ctdXV2/+MUv/vSnP83Pz9NFezUazSpnKYuNEwMAAFghSFQAAGRK2IVCUxSVSpWXl5eXl/f888//9V//9czMTEFBASHk2rVr8/Pzd9xxh0ajIYQkk8k///nPeXl5GzduJITMzMwQQjZu3JiXl/fnP/85mUwSQjQazR133DE/P3/t2jVCCMpBOSgnR8u5fv367OzstWvXZBIPypG8HKIknGwcO3bs448/ljoKyG0ff/zxsWPHpI4Clq+oqIgQMjw8fIv7yJnZbA4EApn3+epXv2o2m/V6vV6vLyoq0n/ef/3XfwUCAfo33f/gwYN6vf4b3/gG/fiNb3xDr9cfPHiQfqR70pOOjo7Sj6OjoxzHoRyUg3JyvRyLxSKreFCO5OXIqkU9PDxMCCkqKlrePipukaVdVt/g4ODOnTvz8/OlDgRy2Nzc3O9+9zubzSZ1ILBMer1+cnJyeHj4/vvvv5V95Gz79u2HDx+urq7OsM/u3btNJlNZWVlbW9u77767fv36Tz/9lH61YcOGvLy8YDD4hS98gdx4AXw8Hp+ent64caPBYCCEfPTRR1evXi0sLNTpdIQQ+jZGnU5XWFg4Pz//4YcfEkLuvvvuvLy86elp+oLFlShn06ZNf/VXf4VyUA7KWdFyfv3rX997771FRUW3WE4sFrt27dqtx4NyJC9HVi3qixcvWq3WoqKiiYmJZewjo0QFAACJCrV79+6dO3eePHmSEHLp0qXnnnvuV7/61WeffUaHAdBcBTPpAQBA5m4xUZHR8sQAAJBux44dLS0tFy9efPrpp7dt20YI4TgulUrt3bv30qVLUkcHAACwUpCoAADkgC1btlRVVV24cOGll17av3//xo0b5+bmkKsAAICCIVEBAMglfAfLiRMnvvzlL99zzz1SRwQAALAisDwxAEDuoR0sVVVVUgcCAACwUmTUoxIKhWZnZ6WOAnLb7OxsKBSSOgoAAIBVguYTiCipSsgoUXnjjTcUc1tBKrOzs2+88YbUUQAAAKwSNJ9ARElVAkO/ACAnPfroo1KHsEzXrl07evToc889l2Gf0dHRN954IxAIrFpUAJCjrl+/7vV6VSqV1IGAXCipSiBRAYCcNDU1JXUIyxcOh8Ph8JK7Xb16dRWCAQAAkCckKgCQY377299KHcItcTgchw4d+u53v5thn/Ly8u3btx89enTVogKAHPXss89WVFR88YtflDoQkAslVQkkKgCQY3L9f77r1q3buHFjfn5+hn3Wr1+/adOmXL9SAFgFmzdv1ul0+N8F8JRUJWQ0md5utxcUFEgdBeS2goICu90udRQAAACrBM0nEFFSlZBRj8pXv/pVqUOAnJefn4+KBAAAawf+1QMRJVUJGfWoAAAAAAAAUEhUAAAAAABAdmQ09AsAgDp9+rTUIaygK1eusCybeZ/JyckrV658//vfX52QAAAAZEjFcZzUMQAA/IVer5+cnJQ6CgAAAFhVRUVFExMToo0y6lEJhUIlJSWbN2+WOhDIYbOzsyMjI1j4K3d97WtfkzqEFRcKhcrLy0tLSzPsc/LkyXXr1u3YsWPVogKAHHXlypXCwsI77rhD6kBALpRUJWSUqLzxxhtf+tKXkKjArZidnX3jjTeQqOSu3t5eqUNYcdu3b3c6ndXV1Rn2eeGFF3bu3Hny5MlViwoActTx48ddLpder5c6EJALJVUJTKYHAAAAAADZQaICAAAAAACyg0QFAAAAAABkB4kKAAAAAADIjowSFbvdXlBQIHUUkNsKCgowkx4AANYONJ9ARElVQkarfn31q1+VOgTIefn5+ahIAACwduBfPRBRUpWQUY8KAAAAAAAAhUQFAAAAAABkB4kKAAAAAADIDhIVAAAAAACQHRklKgMDA7Ozs1JHAbltdnZ2YGBA6igAAABWCZpPIKKkKiGjROXNN99UzG0FqczOzr755ptSRwEAALBK0HwCESVVCRklKgAAAAAAABQSFQAAAAAAkB0kKgAAAAAAIDtIVAAA4PZIpVJ1dXXBYDDDPolEwul0Zt4nXTAYrKurS6VStxYgYVnW6XQmEolbLGelBYNBlmVX+iz0ealUqpy4J7dFc3NzJBLJfv9IJNLc3LzkPiUlJQs+r9tVbwHWLBklKg6Ho6CgQOooILcVFBQ4HA6powAAWL5IJOL3+1fhRD09PdFoNB6P9/X1abXaVTijtFiW/fnPf579/qlUqrm5Wf6TktF8AhElVYn1Ugfwf3bt2iV1CJDz8vPzUZEAAGDtwL96IKKkKiGjHhUAAMgSy7IqlYoO2mFZtry8PBKJ0FFV/BAUOrDH5/PRj/RbehQ/HIXuc/r06ZKSEpVK9Z//+Z+iQSzBYHDBcUF8ACUlJfTw9BE1wjOKCvnjH//IfyUcBsYPRqL44DMIBoP8/nxRwnIOHTokvA8L8t0guj/8t/zF8pfJsmxdXd2hQ4f4/Re7Xjo0SHRF/J3n46SFsCxrNptHR0ftdju/Mx+AKDZhyfQp8M9uwZOKLrm6uvrcuXM6nY6ONMvyckT3in7Ff1zwXHQE1OnTp0WliaofDV4YOX+xNJgzZ84sWG0WrNv0vPTpq1Sq73znO3a7fXR01Gw2B4NBn88n3DN9RGIikdi3b197e7vH4+EDXuxBEEJ+//vf82EvNmxvwYoEABkgUQEAyDEsy9rt9lAoxHGc2+222+2Tk5OZD0kkEi6Xi2EYjuM4jjMYDPv27eObnm1tbZ2dnRzH7d2712az9ff30+2pVGpgYIBhGNG4IJZlGxoawuEwx3Gtra21tbXpZ4xEInv27OHPyDCMy+Xiz/jDH/7Q7XZzHBcOh/1+P20gplKpxsZGg8FADwmHw93d3Zlns/h8vkAgEI/HOY6Lx+OBQCAYDArLSSaT09PT7e3tS95Vj8dDCKGHEEIaGxtpM9Tn87EsS0/R2tpqNpv5Zmh7e3tBQQHHcadOnRofH9+zZ09NTQ0Nvqamhl5vJBKpqqpqamqiJcdiMWEDt7a2lh4SDocHBwd7enoYhgmHwxaLJRQKud1uGkAsFksmk/Qao9HosWPH6B2uqqpqbW2lh7e1tY2OjvI3P8NJKbfb3dHRUV5eHo/HXS7Xgpez2OPzeDxbt26l552YmNDpdPzHxR5Ze3v78PAwvQpRaXz1YxiG5ml85MIHQQjZu3dverXJXLf9fr/D4eA47vnnnw+FQhaLJRwOu1yusrKywcHB8fFxuhu9kNLSUj5grVbb29tbW1vr9Xrp0LjFHoToKkKhkN1uT89VMlQkAFgMEhUAgFySSqUCgYDX62UYhhDCMExHR8eSR/X19RFC6uvr6Uf6B91ICKmoqDCZTIQQtVrtcDhYlqXtvPHx8cHBwbKysvQAmpqa6CEMw3i93vQzdnV12Wy2gwcPLnhGPn6TydTU1BQIBBKJxPj4+AcffFBZWUn3KS4uttlsY2Nji11UIpFgWdbtdtM8SqvV9vX1uVyu4eHhaDRKz6hWqxsbGy0Wy5K3qLy8XHjI4ODg8PBwJBLp7u7mT0EvNhAI0KazxWLhox0aGrLZbPv376cfXS4Xbd3S+0C3C0tOvw8VFRUDAwOidIJeY01NjVqtptfIMEwsFkulUl1dXRUVFcLbKLr5i510McLLyfz4ysvLnU4nufGMamtr6bkyPDKLxdLY2EivYrHqx9dtmjhlvl18tclct/lQRcxms16vHxoaoh/7+/ttNltxcfFiNyfDg6A7iP6L4CsJlbkiAcBikKgAAOSSZDIZjUaFyYPRaMx8SHrHCG1m8Q3KrVu38juXlpZOTEyEw2FCyNDQkF6vN5vNwtJo9iI8qSiToWeMxWIGg4G26vgzDgwMXL16VXRIaWkp/YnaZDKdO3fOZDLRwT8ajSZzTwj/c75oe39/v9Fo1Gg09CNtPWe+RYQQ4f2hh0Sj0fQ7UFZWFo1G6Y/9er2enp3eYeH1UrR163A4+O18yfSj8M4viGZfDMPwo5toz88nn3zCsqzowdF8bMmTLkZ4OYs9Ptqw5m+vWq02GAzpF55OmAYsVv1o3RZeFI2c7+JLrzYffvhh5rotrAlCwitKv2ML7r/gg6CKioqEvTHCSkJlrkgAsBgZJSoDAwMzMzNSRwG5bWZmZmBgQOooAFZQPB6fmJgQbtHpdEVFRUse6PF4VALCZpYQ/Wm/v79/sXFf2VuyFS7CTywxm80VFRXJZHLBQWVCfNt65dBZHPx9s9vti+252PVWV1fzhy+ZfaWjExt0Op3RaEwmkwv2X932k5Kbf3y3y5KJd7os67ZIZWXlBx98MD4+nj7ua0HLexC87CvSzULzCUSUVCVklKi8+eabc3NzUkcBuW1ubu7NN9+UOgqAFaTT6fR6vXBLPB5fco4KIcTr9XKfR6dApCsrK2NZdnh4OH3c101JHwJkMBg2bdok2sjHT89Ip74sFpvIxMREPB5fdoSLoT/t07/pLA7hfVtsMd/FRql1dHSI7jwd2pQNOmSIzkc6derUkh0Xt+Wk1IKPL/sAMqA9Not9m97zs2DKJKz22ddtoeLi4nvvvXdoaGjJcV/kJh/Egp1X2Vekm4XmE4goqUrIKFEBAIAlaTQao9HID4Yhaa0i/iPf2qbjc4Tj6TO/mZEOUOnv708f90UWGkckDIZKPyMdXcO3OIWHR6NR2jESjUaF7UU6xizDraB9KemJimhQzZLlUPzMHFomx3GlpaVGo1GUCy34Cr/066XowxK2+EUrsy0pHo8LnwK9jYSQu+66SzjAiRAyNDREJ9Pf+kmXfHzLIJy5nj58kUqPXDTOUFTtbTbbtm3bbqpuC9EZWb/+9a//8Ic/ZB73RRZ/ENTk5KSwkoyNjYmGnGVZkQBABIkKAEAuoTOMu7u7+bVc+ZcD0nYeP5Ggra3t3Llz9Kv6+nrhIkX0TX8LTjImN4bvezyeBcd9qdXqmpoav99P11dlWdbj8aQPwaqsrBwcHOTP2NbWRgjhz1hdXS2Mv6amRqvVGo1GujYUufGuvdHR0fTWP4+OUvP5fMK1bn0+n9VqNRqN9Ix8OUs2ss+dOyc8xG63m0wmhmEqKioOHDhAT8FHm96opdfb09NDP7IsW1JSMj4+Th8W325ua2szGo1WqzVzMDydTjcxMcFPDafPlKZhlZWVompgsVh0Oh1fQ5Z9UrLU41uG0dHR5uZmvmYuGA+tWh6Ph18Frrm52Waz8Xt6PB5RtVGr1TdVt0VKS0vfeeedd955Z8lxXxkeBN3S0NAg/C9CVEmyr0gAIIREBQAgx5hMps7OzoaGBpVKVVVVxa93pFarjx49Go1GNRqNSqXaunUrP4xeq9XSd2XQ8fF0Gd8Mw07or92LjftiGIaur0rfm/HCCy8sGOT58+f5M8Zisd7eXv6ML7zwAh3xbzabW1tb6agkuoKZ3W6n0yocDofX68084djtdtfU1NCh/xqNxmAwuN1utVrd3Nwci8XoRqvVuuRcF0JIbW3tzMyMsBz+FAzD0FPQaOnCUwtebyAQoNfb0NDQ2dlpMpnow/L7/fx9aG5uztw8pQmY3W6vq6srLi5ubW3lJ5wQQjo6Ouhv86Jq8NOf/pSfqrSMky54OYs9vmUoLy83mUy0ZmaIh67OTCOnD0I4zuqZZ54RVhv6ILKv21ar1Wazmc1m/mUvtHtwsXFffOJUUlJCCFnsQRBCioqKfvrTn1ZVVdFHHw6H0ytJlhUJAD6Hk41jx459/PHHUkcBue3jjz8+duyY1FEAZGI2mwOBQOZ9HnnkkSeffDLLAvm3Q9xyaP+Hf8NGljvX1tbS90vIUDweLy8vp7MLFuP1euV8CdkIhULZP7JVdlPVaUH0IaZPvLlFK1Ts7XL69Onx8fEld0PzCUSUVCVk1KPicDgKCgqkjgJyW0FBgcPhkDoKgNxG1/uiw7HSv6UTHoQvvA8EAksO8V9NwWBQ+OZvOlwnfbJNTqPj3PhJDvQNJLeyRNvaRJfhvpUhbSvntdde83g8u3btqq6u5oecLQjNJxBRUpWQUaKya9eu/Px8qaOA3Jafn79r1y6powDIYT6fjw65WWyRKK1W29LS0t3dTcfA6HQ6+hb2VY4zA5fLVVFRQUemZTPOLReJhvmJhqvBkui7ehoaGlpaWuRZNx566KETJ04QQs6fP19bW2uxWI4fP3758uX0PdF8AhElVQkVx3FSxwAAsIZs37798OHD1dXVGfbZvXv3zp07T548uWpRAYAMdXZ2PvXUU/TvvLy8+fn5PXv2VFdXy7MXCOC2Wy91AAAAAACwgKqqKkIIzVXm5+c5jjt//vzAwMCdd97593//95WVlffcc4/UMQKsIPSoAACsqmx6VGw22yeffPLFL35x1aICANmampoSvoOF4zi68hghxOl0er1epCugVOhRAQCQo+3bt//DP/yD1FEAgMSSyeQzzzyzYcOG+fl5mp+oVKqNGzeuW7fuW9/61hNPPIEsBRRMRonKb37zm/vvv18xyxSAJGZmZi5evPjwww9LHQjALdm0aVNxcfH+/fulDgQApDQ1NbV3794rV67Mz88TQtavX//pp59u27atvr7e6XRu2bKFoPkEaZRUJWS06tdbb701NzcndRSQ2+bm5t566y2powAAALhVNEt57733rl69umnTJo1Gs3///pdeeunChQtVVVU0SyFoPkEaJVUJGfWoAAAAAAC5kaXQN72IulAA1g4kKgAAAADycvny5cuXL1dWVj7xxBM7duyQOhwAaSBRAQAAAJCXHTt2vP/++1JHASAxGc1RAQAAAAAAoGSUqDz88MPKWKAAJFRQUIAlvwAAYO1A8wlElFQlZDT068EHH5Q6BMh5+fn5qEgAALB24F89EFFSlZBRjwoAAAAAAACFRAUAAAAAAGQHiQoAAAAAAMgOEhUAAAAAAJAdGSUqv/nNb2ZmZqSOAnLbzMzMb37zG6mjAAAAWCVoPoGIkqqEjBKVt956a25uTuooILfNzc299dZbUkcBAACwStB8AhElVQkZJSoAAAAAAAAUEhUAAAAAAJAdJCoAAAAAACA7SFQAACCXpFKpurq6YDBIPwaDQZZlpQ0JAABWgowSFYfDUVBQIHUUkNsKCgocDofUUQDAKolEIn6/X+ooAKSE5hOIKKlKrJc6gP+za9cuqUOAnJefn4+KBAAAawf+1QMRJVUJGfWoAADAbcSyrEqlUqlUTqeTZdny8vJIJCIaN0UI8fl8dXV1qVSKEJJIJJxOJz2K30gICQaDhw4dqqurU6lUP/7xj51Op7AElmVLSkoikYjo7HV1dYcOHRIW5fP5aOGi/fntKpVKOKZLGEP6WViWNZvNo6Ojdrvd5/Pd3rsHAACSQ6ICAKBALMva7fZQKMRxnNvtttvtk5OTmQ9JJBIul4thGI7jOI4zGAz79u1LJBL0W7/f73A4OI77f//v/zEMMzAwwKcQ/f39NputuLhYVGB7e3tBQQHHcadOnVKr1T6fj2XZeDzOcVxra6vZbKZzS3w+XywWSyaTHMeFw2G/35/lnBOGYcLhsMViCYVCbrf75m4QAADIHhIVAAClSaVSgUDA6/UyDEMIYRimo6NjyaP6+voIIfX19fQj/YNuJISUl5c7nU76d1lZ2eDg4Pj4OCEkkUiwLOtwONRqtahAi8VSWVlJ/45EIt3d3W63W6vV0pC8Xm8gEPjkk09isZjBYKCHm0ymkZERGjYAAKxxSFQAAJQmmUxGo9GysjJ+i9FozHxIKpUaGBhgGIYmEoQQrVbLMMzY2BhfgkajoX+bzWa9Xj80NEQICYfDExMTpaWl6WXq9XqdTkf/Hhoa0uv1ZrOZ/7asrCwajXIc53A4PB6P0+nke28AAACIrBKVCxcuzMzMSB0F5LaZmZkLFy5IHQWAxOLx+MTEhHCLTqcrKipa8kCPx6MS8Hg8C+6m1Wpramro6K/Fxn2lO3funE6n4wu32+10u8vlCoVC/LfCeSkAsCQ0n0BESVVCRonK0NDQ3Nyc1FFAbpubm6O/8gKsZTqdTq/XC7fE4/El56gQQrxeL/d5i839KC0t/eCDD4aHhxcb95WuvLycTlDh9fX18SPB6JZQKNTe3n7s2LHsLhQA0HwCMSVVCRklKgAAcFtoNBqj0djf389viUajwh34AV2pVCoWixFC1Gq1wWCIxWJ8b0b6+mBCxcXF995775kzZziOW3Dcl4jRaJyYmIjH4/wW0aJeFJ1Ow4cRjUaTyeSClwAAAIqHRAUAQGnUanVjY2N3dzddPkv4VkSakLAsSyeE9PT0tLe306/q6+uj0Sjfm9HT0xONRvkJ9OmncDgcfr//3nvvzWbcF8MwFRUVBw4coOelIdXU1BBC6urq+MWFE4lEIBCgXTRGo/HcuXPhcJjgxY4AAGsSEhUAAAUymUydnZ0NDQ0qlaqqqopfy4sQcvDgQaPRSCeEjI2N8QuCabXaYDDIv30lEAgEg0F+bn260tJSi8WS5bgvQojb7WYYhp7XbDa3trYyDKNWq5ubm2OxGD2pTqdjGMblcpEbvSt2u12lUh04cKC1tTV9mo3JZKqoqLDb7ZjZAgCgPCqO46SO4S+OHz/ucrlE46oBbsrExEQwGPzRj34kdSAAi9q+ffvhw4erq6sz7LN79+6dO3eePHkyc1FTU1NbtmzJ5qQsyzY0NHR2dppMppuIddXLBICbheYTiCipSsioR+Xhhx8uKCiQOgrIbQUFBQ8//LDUUQCsuBdffLG6utpsNl+6dEmqGPr7+ysqKpClAEgLzScQUVKVkFGi8uCDD+bn50sdBeS2/Pz8Bx98UOooAFbK5cuXjx8/brFYvve9750/f37v3r07duxY/TCCwaBKpYrFYgcPHlz9swOAEJpPIKKkKrFe6gAAAGBpL774YjAYPH/+fF5e3vz8/IYNGx5//PFnn302y8MZhhkZGbldwbhcLjqNBAAAYOUgUQEAkK/Lly93dXX94he/+NOf/jQ/P89x3LVr19RqtdPpzD5LAQAAyEVIVAAA5CgWi1VXV/NdKPzCJ5s2bXI6nf/yL/9y+vRpQsg///M/E0IGBgbeeeedL3zhC/v27SOE9Pb2/u///u/27dsdDgch5LnnnuM4zuFwbN++PR6P9/T0EEL279+v0+neeeedgYEBlINyUE7ulgOgYDKaowIAANT169c/+uij11577Y477pifnyeEqG64du3a7t27x8fHz549e/bsWbr/pUuXzp49GwqF6EeWZc+ePfu73/2Ofvzv//7vs2fPjo+PE0KmpqbogVNTU4QQlINyUE6ulwOgYDJanvjChQtWq1UxyxSAJGZmZoaHhx955BGpAwFYVPbLE//sZz/r6+tra2t79913169f/+mnn/I7nDhxoqqqauWDBQC5Q/MJRJRUJWTUozI0NDQ3Nyd1FJDb5ubmhoaGpI4C4PbYsmVLVVXVhQsXXnrppf3796vV6o0bN9Kvnnrqqc7OTmnDAwA5QPMJRJRUJWSUqAAAwIJ27NjR0tJy8eLFp59+etu2bXQjchUAAFA2JCoAALlB2MFSWVmpVqufeuopCV/4CAAAsKKQqAAA5Bi+g+Xf//3fJXnhIwAAwCpAogIAkJO2bNnyzW9+U+ooAAAAVoqMEpWHH35YGQsUgIQKCgoefvhhqaMAAABYJWg+gYiSqoSMXvj44IMPSh0C5Lz8/HxUJAAAWDvwrx6IKKlKyKhHBQAAAAAAgEKiAgAAAAAAsoNEBQAAAAAAZAeJCgAAAAAAyI6MEpULFy7MzMxIHQXktpmZmQsXLkgdBQAAwCpB8wlElFQlZJSoDA0Nzc3NSR0F5La5ubmhoSGpowAAAFglaD6BiJKqhIwSFQAAAAAAAAqJCgAAAAAAyA4SFQAAAAAAkB0kKgAAAAAAIDsySlQeeeSRgoICqaOA3FZQUPDII49IHQXAygoGg3V1dalUahVOxLLs7SotEok0Nzenb2dZ1ul0JhKJ23UiSWS4V83NzZFIZEXPvkL30OfzrURNS6VSdXV1wWBwyT35u5pIJJxO522sjUqC5hOIKKlKyChRKS0tzc/PlzoKyG35+fmlpaVSRwGwslwu16lTp9Rq9YqeJRKJ+P3+21VaKpVqbm6enZ1N/4phmL6+Pq1We7vOtfoy3CuWZX/+85+vcjwyp1arT5065XK5Mu8mvKtarbavr49hmJWPLveg+QQiSqoSMkpUAAAAAAAAKCQqAAA5hh/6RcfDnDlzxul0qlQqlUrl8/n43Xw+n+oG4TCbSCRSUlIi2p+Oxjl9+jT96tSpU2azeXR01G63C8tcsBB+dFB6PPS8iURi37597e3tHo8nfYQSP2yJj6Gurk5UcvodOHToEN2NhkdPveBRLMvS7XTsUHl5eSQSSR99JBrmxN+9kpIS4cCt9LvKsuxi9yoYDNrt9tHRUbPZzJ9LWEKGsUwL7kbDphvpHVjw6SyGvxXCuyQaNkafrDCwI0eOpN9YYQUQPdNgMCi6RYlE4u/+7u9Onz5N7+fo6Ch/8yORSHl5+ZkzZ/jS6KlFd1U09GvB6pd9/QGAXIFEBQAgtx05cqSlpYXjuFAo5PF4aGPO5/PFYrFkMslxXDgc9vv9dHskEqmqqmpqauI4LplMxmIxYWOura2ts7OTu/vNLAAAIABJREFU47i6urpwOGyxWEKhkNvtFp2RNiL5QgghjY2NfCF79+51u938eYPBoFar7e3tra2t9Xq9S47yqq2trampoYcPDg729PQsuJvf73c4HBzHud3uRCLhcrkYhuE4juM4g8Gwb98+2nRmWdZut4dCIbqn3W6fnJxc8pb6fD6WZePxOMdxra2tZrM5w11lGGaxe+VyuUKhkMViCYfDLpeLtqT5kkOhkN1uT89V6G7CEzU0NLAsm0qlGhsbDQYDve3T09Pt7e1LXguPZdmGhoZwOMw/tWPHji15VHt7e0FBgehB01rU2tpKbzjDMIcPH6YVwOfzBQIBeoHxeDwQCNCE5MqVKz09PfF4fGRkZNu2bcJTTE5OHjlyhFY8/p5kuKuZq1+W9QcAcgISFQCA3NbU1GQymQghVqu1tra2v78/lUrFYjGDwUDnsZhMppGRETq+v6ury2az7d+/nxCiVqsbGxsHBweHh4dpURUVFbSoDFKpVCAQ8Hq9dI5BeiFer5eey2QyNTU1BQKBm5rkLTy8oqJiYGBgwR/Fy8vLnU4n/buvr48QUl9fTz/SP/r6+vhQaYEMw3R0dCwZQCQS6e7udrvdNKFiGMbr9QYCgU8++WSxu5ql4eHhwcHBlpYWUcmiCxwfH//ggw8aGxtFJxoeHo5Go/Tq6G23WCzZnz0ajer1ep1OR27MEklPQdOVl5cLz0gfdDweJ4TQogghbrebTppKJBIsy/K3jk4s4eei1NTULJaj8nV4sXvCu6nql6H+AEBOkFGicuHChZmZGamjgNw2MzNz4cIFqaMAWFVGo1G0Ra1WOxyO9HFWtB3pcDj4ifjFxcU2my0ajdKPW7duXfJ0yWQyGo0K96SF9Pf3049lZWX8V6WlpfSX9ewvJ5sYCCFGo1Gj0RBCUqnUwMAAwzB8I1ir1TIMMzY2RkMVxpN+r9INDQ3p9Xqz2cxvKSsri0ajHMcteFezJ0wV+JIHBwfHx8dFAahUKuFuVH9/P3/V5MZtz/7spaWlExMTOp3uptbOEt5YvraYzWZ6i0Qrd4XDYXqKBYta7OYXFRUJF0Ghd5t2laRbsvplWX+UBM0nEFFSlZBRojI0NDQ3Nyd1FJDb5ubmhoaGpI4CQHp00NG5c+d0Op1osH51dTU/hUCj0dzU8CFeNi3+1eTxeFQCHo+HEBKPxycmJoS76XS6oqKiJUvj7xtlt9vp9gx3NUvCTOPWd7spJpPp/Pnz5eXldrs9fe7NTeHH8vF1iU9+RJnYCpFb9ZMWmk8goqQqIaNEBQAAbiN+zkYoFGpvb+cnJHR0dHCft+RCsen4Thjegr9kx+PxbOaE3Dqv1yu6KLfbrdPp9Hr9MuIpLy+nsyx4/NSaxe5qltL7ChZs2WfoUrgVdCwW7ePS6/UHDhy4qa4h2ptB/6aDx+gskdra2oaGBpr2TExM3FQHWrr0qpXNPmuwIwVgLUCiAgCgcHRuRiwWU6lURqNxbGyM/2oZ79HTaDSiQsbHxwcHB/kfuflBOISQaDRqs9mKi4tv+SIWpVarDQZDLBbjOzf4Fb1oqKJ4hMfyV0Fn9dC/jUajqLW94Bs2+buafadKesmi0VyL7UaJxkTR257lqUW0Wi1dgIGeRXi6eDw+OjrK7ym8QNpDJerNUKvVR48e1ev18XicZlw3m6hMTk4Ke8LHxsaE481Elqx+AKAkSFQAAJSGttT5hWsTiUQgEHA4HHfddVdjY2N3dzc/taCtrc1oNFqt1uwLV6vVNTU1Ho+HFkLf5Giz2fhC+JXH6Av7ampqVvrdlPX19dFolO/c6OnpiUajTqeTzrTu7u4WxsNfhcFgYFmWdin09PTwQ+AYhqmoqOB7G/irIIQseFezvzqr1Wqz2fiSWZb1eDzp94fu1tzcLFz0ORgMWq1Wo9HY1tZGbtz20dHR7HsSgsGgcHZNV1fXvffeW1xcTLMLmiokEgnResd8r5HwQbMsKxw5RhczMJvNdP46XU2YpNXDDPx+Py2NZdnu7u7KysrF9lyy+gGAkiBRAQBQGrVa3dzcTLtQ6LRshmHo+C6TydTZ2en3++lXsVisubl5waY2bXTa7fYFOxPo4rx0lovBYKCLPtFvn3nmGfoOELPZ3NraSpdg4tuXtzI1YjFarTYYDPIvCaFL4tKf5On1NjQ0qFSqqqoqfmUwQsjBgweNRiOdbTI2NiZcEMztdjMMQ7/iryLzXV3sXtGsw2w2+3w+OlyKL5kuFpy+bhjdzWAwaDQaeqKamhqXyyUMQKPR0EXesr9LLperpqaGn3vDsuzRo0fVarXJZGptbaWzTfbs2eN2u8vLy/mjvF4vIUT0oBmGoas206L8fj+/lJnb7ebPQg/JZm2x+vr6qqoqek86OzvpCmDCu3r16lV+58zVDwCURMVxnNQx/MXQ0NCXv/zl2z59ENaUZDL5hz/8QbiADIDcbN++/fDhw9XV1Rn22b17986dO0+ePLlqUd0W9H0mtFUtdSwLo+8S4ZvCOY3ebZpTSR3L8vGvZMnpq1gJU1NTP/7xj6urqx966KHMe6L5BCJKqhIy6lEpLS1Vxj0FCWk0GmQpAKBIwWBwwQFXkgYFK+Xy5ct9fX0VFRUWi+W5556bmppabE80n0BESVVCRokKAAAALMblclVUVPADroQj3KhIJFJSUqJayEqMuIMVtWPHjl/+8pdqtfqPf/zjz372M7PZXF9f/9prr0kdF8CqktHQLwCAtUDBQ78A4Pa6dOnSt7/97VQqxXGcSqXKy8u78847n3zyycrKyi1btkgdHcCKWy91AAAAIMZx3GeffTY/Py91IAAgpW3btnV3d1dUVNBFGq5du0Y7WDwez759+7KZwQKQ05CoAADIzrVr13p6enp6eqQOBABkRKVSEULm5+c5juvt7e3t7f3KV77yH//xH/fcc4/UoQGsCBklKq+++uoDDzxQUFAgdSCQw2ZmZt5+++3du3dLHQjALVGpVI899thPfvITqQMBAInNzs7W19d//PHHn376KSGE47gNGzZ8+umn27Ztq6+vdzqdFy9evPPOO9F8Ap6SWtQySlTefvtts9msjNsKUpmbm0OiAgqwcePGLVu2YEEngDVuamrq8ccfn5iYoFnKxo0b161b961vfeuJJ57YsWMH3QfNJxBRUpWQUaICAAAAABTNUj744IN169YRQvguFEyjh7UDiQoAAACAvNAs5X/+53/UarWoCwVg7UCiAgAAACAv09PTd9111w9+8AN0ocBahkQFAAAAQF7uueeeX/7yl1JHASAxGb2Zfvfu3YWFhVJHAbmtsLAQM+kBAGDtQPMJRJRUJWTUo/LAAw9IHQLkPI1Gg4oEAABrB/7VAxElVQkZ9agAAAAAAABQSFQAAAAAAEB2kKgAAAAAAIDsIFEBAAAAAADZkVGi8uqrr87MzEgdBeS2mZmZV199VeooAAAAVgmaTyCipCoho0Tl7bffnpubkzoKyG1zc3Nvv/221FEAAACsEjSfQERJVUJGiQoAAAAAAACFRAUAAAAAAGQHiQoAAAAAAMgOEhUAAAAAAJAdGSUqu3fvLiwslDoKyG2FhYW7d++WOgoAJUskEk6nk2VZ+rG5uTkSiUgbEsBahuYTiCipSsgoUXnggQc0Go3UUUBu02g0DzzwgNRRAKwVLMv+/Oc/lzoKgDUNzScQUVKVkFGiAgAAAAAAQCFRAQBQoGAweOjQobq6OpVK5fP5yI0hWyqVSqVS1dXVpVIpumcqlaK7UXRMF90YDAb5An0+n/Aoegq73T46Omo2m4V7AgAA3BZIVAAAlMnv9zscDo7j3G53IpFwuVwMw3Acx3GcwWDYt29fIpFIpVKNjY0Gg4FuD4VCDQ0NWc45cblcoVDIYrGEw2GXy7XSlwMAAGsNEhUAAGUqLy93Op30776+PkJIfX09/Uj/6OvrSyaT0Wh069atdDvDMCMjIyaTSYp4AQAAPkdGicorr7wyMzMjdRSQ22ZmZl555RWpowCQBaPRSOdTplKpgYEBhmG0Wi39SqvVMgwzNjZG/6iurhYN6wKAXIHmE4goqUrIKFEZHh6em5uTOgrIbXNzc8PDw1JHASBHHo9HJeDxeOh2t9vd0dHR3t6u0Wj4CS0AkCvQfAIRJVUJGSUqAACwcrxeL/d5brebfuVyueiWjo4Oj8eDmfEAACAH66UOAAAAVpZarTYYDLFYLJVKqdVqQgidQ+9wOEST4F0u19jY2NjYGP3I/5FKpWKx2CqHDQAAaxx6VAAAlK++vj4ajR47dox+7OnpiUajTqeTrlnMd6FEIpHu7u6ysjKa27Asm0gk6P7t7e2SRQ8AAGsSEhUAAOXTarXBYJBlWTpBJRAIBINBrVZLtwcCAbrdbDY3NTUxDEMIOXjwoNFo1Ol0KpVqbGyso6MjvVir1Wqz2cxmM2a2AADAbafiOE7qGP5ieHjYbDbTNWoAlieZTIbDYavVKnUgAIvavn374cOHq6urM+yze/funTt3njx5MnNRly5d2rFjx22NDgByDJpPIKKkKiGjHhWr1aqMewoS0mg0yFJA8aampp577rmSkpLHHnvstddekzocAJASmk8goqQqgcn0AAA547XXXuvo6Ojt7aUfKysrH3roIWlDAgAAWCFIVAAA5G5qaqqrq6u1tXVycnLDhg2EkA0bNuzbt6+lpUXq0AAAAFYKEhUAAPniu1A2bNhw/fp1juPm5+fz8vKQpQAAgOIhUQEAkJ0///nP7733XklJCd+Fcv36dUKISqVav379vn37vvvd7/7whz8khDzzzDOEkOeff/7111+/++67+Y0ffvihzWarrKwkhNCN3/nOd772ta99+OGH9JDGxsZ77rnn9ddff/7551EOykE5uVsOgILJKFF55ZVXHnjggcLCQqkDgRw2PT399ttvP/roo1IHAnCrVCrVYttpurJp0yZ+I/2Yl5dHP+bl5W3atIlmOIQQuuf69evp4fTjunXr+ANRDspBOblbDppPIKKkKiGj5YmPHz/ucrn0er3UgUAOm5iYCAaDP/rRj6QOBGBRN7U88WuvvRYIBF544QV+6BchZOPGjfv27Ttx4sRqhQwA8oXmE4goqUrIaHliAAAQeeihh5599tlwOOx2u4uKilQqVV5e3vz8fG9v71NPPSV1dAAAACsIiQoAgNxt2bLliSeeGBkZ6e7ufvzxxwkh8/PznZ2dyFUAAEDBkKgAAOQMvoPF6/UWFRV1dnbihY8AAKBUSFQAAHIM38Hy0ksv4YWPAACgVDJKVB599FFlLFAAEiosLMSSX7B27NixQ+oQAEBiaD6BiJKqhIyWJ7ZarVKHADlPo9GgIgEAwNqBf/VARElVQkY9KgAAAAAAABQSFQAAAAAAkB0kKgAAAAAAIDtIVAAAAAAAQHZklKi88sor09PTUkcBuW16evqVV16ROgoAAIBVguYTiCipSsgoURkeHk4mk1JHAbktmUwODw9LHQUAAMAqQfMJRJRUJWSUqAAAAAAAAFBIVAAAAAAAQHaQqAAAAAAAgOwgUQEAAAAAANmRUaLy6KOPFhYWSh0F5LbCwsJHH31U6igAAABWCZpPIKKkKiGjRMVqtWo0GqmjgNym0WisVqvUUQCsLJZlVWnq6upSqZRoH+FGn8+XfhQVDAb5A4PBIL/d6XQmEgn+K5/PJzoLISQSiZSUlLAsu0JXWlJSEolEMu8WiUSam5tXouSVkEql6urqVCrVCt20ZQsGg5lDylA3VuJ0y7bgfyD0hicSCafTueR5g8FgelUnN56dz+dbibCXDc0nEFFSlZBRogIAAFmyWCzhcJi7ga5E2djYyDet+vv7m5qaBgcH+QW73W43v3Ntba3X6+UPd7lchBDahhsYGEgmk3R7TU2NTqeTW3taJJVKNTc3z87OSh1ItsbHx6empmprawOBQHpTWCqRSMTv9y/27W2vG5lPd+tE/4FQDMNotdq+vj6GYVbu1ABwGyFRAQDIeWq1urGx8YMPPhgfHyeERCKR7u7uxx57zGaz9ff3Z1lIW1ub0Whsbm5Wq9V0i8vl8nq9Pp/vFn87B6Gurq4tW7ZUVFQMDg7S5yV/qBsAIAkkKgAACjE5ORmPxwkhQ0NDer3earU6HA463GXJY2luU1NTw7dEqaqqqmAwqNVqbzYY0Rgb4ZgZOq7m9OnTCw4i4sftlJSU/P73vxeWKRy9RkfmJBKJffv2tbe3ezwevhw6Go3utrxROsISREOA0mPgL/bMmTNOpzPzeROJBMuyDofDarXq9fqhoaH0m5Z+WxbbvmCc9FYLh/PxY/YWi5NlWbPZPDo6arfb0yNfsm5keNaiO0ajWvB0wnFlfPCRSKS8vPzMmTP8ZQaDQf6qlzF4TxSq8MYuONaLCIbqqVSqI0eO3NTpAOAWIVEBAFACmqLodLpUKjUwMEBHuZSWlk5MTITD4WwO1+v1ZrNZtH3btm3LyFKW1N7eTt+dTAfkuFwu2vhmWdZut4dCIY7jOjs729ra+EN8Pl8sFqOHxOPxaDR67NgxrVbb29tLR7L19fVptdpIJFJVVdXU1EQHucViscUaoIuhzWi+BCIYU7dgDPyBR44caWlp4TguFAp5PJ4Fh0WFw+GJiYnS0lKtVsswzMDAAB9bJBLZs2dPTU0NP7aK3pbFtmeIM7P0OBmGCYfDFoslFAq53W7R/rdSN4R3LBwO+/3+BU/n8/n8fj8drEV343OVycnJZ5999vz58xzHeb3e6urqAwcO0I8VFRUHDhxYdpdOIpFwuVwMw9AbazAY9u3bJyotlUo1NjYSQuglFBQUtLe3L+90ALAMMkpU+vv7p6enpY4Cctv09HT2A10AFCORSPh8PpvNVlxcPD4+Pjg4WFZWRggpLi622WzZzIWIRqPZnKi9vV2j0QgnKNOfxm82YIvF0tjYSH+hr6+vJ4T09fWlUqlAIOD1eukUApPJ1NTUxF8gy7L8j/q0lR+LxdKvq6ury2az7d+/n9wYESecqLMkPgY6b0dYwpIxNDU1mUwmQojVaq2trV3w/0X9/f30MRFCysrKaMJGvxoaGuIjJ4S4XC6aei24XaPRLBbnkteYTZxCWdaNdKlUKhaLGQwGesdMJtPIyEj6/BDaY9Pa2kqjos89EAjwOUNNTQ3NiGitdrvd/MeJiQmaoi9DX18fuVH9iKAeCvcZHh4eHBwU1tXy8vLlnW7loPkEIkqqEjJKVC5evEh/EwJYtmQyefHiRamjAFhxo6OjZrOZzxZ0Oh3DMKdOnVKr1bSlTpe/U6vVNTU1t3EuRG1tLT+dmqI/jd9sOXxjndxo8Y+NjSWTyWg0ShujlNFo5Pehc6D5sToejye9WH5gFT9IiaZq2Te1aQxbt27lt9AS+vv7l4yBj3YxojFUwjyB9oPxbXreYtszxLnkNS4Z5+2iVqsdDodwVN6C+M5AfouoJ5APWKfTfeMb3xDuuRjRfyCqzy9tR27cWNrxSLfw9VC4WzQaFdZVjUazancve2g+gYiSqoSMEhUAAMhS+qJGdAgNbakL+z3sdvvo6KhoLkQ6OTS/4vH4xMSEcItOpysqKqJ/06kOOp3OaDQmk0mv17tYOdXV1XzzVKPRLGOszmJ3I/sYFjQ0NEQnZghjE04iEiYeQottX52nditncblcoVDo3LlzOp0uwzwQvV6fTfqRvfT/QGjXk4jH4xEmM+nZryhvUavVBoPhNsYJAJkhUQEAUA46BULURPN6vcK5EAvS6XQLzmZZ0dekUHSAEI1Br9cLv4rH45OTk+RGXwSdu0I7jjIU2NHRIVqXdsFGagbpPTBbt269qRjS0Z/whatC0/4o4W0XNYt5i21fMM6biiobt1g3+EkgoVCovb1dOKuHlz6Cq6io6PamLgsSPQ4+4eeJ7idfVwFgdSBRAQBQDuEUCJ5oLsSCTCZTRUVF+myWrq6uBSdSZ4lvSdOhSvx24Wg0fsQXHVcjHLzEHyKaz007jtJPR0sQNuuzfMFfhhLonB+j0ZhlDIsRzh3i8ZOICCEGgyF91g39CT99e4Y46Uf+q1tvW2dZNxZ71jyGYTo6OtKvhSYkwkRlaGiI9lzdStiZpd/Y9NXSCCFGozG9rq5cVAAggkQFAEAh6E/+whkalNlsLi8vX3L2Qn19fTQaFa4cFQwGPR4PP3f5ptCWNN+T09bWdu7cOf7b0dHR5uZm/iuj0Wi1WumMGn69LOE7AemP+vxEZ1paNBoVjcOmc8q7u7v55iZfeJZh8zHQEujbJOmcnyxjWMyCKR+dxUGbwpWVlYODgz09PfQrlmXp8rsLbh8fH18sTtoE50eU9fT03PpCVZnrxmLPWrROcSKRCAQC6fWTJkINDQ10rWH63PkJ9CuHXhTfw9PT0xONRp1Op3Afq9Vqs9mEdVVYjQFgpckoUSkrKyssLJQ6CshthYWFoh8sAdYOOhGltLRUtJ3OEl7yhSp0srjBYODntwQCgXg8vrzXeKvV6qNHj0ajUVra1q1bhTM6ysvLTSYT/SoWi/FvEmQYJhQK0VkcVVVV/IpMJpOptbWVn3xCCOno6KDjhfjUgjbrTSZTZ2en3++newoLF0mfb01nUNDFc2kJGo3GYDDQgV4ZYljybtDuF+HUbR59XkNDQyaT6fz584FAgJbf0NDQ2dlpMpkW275YnISQgwcPGo1GOi1kbGyso6NjyQhptmC32xecRpK5biz2rNVqdXNzcywWEy75QIfhiU7ndrubmpro4zCbza2trTc7Wm8ZtFptMBjk39sTCATSXxlEL4EQQi9tZmamtrZ2pQO7WWg+gYiSqoSK4zipYwAAWEO2b99++PDh6urqDPvs3r17586dJ0+eXLWoVlMwGFywUQgAAIv5/ve/v3Hjxn/6p3/asWOH1LGsHhn1qAAAAAAAQLq8vLzOzs7HHnvskUce6erqmpqakjqi1YBEBQAAAABA1lpaWiorKwkh77777qFDh+6///6nnnrq0qVLUse1spCoAADAquLfuS51IAAAuYTmKhs2bLh69Woymezp6VF8B8t6qQMAAACxq1evXrlyZWRkROpAAABARv7xH//xk08+efXVV69fv379+nVyo4PlX//1X7/97W8rbwaLjBKV/v7+0tJSxSxTAJKYnp4eGhrCwl+gAP39/a+88orUUQCA3HEcR5ehg7Xjs88+Ez70a9euEUI6OzvPnj3b1NT0N3/zN4ppUcsoUbl48eKXv/xlZdxWkEoymbx48SISFch1mzZtqqioUOqqXwBwGx0/ftzlcun1eqkDgdUwNTW1d+/eaDSaSqVUKhXHcRs2bPj000+3bdtWX1/vdDq3bNly/PhxxbSoZZSoAAAAAADAgkRZysaNG9etW/etb33riSeeUNiILx4SFQAAAAAAWaNZSjgcXr9+vUqlEnahSB3aCkKiAgAAAAAgazRLUavVyu5CEUGiAgAAAAAga48//nhdXZ3iu1BEZJSolJWVKWPeD0iosLAQM+kBAGDtQPNpjTh48GCWeyqpSsgoUbn//vulDgFynkajQUUCAIC1A//qgYiSqgTeTA8AAAAAALKDRAUAAAAAAGQHiQoAAAAAAMgOEhUAAAAAAJAdGSUq58+fn56eljoKyG3T09Pnz5+XOgoAAIBVguYTiCipSsgoURkZGUkmk1JHAbktmUyOjIxIHQUAAMAqQfMJRJRUJWSUqAAAAAAAAFBIVAAAAAAAQHaQqAAAAAAAgOwgUQEAAAAAANmRUaKyZ8+ewsJCqaOA3FZYWLhnzx6powAAAFglaD6BiJKqxHqpA/g/JSUlUocAOU+j0aAiAQDA2oF/9UBESVVCRj0qAAAAAAAAFBIVAAAAAACQHSQqAAAKFAwGDx06VFdXp1KpfD4fISQSiZSUlKhUKn4LJdzudDoTiQQ9vK6u7vTp06Lt6YfU1dWlUilCSCKRcDqdZ86ccTqd6Wfx+XyqG4LBoDBOfjvLsqtwZwAAIFcgUQEAUCa/3+9wODiOc7vdkUikqqqqqamJ47hkMhmLxWiCQbe3trZyHMdxHMMwhw8fpolHe3v78PBwMpmk210uF81VWJY1m818UYSQxsZGeggh5MiRIy0tLRzHhUIhj8dDcw+fzxeLxWhR4XDY7/fT7cFg0O/3h8Nhur2hoUGYwwAAwBono0Tl/Pnz09PTUkcBuW16evr8+fNSRwEgC+Xl5U6nk/7d1dVls9n2799PCFGr1Y2NjYODg8PDw/F4nBCi0+nobm63+9SpU2q1mhBisVgaGxvp3/X19YSQvr6+VCoVCAS8Xq/L5RIVRUtoamoymUyEEKvVWltb29/fn0qlYrGYwWCgRZlMppGREYZhEolEIBDg9zeZTE1NTYFAQNh1AwBLQvMJRJRUJWSUqIyMjNAf5wCWLZlMjoyMSB0FgCwYjUaNRkMISSQSLMs6HA6aKhBCiouLbTZbNBo1m816vd5sNqd3ZdhstuLiYvq3VqtlGGZsbCyZTEaj0a1bt/K70aL6+/v5k4rKUavVDofD4/GIxo+Fw+GJiYnS0lJ+S2lpKcdxNHcCgCyh+QQiSqoSMkpUAABg5VRXV/OzQTQaTXt7OyFEq9X29vbW1tby32YzUSQ9G8nM5XKFQqFz587pdDrhtJbR0VGz2cxHZTabJycnl3d1AACgPEhUAADWhI6ODu7z+OFbp06dohNOamtrGxoaIpGI6Fg6fIv/GI1GRTsI+1gWxDAMPWkoFGpvbz927BghxGKx0AkqvJGREToSDAAAAIkKAIDCaTQao9E4NjbGb6ErdIk6T9Rq9dGjR/V6PR18NTg4OD4+Tr+iI77KysrSixofHx8cHMy+j4VhmI6OjlgstnnzZkKIcKAXy7Ki4WEAALCWIVEBAFA4OuW9u7ubn4jS1tZmNBqtVivLsiUlJXwXSl9fHyHEbDYTQkZHR5ubm+kYLX5/tVpdU1Pj8XhoUalUqrm52WazWa3Wxc406c1qAAAgAElEQVSeSqXq6ur4pYrpHHqHw2GxWJqamvgOnEQi4fP5ampqtFrtCt4LAADIHTJKVPbs2VNYWCh1FJDbCgsL9+zZI3UUALJjMpk6Ozv9fj+dDRKLxZqbm9VqNcMwra2t/EQRv9/f0tJCU4Xy8nKTyaTRaIT7E0IYhqFLDNO5LgaDgV8obEFqtbq5uTkWi9FT6HQ6utgxIcTlcjU1NdGz63S6mpoauh0AsofmE4goqUqoOI6TOgYAgDVk+/bthw8frq6uzrDP7t27d+7cefLkyQz7TE1NdXV1PfHEE7c7QEIICQaDgUAgGAyifwMAAKSyXuoAAADg5rz22msdHR29vb2EkK985SsPPfSQ1BEBAADcfkhUAAByA+1CaW1tnZycVKlUhJATJ04gSwEAAKVCogIAIHd8F8qGDRuuX79OCOE47sSJE1VVVSt0RpfLhekiAAAgLSQqAAAyJexC2bBhAyGEZimEkBXNUgAAAORARqt+vfzyy9PT01JHAbltenr65ZdfljoKgFt19erVoaEhs9n805/+dHJykuM4PkUhhJw4caKwsNDpdDqdTrqlpaXF6XQ++eST9OMPfvADp9PZ0tJCP9I9X3zxRULI+++/Tz++9957hJAXX3xxeeW89957KOd2lfPkk0+inPRyfvCDH6Cc999/f8lyKioqHnvssVsv53bFg3JuVzlnz55dXjlKalHf8W//9m9Sx/AXvb2927dvp68AA1ieK1euvPTSSxi1D3LW2tr68MMP33fffRn26ejouPvuu++///533nlnw4YNn332GcdxdF7Kxo0b8/LyHn/88bvuuuu+++6zWCyEEJVKZTAYLBbL3/7t39ISvvSlL91333133303IYTjuPvuu+++++6jS3ht2rSJftRoNISQ5ZWjUqkylEMIQTm0HIvFQtduRjmieqhWqzOXc999962FciwWyy2W88orrzzyyCO7du3KshyLxcL//+dW4kE5si1HSS1qGS1PfPz4cZfLpdfrpQ4EctjExEQwGPzRj34kdSAAi7qp5YlFo7+uX7/OcZxarf7mN7/Z1ta2ajEDgGyh+QQiSqoSMhr6BQAAIlu2bHniiSdGRka6u7sff/xxQkheXt7Vq1d//etf19fXSx0dAADACkKiAgCQAx566KFnn302HA673e6ioqLr16/39vYiVwEAAAVDogIAkDOEHSx79+7t7e29fPmy1EEBAACsCBklKl//+tcLCwuljgJyW2Fh4de//nWpowBYcbSD5eOPP77nnnukjgUApITmE4goqUrI6D0q/FoWAMum0WhQkQAAYO3Av3ogoqQqIaMeFQAAAAAAAAqJCgAAAAAAyA4SFQAAAAAAkB0kKgAAAAAAIDsySlRefvnl6elpqaOA3DY9Pf3yyy9LHQUAAMAqQfMJRJRUJWSUqIyOjiaTSamjgNyWTCZHR0eljgIAAGCVoPkEIkqqEjJKVAAAAAAAACgkKgAAAAAAIDtIVAAAAAAAQHZk9GZ6AIBsXLx4UeoQbsn169evXLny0UcfZdjn2rVr8Xg8168UAFbBRx99dOnSpY8//ljqQEAu5Fkl7r///mUcpeI47raHsjyjo6Pbtm1Tq9VSBwI5LJVKvfvuuxaLRepAYAXpdLpEIiF1FAAAAJCVoqKiiYmJZRwoo0QFACAbmzZtunbt2p133rlundIGr6ZSqVQqtWvXrvfff39+fj4/P1/qiAAAAG7J5OQkEhUAWCtoonLhwoWdO3dKHctt9vTTTz/99NO/+tWvjh07tnPnzpMnT0odEQAAwPJdvHjRarUuO1FR2u+RAAAAAACgAEhUAAAAAABAdpCoAAAAAACA7MgoUXnppZemp6eljgJy2/T09EsvvSR1FJCT/H7/XXfd5ff7+S3vv//+kSNHrl69KmFUAACZofkEIkqqEjJKVH77298mk0mpo4Dclkwmf/vb30odBSjBG2+8sWvXrpmZGakDyVYwGFSpVCqVqq6uLpVKrc7pWJZd6RPdRizLlpSURCKRVT5vIpFwOp306fh8vsw7C4MUHphbtxpWE5pPIKKkKiGjRAUAAG5RKBQ6deoUXkiVLpVK/X/27j+4jfLOH/gjIMRS4WyQaASa+Cs8UCklqY3rMi5rk5wzQUoLuSQu8fVk9zq9dmTiThNDnGsnI+VGOqZ3VYqTow4RcHeApJuzqR0SfsSGwy1YCy7nMzY4IAXOVcOIOpwUKmi1JAb0/eNz2VtWtqI4tnclv19/SavVs59dLeT5+Pk8zwYCgdra2vLy8gv6YjQa7ezsvJhDHzx4cGpqKhKJhMNht9sdCoVy7Gy1Wo1GY09PD2NMr9f39/cHg8GLOToAQOFCogIAS8tvfvObq8+57bbb3nnnnex9nnjiiY0bNzLGHn300euuu+6JJ55Y9DBhnp08eXJ4eLi+vv6CsrhoNNrU1PTHP/7xYg7tcrnGxsYsFovBYKisrJycnMyxs16v5ziO53k81RQAAIkKABQkjUYzh2/95je/oQyETExM/PjHPz59+vT8xXVR3n///Xlph0qGWltbd+/eTYVDDz30UGtrq6yISBAEcaNYbkQb7XZ7Z2enWK3k9XrptWw04Pjx41VVVbJ6M6/XK7aWo0IsGo3Sd6U70EYKwG63J5NJaoECoLopaUGU9LjZ35UebmRkhDFWU1MjDZKuD51UdjzJZHLHjh3j4+Nut5salB3C7/eLO4vXLUeCkUgkxsfHGxoaxLOgCyU2S+dSUVExMDAQiUQu4CcHAChGSFQAYAl56aWXGGPHjh07ffr0q6++unr16vfffz87UbnrrruOHTvGGPvud7/73nvv3XXXXYsQ2/333/+v//qvX/ziFysrK+elweHh4b/5m79JJBI2m83pdLa0tNBrr9dLnel9+/bFYrFEIpFIJIxGY2dnp9jpHxgYuOWWW9LptNPpdLvdFRUV9Nrn80nneJw6dWpsbCwcDvv9/r6+vvxjo5GKxsbGTCYTDAbb2tqkzcZisVAo1N/fr9frxY2ZTMblciWTSYfDYTab0+k0FWFv2bJFmhvM+F3G2OTkpNFoNBgM4pbx8fHKyspMJuNwOGaMR6/XHzhwoLKy0uPxSBsUD/Gtb33LZrMNDg6ycyM2HMfJjisKhUJ1dXXhcJjjOMaYXq93uVzj4+P//M//TKVl7e3tNNpjNpvpKPlfTwCAoqSiRGXDhg2lpaVKRwGFrbS0dMOGDUpHAYshk8nM4VsdHR2nT5+urKy85557brnllomJiXkPbG5+8Ytf/P3f//2KFSteeeWVlStXzkub1C/X6XRms9lms1mtVnot7uByuQ4fPrxnzx6DwTAwMCD9bmVlpcFg0Gq1JpOpsrKypqaGXssOQYMDVqvVZrMNDQ3lP4l/ZGREHFugUQ4a8SDZ3X3akzEWiUQGBgZaWlq0Wq1Wq21paZENPsyYKgiCEI/HZRvpvPKJR0Y8hLRMS9rCjBwORyKR8Hq94sgJx3Eej8fn8/n9/o6ODovFQnvmUyEGIEL3CWSK6ZZQUaLyla98BRNA4SJptdqvfOUrSkcB6vXEE09cffXV11133aOPPqp0LP/nF7/4hdvtXrFixcsvv1xRUTFfzZrNZp1Ol2MHr9er0+lMJhONtEg/kg0+5Eb5TywWu9B1Zurq6jQajdVqHR8fz7NfPuM4w3wNPswhnoaGhoGBgdHR0aGhIcoGc+xMic3w8PDJkydpy7Zt2yorK6UpE8CFQvcJZIrpllBRogIAsKBOnz7d3d3NGPvJT34iln4pHdRCZSnnlUwmeZ53Op27du26yKbS6XQsFjtvXpQtHA5nznG5XPl8RToilHvjHMwhHhpN2rdvX+66LykxCRQEobOzc3x8fHx8XFp3BwAABIkKACwVp0+ffv/991evXr1lyxbG2GuvvXbe0q+TJ08u6Gr0SmUpIhoG6e/vl5V+5SkQCAiCQOVY4oJaFRUV4+PjiURCEIShoaEZv1hTU1NZWUmzOy7okSyUGNBxacXh845jMMZmrFvLJx6DwWA0GnN8kQZJnnvuudnqvqST7KPRaG9vr5jP9PX1+f3+YDDo8Xikk3xozr0i9wMAgKogUQGApeLqq6/+4he/ODExccstt1x99dVOp/O8XxkcHLzhhhukj6ufR8pmKTSZe2BgwGAwBAIBp9M5h9otk8mk0+nq6uo8Ho/D4aCNdrvdZrPV1dVt2bJFnHchY7FYuru7e3t7NRpNc3NzMBikKeb5hB0KhWKxmE6nowGcw4cP5zOOUVFRMTU1lUgkLigeykPcbneOJ0VSfjJbvqTVau+77z7GmMFgsFqtjY2NNFYTjUZ9Pp/T6dy6dev27dttNpu4UAFVss3XMBEAQOHSzG1CKgCAUkpKSs6cOfPiiy+uWbPmQr/7zjvvfO9735uYmFi9evW//Mu/HD58+Kc//anf77/rrrt8Pt9Pf/rTn/zkJx0dHbQzbWGMSTfOF8pSTCbTSy+9lJ2lrFu3bs2aNQ888ED+DYZCoebmZnFRKZChdb06OjrEhGq+8DxPqVqe1WLn5fV6eZ4PhUKUgOGXBYDC9dprr1VXV69YsWJqamoOX1fRiMrzzz//4YcfKh0FFLYPP/zw+eefVzoKUK8bbrjhpZdeOn369EsvvXTDDTfQImC0+jC9liYktEW2cV6IWQrP86jwWRzl5eW1tbULsZQWFYzlWO/rgtDcoTynuwAwdJ8gSzHdEipKVF5//fUFrQWHpSCdTr/++utKRwGQizRL+X//7//Nb+N1dXXSZyCCiNYy7u3tna2Caw7ooY1ut9vj8czXcEckEpmamtq2bZvYfnNz87y0DMUK3SeQKaZb4jKlAwAAWEIoS7nqqqvmPUtxOBzzXtRUZDiOGxsbm8cG9Xp9f3//PDbIPh/kQrQPAFBAVDSiAgBQ3ChLueyyy9xu97yPpQAAABQZjKgAQEFau3at0iHMhclkKikpyf9ZigAAAEsWEhUAKDCXXXbZmTNnvvrVr15xxRVKx3Jhli1b9vDDD2/cuFHpQAAAAAqAihKVDRs2lJaWKh0FFLbS0tINGzYoHQUsrCuuuOJPf/rTww8/fPPNNysdCwCAwtB9ApliuiVUlKh85StfUToEKHharRY3EgAALB34Vw9kiumWwGR6AAAAAABQHSQqAAAAAACgOkhUAAAAAABAdZCoAAAAAACA6qgoUXnuuec+/PBDpaOAwvbhhx8+99xzSkcBAACwSNB9ApliuiVUlKi88cYb6XRa6SigsKXT6TfeeEPpKAAAABYJuk8gU0y3hIoSFQAAyAfP85osra2tgiBId4tGo1VVVeIOoVAodzterzdH+7Md5eJRnDzP594tmUx6vd4LOnqeLS8EQRBaW1s1Go0iR88hFArlDsnr9c7Xzz2HnyxP4uWd8f4MhULnjZznebvdnkwmsz/yer0LcZ8DwBwgUQEAKDyVlZWRSCRzDv3xrL29XexdhUIhq9Xa1dVFOyQSiUAgIO1+hUKhtrY2sZF0Oh2Px2kHjuPEloPBoM1mSyQS9PbQoUNarVaRUz548GA8Hlfk0HNw8uTJVCrldDoDgYB6urzRaNTn8+X4tKqqijEm/vomk+nrX/96NBqd2+EW+ifzeDyZz6P70+FwKHijAsA8QqICAFDwtFpte3v7b3/725MnTzLGeJ73+XyRSITjONpBr9cfPnyYMbZv3z7GmCAIQ0NDHR0dFotF2sLw8PDo6KhCJ1FUenp6SktLGxsbh4eH6UdROUEQOjs7GxsbXS6XuHHXrl21tbWdnZ3qybUAYElBogIAUCROnTqVSCQEQQgEAo2NjWISQrRabUtLS29vbzQaTafTsVhM9nWLxTI2NibmNvmgChxpUZlYNhONRm0225EjR8TyM2nFkbQs7cUXX5S2KS08q6qqikajdBS32+33+8U/8CeTSbvdfjEVStIYZC3MWP5ERzxy5Ih4XLFYTiaZTPI8X19fX11dbTQaR0ZGZJ+KLUirj2aLZ8btOa78bHHyPG+1WsfHx+vq6rIjHx0dHR4e3rZtm3SjVqttbW3t7OzUarWyWilpWZ2sEIvn+fP+ZNKmvOdIPxLfznaRc5CVfolN0e0041fEfVpbWz/66KMLPSIALBAVJSq33357aWmp0lFAYSstLb399tuVjgJAAYlEgjFmMBgoCWloaMjex2q1Go3GRCKh1+s5jmtubl7QWvxTp07t3bu3u7s7k8mEw+G6ujrq10aj0aampo6ODqpJ6+vrGx8fp6/wPC8tSGtsbNyxY0c6nT506JDH43E6na+88orFYkkmkw6HQyxRM5lMW7ZsmXG+wWyo104xyArnvF5vPB5Pp9MUXiwWo2Eosnfv3gMHDtAZud3uGed7RCKRqampmpoaus5DQ0PSrGP9+vUtLS0UeUtLi8PhoMRGWqpnMpkonhxx5pYdJ8dxkUiksrIyHA5Lh01ILBarra0tLy+Xba+qqspdQyUIQnt7u8lkosjD4XBbW9vJkydlPxmduPiTcRxHJ06NuN3uioqKTCZDl85gMIhve3t7s6dX5c/r9fI8T7WLXV1dVqs1+yeT7lNfX5+jOk6d0H0CmWK6JVSUqKxZswYVpXCRtFrtmjVrlI4CYLHRX6Cpo5lIJKampnLsTGMpLpfL4/H4/X6dTpc94jFfxOoyjuM8Hg9N2Ojp6amtrd26dStjTK/XSzvNg4OD0rGghoaGqakpysGk+vv7GWPbt2+nt/SCNuaDBp08Ho/D4WCfL3ujnKGlpYX+PaJMIx6Pi7mBeEbV1dVOp3NwcDC7/cHBQbHT39DQ4Pf7xYK6kZER8dwZYw6Ho7+/X6/XDw4OejwecTjL5XIdOnSIMTZbnOc9x3zilJqcnDxvmzOixLiiooLechw3NjYmG81jjNGPvmvXLnor+8lsNpvdbmeMlZeX19bWOp1OukT0ds6xRaPR3t5el8ul1+vZ52/C2fbZunWr0+mc2+GUgu4TyBTTLaGiRAUAAPI0Pj5utVrFYhuDwcBx3IVOIHa5XDRoYLPZGGN1dXWzrYM0NytWrKipqRHfNjQ0xGKx06dPx+Px+vp6MVSDwVBZWSmGRHkLleLU1dVlN0sTbDiOo54lO5dO5N+dlfWt2bkO8eDgoF6v7+/v5zhOrFNyu93S75rN5tyNU8dXTHWkeQJFbjKZZD8TZUfSeM4b53nP8bxxzpd8RucEQYjH49ITl401mc1mnU7HGNNqtSaTKfsSzcjtdkuX/Mq+e0dGRoxGo9VqFbfQTShduTWRSEj3oQAu7BIAwIJBogIAUHhkq35lMhlxXMJgMBiNxhzflXVhqWtORTsDAwP5j0vMTfb0GGnA4gSV3t7eSCQSDodna0fWSZWlE/mYrStPOZLBYDCbzel02uPxXFCzIyMjNA+EAtPpdH6/n+d5sQ+dnZDkjmdxUo7ZosqHy+UKBoPi6Nxss0ou5hAzkq36RWNTsn0GBgYMBoN4n2SnvtmTteY9TgCYMyQqAABFRafTmc3mGf/oLk4AmPGL9Lf/OZfZnBf1CCk86XaxVk2syMpkMjOWD0llL02bPe8in3ikKioqaDwkHA7PbS1mGjORxUaXPRKJ0D6zXeHseHLEeUFR5cNsNs+4QBnP8znmoIscDoe4nrXb7Z5xVkn2iec5cnIxpItrz5jPZOeBC/efAABcKCQqAABFRbq6l3S7dDWwHL3POXSCxY4dVfiI20+dOiVd8GpycpLjOCrskc4vTyQSNJk+exmAGdMtKs6RzhvJXgIrN0qWpP3RkydPDg8Pm81mWSEQFWXl2azYjmwlA6rXCgQCjDFZ5LPFc9446e1sV34Oqqura2tre3p6pBvpnhHn20jnC4m/mozD4fB4PLJzyf7JZqt2m19ms1k2xyn7WZAGg0GaRl78lQSAeaSiROW5555LpVJKRwGFLZVKPffcc0pHAaAwjuM6OjqkCxwlk8ktW7Ywxmg2M/VKd+zYIa3pHx0djcViNKc5T9QBFeua+vr6/H6/dAefz0fpEM/zvb29tPrttm3bhoeH+/r62LllAGhn6peLc515nne73ePj49mT6bdv3y5djKuvr++CIqdcTvzDPz1CpLa2trq6mrqtYv3bwYMHBwYGZLMacujp6ZFNiqDD1dfX03iF9NzZufGKkydPUjzi7xUKhex2ezqdni3O8175C0Uz9Xt7e6WFW/v27RseHm5vb9dqtTQQR5mn9FejyTxilkhDUtmLztGJiz/ZwYMHGWMXdLPNAcdxtHAcXSV63qU4fYhYLJbGxkav1ztfV3LxofsEMsV0S6goUXnjjTfwSCm4SIIgvPHGG0pHAaA8h8MRiUTa2trE2fYtLS1iLZNWqz106FBLS4u0fH9wcHDGKv/cdu3aZTabqZ3JyclgMCj9dPv27U1NTRqNpq2trbu7m6q5LBZLd3e3z+ejwLZu3UqT6bVa7X333ReLxcSpDuFwuLKykmqfqKer0+l4ntfr9aFQSJzQEggEQqHQbJGL00WkU65prV6KQafTmUwmujgWi6Wrq6u5uZl2ZowFg8EZVx7LRqME0ln+IlpUYGRkxGKxvPDCC4FAgNoXLwvFI/5e4hnNFud5r/yMqFNeV1c348R3i8XyyiuvxONx8VrF43FaXJg+Fa/M+vXrXS4XrcFAv4V4RrSYMi1fJv3J6MTFnywejx8+fPhCb7Y5cLlcHMfRVaIFoLOfFCTdhx6EutBRzS90n0CmmG4JTSaTUTqG//Xzn//c4XDkngMKkNvU1FQoFLr33nuVDgQWkNFoPHXq1Ojo6M0336x0LHOxatWqPXv2NDc359hn3bp1a9aseeCBBxYtqnlHD0uZsV8IAPMI3acl4uGHHy4tLbXZbOd9RoqqbonXXnuturp6xYoVudfNn81l8x4QAAAAAADMo3/7t3+LRCJarXbTpk3f//73V69erXREi0FFpV8AAAAAAJDtySeftFqtgiD88pe/3LBhw9q1a3t6eopmLspskKgAAMD8s1gsY2NjqPsCAJgXpaWllKssW7Ysk8mcOHFi9+7dN998886dOycmJpSObqGoKFG5/fbbz1t1B5BbaWnp7bffrnQUAAAAiwTdp6WDchWz2azVajOZzJkzZ9LpdF9fn2yApZhuCRXNUVmzZo3SIUDB02q1uJGgCHz88cd9fX1Hjx5VOhAAAFCds2fP0rKEGo1menqaMXbixIkdO3ZcccUVTqeTlqEvDipKVAAAQHTbbbfdc889SkcBAADqsn///hdffPGTTz7RaDSZTEaj0Sxbtmx6enrz5s0tLS233nqr0gHOJyQqAACqU1JSYjAYvva1rykdCAAAqMiOHTuGhoYoS6H8ZMWKFW1tbdu2bSuaci8pJCoAAAAAAGq3Y8eOnp4extjll18+PT39zW9+s/iGUGSQqAAAAAAAqJqYpRT3EIqMilb9GhgYKPrVoGGhpVKpgYEBpaMAAABYJOg+LRHJZHLz5s29vb1jY2M/+MEPcmQpxXRLqChRmZiYEARB6SigsAmCUMSriQMAAMig+7REBIPBBx98MJ9Cr2K6JVSUqAAAAAAAABAkKgAAAAAAoDpIVAAAAAAAQHWQqAAAAAAAgOqoKFGx2WxLYZ01WFClpaU2m03pKAAAABYJuk8gU0y3hIqeo7J69WqlQ4CCp9VqcSMBAMDSgX/1QKaYbgkVjagAAAAAAAAQJCoAAAAAAKA6SFQAAAAAAEB1kKgAAAAAAIDqqChRGRgYSKVSSkcBhS2VSg0MDCgdBQAAwCJB9wlkiumWUFGiMjExIQiC0lFAYRMEYWJiQukoAAAAFgm6TyBTTLeEihIVAAAAAAAAgkQFAAAAAABUB4kKAAAAAACoDhIVAIAiFAqFdu/e3draqtFovF4vYywajVZVVWk0GnELkW632+3JZJK+3tra+tBDD8m2Z3+ltbWViqGTyaTdbj9y5Ijdbs8+itfr1ZwTCoWkcYrbeZ5fhCsDAACFQkWJis1mKy0tVToKKGylpaU2m03pKABUwefz1dfXZzIZl8sVjUabmpo6OjoymUw6nY7H45Rg0Paurq5MJpPJZDiO27NnDyUefr9/dHQ0nU7TdofDQbkKz/NWq1VsijHW3t4uTtzcu3fvgQMHMplMOBx2u92Ue3i93ng8Tk1FIhGfz0fbQ6GQz+eLRCK0va2tTZrDAEA+0H0CmWK6JVSUqKxevVqr1SodBRQ2rVa7evVqpaMAUAWbzWa32+l1T09PbW3t1q1bGWNarba9vX14eHh0dDSRSDDGDAYD7eZyuQ4dOkT/K66srGxvb6fX27dvZ4z19/cLghAIBDwej8PhkDVFLXR0dFgsFsZYdXW10+kcHBwUBCEej5tMJmrKYrGMjY1xHJdMJgOBgLi/xWLp6OgIBALSoRsAOC90n0CmmG4JFSUqAAAwj8xms06nY4wlk0me5+vr68V/usrLy2tra2OxmNVqNRqNVqs1eyijtra2vLycXuv1eo7jJicn0+l0LBarqKgQd6OmBgcHxYPK2tFqtfX19W63W1Y/FolEpqamampqxC01NTWZTIZyJwAAACQqAABLQnNzszgbRKfT+f1+xpherz98+LDT6RQ/zWeiSHY2kpvD4QiHwwMDAwaDQTqtZXx83Gq1ilFZrdZTp07N7ewAAKD4IFEBAFgSgsFg5vPE8q1Dhw7RhBOn09nW1haNRmXfpfIt8W0sFpPtIB1jmRHHcXTQcDjs9/v37dvHGKusrKQJKqKxsTGqBAMAAECiAgBQ5HQ6ndlsnpycFLfQCl2ywROtVnvfffcZjUYqvhoeHj558iR9RBVfDQ0N2U2dPHlyeHg4/zEWjuOCwWA8Hr/iiisYY9JCL57nZeVhAACwlKkoUenv70+lUkpHAYUtlUr19/crHQWAutCU997eXnEiysGDB81mc3V1Nc/zVVVV4hAK/edjtVoZY+Pj452dnVSjJe6v1WpbWlrcbjc1JQhCZ2dnbWiNVVkAACAASURBVG1tdXX1bEcXBKG1tVVcqpjm0NfX11dWVnZ0dIgDOMlk0uv1trS06PX6BbwWAEUH3SeQKaZbQkWJyvHjx8UFLgHmRhCE48ePKx0FgOpYLJbu7m6fz0ezQeLxeGdnp1ar5Tiuq6tLnCji8/kOHDhAqYLNZrNYLDqdTro/Y4zjOFpimOa6mEwmcaGwGWm12s7Ozng8TocwGAy02DFjzOFwdHR00NENBkNLSwttB4D8ofsEMsV0S1ymdAAAADBHExMTs63H7XA4ZJ1+Whc4e0+aPTJjI9/5znfa29uzt8/YlF6vl45n0tQX6Wvxbe44AQAAiIpGVAAAIB+pVKqnp2ft2rUbNmx4+eWXlQ4HAABgQWBEBQCgYExMTDzyyCNHjx6lYf1t27bdeuutSgcFAACwIJCoAACoXSqVGhgY6OrqOnHixLJly6anp5ctW7Zly5YDBw4s0BFRkQUAAIpTUaJit9tLS0uVjgIKW2lpqd1uVzoKgHkjDqF89tlnZ86cYYydPXv28ssvX9AsBQAKCLpPIFNMt4SKEpWbbrpJ6RCg4Gm1WtxIUAQ+/fTT3/3ud2vXrqUhlLNnz2o0GsZYJpOhLIXWCGaMeTwextjRo0dHRkauu+661tZWxtihQ4fee++9mpqaTZs2McZoz02bNtXU1Lz33ns0qb21tfW6664bGRk5evQo2kE7aKdw2xkaGuru7lZPPIvfzn/+538+9dRTamjn7rvvvvbaaxVvp5g6QipKVAAAgHz22Wd/+tOfPvjgAyr0kn2q0WjOnDnzwQcfiFvS6fQHH3xAj1BkjH344YcffPBBOp2mt7QnDch8+umn9PaTTz6hjSpp59NPP0U7aKfQ2/nkk08KqB36n0wRtHP27FmVtEP/P1S8nWKimW1VSgAAdTIajadOnRodHb355puVjmUuVq1atWfPnubm5hz7rFu3bs2aNQ888MCxY8dCodALL7xAGQv9H3v58uVbtmzZv3//YoUMAAAwF6+99lp1dfWKFSumpqbm8HUsTwwAoF4bN24MBoOvvvrqj370o2uuuebyyy/XaDRnz549fPjwzp07lY4OAABgASFRAQBQu5UrV+7atev111/3+/3r169njE1PT3d3dyNXAQCAIqaiRKW/vz+VSikdBRS2VColfTY2QJERB1juueeea665pru7Gw98BFji0H0CmWK6JVSUqBw/fpweYQYwZ4IgHD9+XOkoABaWOMDS29uLBz4CLHHoPoFMMd0SKkpUAADggiBLAQCAIoZEBQAAAAAAVAfPUQGAgvT8888///zzSkcxFx999NHx48f/4z/+I8c+p0+fHhsb+9nPfrZoUQFAgeJ5PpVKiY/XACimW0JFz1H5+c9/7nA4jEaj0oFAAZuamgqFQvfee6/SgcACoueoKB0FAAAA5GXOz1FR0YiKzWYrLS1VOgoobKWlpTabTekoYGFdf/31119/vdJRzF0kEqmrq7vpppty7BMKhT777LPy8vJFiwoACpQgCMuXL7/kEhTzw/8qpltCRSMqAABLwQU9mX7RogIAAFCbYki2AAAAAACgyCBRAQAAAAAA1UGiAgAAAAAAqoNEBQAAAAAAVEdFiUp/f38qlVI6CihsqVSqv79f6SgAAAAWCbpPIFNMt4SKEpXjx48LgqB0FFDYBEE4fvy40lEAAAAsEnSfQKaYbgkVJSoAAAAAAAAEiQoAAAAAAKgOEhUAAAAAAFAdJCoAAAAAAKA6KkpUbDZbaWmp0lFAYSstLbXZbEpHAQAAsEjQfQKZYrolLlM6gP+zevVqpUOAgqfVanEjAQDA0oF/9UCmmG4JFY2oAAAAAAAAECQqAAAAAACgOkhUAAAAAABAdZCoAAAsOYIgtLa2er3e8+7Z2dkZjUYXIaQZD0RxhkKhRQhg4SSTSa/Xe0EPio5Go52dnfO1Wz5CoVBra+uCPs06mUza7Xae5+e32VAoZLfbk8nk/DbL8r4moVCITqo4blcAVVFRonLs2LFUKqV0FFDYUqnUsWPHlI4CoEjwPP/YY48peCCtVnvo0CGHw7EIMSycgwcPxuPx/PcXBKGzs/OPf/zjvOyWJ4fDcejQIa1WOy+tFYd8rkk0GvX5fPRaqdsV3SeQKaZbQkWJyptvvrmgf8uBpUAQhDfffFPpKAAAABYJuk8gU0y3hIoSFQAAyIesIoXn+aqqqmg0SqU1R44csdvtGo1Go9FIq1CoLoW27927V9pgNBqtqqrSnEN1LKFQqK6ubnx83Gq1UjvUPu2TuyTG6/XKWhPDfuihh2i7WK6TfSBZzNKjS89uxtK1ZDL57W9/m45Cl4UOkR2P7JqEQiGv10tt8jwvrSai6yN+UXq5pDFIt9PXqX232+33+7/+9a9n17bxPC8GRpc0mUxu2bLF7/e73W4xBun1nG232e6KGQPLvm7i1/O8zuK3xMCkv50YcGtr6+7duy+oqGzGaGVlY9m1i48//nj2CUp/X9lPLz0KhUc7P/TQQ7Sd53nxmkSjUZvNduTIEfEr1BTP81ardXx8vK6ujqr7pKVf0v9epFHJ/kMQfyYAyIZEBQCgqGzevNnlcmUymUgk4vP5qNskCEJ7eztjLJ1OZzKZK6+80u/30/7RaLSpqamrqyuTyWQymWAw2NbWFo1GHQ5HOByurKyMRCIOhyOZTDocDo7jaDeTybRly5bsLi/11XieTyQSmUwmHA7X1dWJHUS/3z86OkoxcBwnNis9UO6z27t374EDB6hlt9s944SHDz74oK+vL5FIjI2NWSyWUCjk8/kikQhdk7a2tuxrkk6nh4aG3G73eS8vXa6Ojo5MJpNOp+PxuNiXlV5GjuP27NnDGDt06JDH43E6na+88orFYpE2xfN8W1sbBZZOpxlj+/bt0+v1hw8fdjqdHo+nv79fr9d7vd54PE4XLZFIxGKxGXfLHbAssPOmDflcZ6/XGwgE6IdOJBKBQIAurDRgk8kkVkblY27RDgwMRKNR2X1Fv6/JZKKmwuEw3djsXIIhHsVkMrW3t9NRDh482N3dTe1ID3Hq1Km9e/fSR+JdzXFcJBKprKwMh8Mul0t2IuvXrxf/exGjok/9fv+pU6fod6+tre3s7Cyav38DzC8kKgAARcXj8VAfy2KxdHR0BAKBZDI5Ojo6PDzc3t5OBffbt2+32Wy0/8jISG1tbXV1Nb2tqalhjCUSCVmz/f399EV6Sy9ooxQd6MCBA9R15jjO4/EEAgHqh1VWVkpjmLGF3Do6Oqi7X11d7XQ6BwcHZ9ytpaWFAkgmk4FAQPzWbNdEq9Xed9994jXJoaenp7a2duvWrYwxrVbb3t4+PDw8OjpKV8xgMNBuLpfrvNMbYrGY0Wikr9D0Bllnl+Lneb6lpYWa0uv1HMfF4/H8+7VzCIzlcZ0pMJfLRddZr9f39/c7HI5oNBoOh2e80xYu2hnvq3Q6HYvFKioqaB+O4yhxZYwNDg6K/5nIjtLY2CjLJ7OvieyunhHdJ7t27aK3srvdZrPRFq1W29LSMjw8fPLkyfNeHIAlCIkKAEBRaWhoEF/X1NSIf4avra0tLy+n7Tqdzmw202txxjCV8VApi6xNQRCGhoY4jhP/ck895snJSdme0s63GI/YD5PGMFsLuYlh57lbJBKZmpqi7Ivkc01mQ73z+vp6setcXl5eW1sbi8WsVqvRaMyuXsuhpqZmamrKYDDkWAiLEgCO48Q6onyGfaTmEBjL4zrThZX+0GRkZESj0Yjb6Vde6GhnvK/oRXNzs6zwjH5EMYGRmW37ihUrpHdRQ0NDLBajcbBsgiDE43GTySTeJxTM0NAQRWI2m3U6Xf4nCLBkqShRsdvtZWVlSkcBha2srMxutysdBYDqyPIBrVZrMpnotVis39zcHA6HqZRlxkbcbrdGYrYes9o6YTT7RQzbarWeOnWK5bwmuTU3N4ut6XQ6KqITa7HET8+7Dq/FYnnhhRdsNltdXV2OuQo038NgMJjN5nQ67fF48j1zxuYWWJ5kGem8mN9oXS5XMBj0+/06nU422SbPjPdizJbzzDt0n0CmmG4JFSUqN910U0lJidJRQGErKSm56aablI4CQC0SiQR1ymV9JvqLL72mGhWxvj9Hax6PJ/N52aVKjLHsvzTP2KOVxrCgaPaLNGwqAcpxTXILBoOy60BTa6h8iyYeOJ1OcUZEDjRgQiM8RqNxx44dsmk/0Wi0t7c3HA5nMpk5Lx88h8DyMTU1lV0iePEuMlrZ7+hwOMTJV263WxyoicViFxNkPl/PHi2UjrHMI3SfQKaYbgkVJSoAAJAnaTIg6zNJpxOI1U1ms1laB0/l++xcr05ayzQyMpJd+kWjDdKpEbM9285sNsv6r4ODg+IYS3YM0kK1hUAJkjQecUWv2a4JkZ5FIpGga0LlYdIO6IwPMaQZL0ajMf9+vF6vp8nrsq9QAmO1WsXD5RhhyHFXzDmw2WRfWCJW1uUTcG7Z0YonJfuxpCcum5oicjgcHo9ncnIy+0fMx6lTp0ZGRsS3k5OT0krI7Mhl/73krjcDgNkgUQEAKDBms3lgYCASibDPP2+OiGs00Uc0D7u6ulq6uNDBgwcHBgbYuR4VTS6Xtpbdzd2+fTutN0Vv+/r6YrFYdqUlHUgcGeB53u12i3PBx8fHpTGYzWZxEv8Codnz4l/l6SHxNNWe47jGxsbsa8LO9cKpY0pfoe00e763t1fM0MSzkC4HzM5NmxYTjBnJHqne09Nz/fXXi3MtxEimpqbESdgU5IyzI2a7K+YQWD4sFktjY6PX66X4xfWCLRZLXV2d7KrmP5IwW7SUXYhzPKQ/FmNsYGBAXBzs4MGDjDG6sHa7XfylaGyqoaGB5q9LlzKjH+L06dO5Y/P5fOKiYb29vdu2bcux87Zt24aHh8X/XsSo8rkIACBCogIAUGA4jgsGgzSxYceOHV1dXStWrBA/vf/++2lWAy3AStVcWq22s7OTMUbF+h999JHT6aT9d+3aZTabDQaDRqOhlWFtNhv9vZmyDqvV6vV69Xp9KBQSn/tBa9Fm/0WZ6nY4jqMGafldsaLMZrNZLBaKIR6Pd3Z2Uv9VeqB5v1wOh6Ojo4OmqRgMhpaWFnERZJfLZTKZsq+JxWLp6uqiaRLr1693uVzi0lUWi6W7u9vn89F1EM+C47iuri5xMozP5xOXPqM+q06nk40tOByOlpYWulA0GeO+++6jJcioJ11VVcUYEyPRaDSMsWAwSKM90t2i0ehsd0WOwC6Sy+US49fpdCaTiUoBpVeVMXZBk2pmi5ZGV2KxGDVbUVEhbdbpdFZXV4v31eHDh/V6Pd2xgUBAnJvU0dFBtyItK9zW1ia9ma+++urcsW3fvr2pqYnu6u7ubnEducbGxrq6OtmUfZqAJP73IkZ1IRcYAJgmk8koHQMAwBKyatWqPXv2NDc359hn3bp1a9aseeCBBy6oZXomibQjrirUa5wxvVED8bEbM068gbmhq1pfX6/OezJP4tNdLmgFs4t37NixW2+9tbS0dDEPCqAqKhpR6e/vT6VSSkcBhS2VSl3oYxkAAGC+0BiCOHZED6uRLuwLeZqYmPje9753880379y5c2JiIsee6D6BTDHdEipKVI4fP44ns8JFEgTh+PHjSkcBALBESSvQZFVShGazaGZxQY9PKW6rV6/ev3+/IAg9PT0bNmxYu3ZtT0/PjL1PdJ9ApphuicuUDgAAAOYHrXWrdBSzcjgcaq7/odk1SkdRDHL/0HSdC+tSWyyWsbGxxT9uU1MTY2znzp2MsRMnTuzevfvHP/7xpk2bvv/9769evXrx4wFYfCoaUQEAAAAAUVNT0/79++n1mTNn0ul0X19f7gEWgGKCERUAANX5+OOPX3zxxa1btyodCAAo74YbbnjnnXcYYxqNZnp6mjF24sSJe++9lwZY/uzP/kzpAAEWChIVAAA1uu6668QlcQFgKevt7V22bBmlKJlMRqPR0Nu1a9fabLY333xT6QABFoqKEhW73V5WVqZ0FFDYysrK8EQtKAIlJSU33nij+FgPAFiy7r777rfffvvs2bOMMY1Gc/nll5eVlX3nO99pampauXIlY6y8vBzdJ5Aqph61ihKVm266SekQoOCVlJTgRgIAgOJw9913P/PMM9PT05dffvn09PT69esdDsfGjRul++BfPZAppltCRYkKAAAAAJC77777ySefZIxdc8010iEUgKUDiQoAAACAukxMTDz55JMzDqEALB1IVAAAAADUZfXq1ZFIpLS0VOlAAJSE56gAAAAAqA6yFAAVJSrHjh3Do4vgIqVSqWPHjikdBQAAwCJB9wlkiumWUFGi8uabbwqCoHQUUNgEQcCK8gAAsHSg+wQyxXRLqChRAQAAAAAAIEhUAAAAAABAdZCoAAAAAACA6iBRAQAAAAAA1VFRorJx48aysjKlo4DCVlZWhgdjAQDA0oHuE8gU0y2hogc+fvnLX1Y6BCh4JSUluJEAAGDpwL96IFNMt4SKRlQAAAAAAAAIEhUAAAAAAFAdJCoAAAAAAKA6SFQAAOACJJNJu93O8zy97ezsjEajyoYEAABFSUWJyrFjx1KplNJRQGFLpVLHjh1TOgqApYLn+ccee0zpKACWNHSfQKaYbgkVJSpvvvmmIAhKRwGFTRCEN998U+koAAAAFgm6TyBTTLeEihIVAACYL6FQaPfu3a2trRqNxuv1snMlWxqNRqPRtLa2iv+MCYJAuxGq6aKNoVBIbNDr9Uq/RYeoq6sbHx+3Wq3SPQEAAOYFEhUAgOLk8/nq6+szmYzL5Uomkw6Hg+O4TCaTyWRMJtOWLVuSyaQgCO3t7SaTibaHw+G2trY855w4HI5wOFxZWRmJRBwOx0KfDgAALDVIVAAAipPNZrPb7fS6v7+fMbZ9+3Z6Sy/6+/vT6XQsFquoqKDtHMeNjY1ZLBYl4gUAAPgcJCoAAMXJbDbrdDrGmCAIQ0NDHMfp9Xr6SK/Xcxw3OTlJL5qbm2VlXQAAAIpTUaKycePGsrIypaOAwlZWVrZx40alowBQI7fbrZFwu9203eVyBYNBv9+v0+nECS0AUCjQfQKZYrolVJSofPnLXy4pKVE6CihsJSUlX/7yl5WOAkCNPB5P5vNcLhd95HA4aEswGHS73ZgZD1BA0H0CmWK6JS5TOgAAAFhYWq3WZDLF43FBELRaLWOM5tDX19fLJsE7HI7JycnJyUl6K74QBCEejy9y2AAAsMSpaEQFAAAWyPbt22Ox2L59++htX19fLBaz2+20ZrE4hBKNRnt7exsaGii34Xk+mUzS/n6/X7HoAQBgSUKiAgBQ/PR6fSgU4nmeJqgEAoFQKKTX62l7IBCg7VartaOjg+M4xtiuXbvMZrPBYNBoNJOTk8FgMLvZ6urq2tpaq9WKmS0AADDvNJlMRukYAACWkFWrVu3Zs6e5uTnHPuvWrVuzZs0DDzywaFEBAACojYpGVJ599tlUKqV0FFDYUqnUs88+q3QUAAtuYmJi586dN9xww8TEhNKxAICS0H0CmWK6JVSUqLz11ltYxR8ukiAIb731ltJRACyUVCrV09Ozdu3aDRs2dHd3r1y5cuXKlUoHBQBKQvcJZIrplsCqXwAABWBiYuKRRx45evToZ599dubMmUsuueRLX/rSk08+WVpaqnRoAAAACwKJCgCAeqVSqYGBga6urhMnTixbtuzs2bOMMa1WazabkaUAAEBxQ6ICAKBGf/jDH3bu3CkOoTDGpqen2bks5Z/+6Z9+9atfMcY2b97MGBsfH//tb3971VVXrV27ljH24osvfvDBB2azuaqqijH25JNPMsaqqqrMZnMqlaIvrlu3rqysLBaLjY2NoR20g3YKtx2AIoZEBQBAdaanp99888333nuP3mYyGY3mfxdp/Pjjj//qr/5qcnLyZz/7GTvXcenv7z9y5IjFYqGOy2OPPRaJRP7iL/6COkC059/+7d+azeapqSl6a7Vay8rKxsfH0Q7aQTsF3Q5AEVPR8sRvvfXW9ddfX1JSonQgUMA+/vjj3/72t6tWrVI6EIBZ5b888e7du7u7ux9//PE//OEP09PTlK7QDvv3729qalqUeAFA1dB9ApliuiVUtOrXqlWriuOagoJKSkqQpUDRWLly5a5du15//XW/379+/XqNRrNs2TL6aOfOnd3d3cqGBwBqgO4TyBTTLaGiRAUAAGa0cePGYDD46quv/uhHP7rmmmsoXUGuAgAAxQ2JCgBAYZANsDDGdu7c+fLLLysdFwAAwILAZHoAgAKzcePGjRs3vvvuu/39/bfeeqvS4QAAACwIjKgAABSklStX/uAHP1A6CgAAgIWiokTl2WefTaVSSkcBhS2VSj377LNKRwEAALBI0H0CmWK6JVSUqLz11luCICgdBRQ2QRDeeustpaMAAABYJOg+gUwx3RIqSlQAAAAAAAAIEhUAAAAAAFAdJCoAAAAAAKA6SFQAAAAAAEB1VJSofOMb3ygrK1M6CihsZWVl3/jGN5SOAgAAYJGg+wQyxXRLqOiBj6tWrVI6BCh4JSUluJEAAGDpwL96IFNMt4SKRlQAAAAAAAAIEhUAAAAAAFAdJCoAAAAAAKA6SFQAAAAAAEB1VJSoPPPMM6lUSukooLClUqlnnnnmIhvheV5zTmtrqyAI4kfJZNJut9NHXq9X+q0cH0kJgtDa2iq2X1VVFY1GLzLgRSO9MgV6CgAARQbdJ5AppltCRYlKJBKR9ggB5kAQhEgkcjEt8DxfV1cXDoczmUw6nWaMtbe3052ZTCYdDkdLS0smk0kkEjzPh0Ih+laOj6SSyeSWLVtMJlPmnK6uLqvVyvP8xcS8mCorKyORSEaisbFxx44dyWRS6dAAAJYidJ9ApphuCRUlKgBqMDg46PF4OI5jjGm12vb29uHh4dHRUcZYf38/Y8xutzPG9Hq9y+UKBALUQc/xkRQlUdu3bxe3cBzn8XgCgUDh/j+FToeuAAAAAMB8QaIC8Dkul8vlcolvDQaD0Wik15OTkxzH6fV6emu1Wtm53CPHR1KxWGzGIx46dEir1VLxmDi6QkViYhWZtLTMbreLWdBs26PRaFVVVXYpmnT7bPtLt5+XTqczm82Tk5PiFq/XO2NVmLhdo9GII07ec2astQuFQtlfoVM+cuTIjLV2s1XuSS+U7CgAAACgQkhUAHKJRCJTU1MGg0EQhHg8XlFRIdshFovl+Ei2paamhlq70FqvaDS6fv16Ki3LZDItLS0OhyOZTObY3tTU1NHRQQVs8Xicuua0vauri/bnOG7Pnj05tucTWzqdjsVi4ul7vV6e5xOJhKywzev1xuPxdDqdyWQikYjP5xMvgtvtZoxl19p5vV6fz0eVZvQVaUHd3r17Dxw4kMlkwuGw2+2m1nieb2tro69Qa/v27WPnavM4jqMTNJlMW7ZsQbkaAACAmiFRAZiVIAiBQKC2tra8vHxeGrRYLN3d3ZWVlXV1dRf0p/2RkZHa2tqtW7fSW4fD0d/fr9frZ9ve09MjbpcWsCUSCcaYwWCg/cXBnNm253NSBw8eZOfK3qLRaG9vr8vlosElsbDt9OnT8XjcZDJRmxaLZWxsjOrrGGM2m43qx6ShUlNdXV0Wi4W+0tHRIS2o6+jooI+qq6udTufg4CBjLBaLGY1GOhGtVnvo0CEaH6PKNLHoDuVqAAAA6qeiROWb3/xmWVmZ0lFAYSsrK/vmN785X63t27dveHi4vb09zy57PqiPnslkgsEgY8zv9+t0uhln3osEQRgaGhJ7+efdnkwmeZ6vr68Xt5eXl9fW1sZiMavVajQarVar7Iizbc82Pj5utVqlq37RygGUmYyMjFA74v4NDQ2xWCyTydTX17vd7hmLyqRVc2KostyJnRuPEgvqzGZzdngzjlnRhZIeRa/XcxwnLVcDAChQ6D6BTDHdEipKVKxWa0lJidJRQGErKSmR9pIvhtfr7e3t7e7upj/bzzuHw0HlSU6nc8aZ9zLZpWW5tzc3N4u5hE6n8/v9jDG9Xn/48GGn0yl+Sh362bZnk676RbmWOH5CBgYGDAaDeOi6ujrxfMPhsPhpPkNJ4thI/iwWywsvvGCz2WjMSjpJxu12S/MrqjcDACh06D6BTDHdEipKVADUIztL0Wq1JpMp+2/wZrM5x0fnPZBWq21paZmamqIBhBxm+/P/bNuDwWDm8xwOBztXECXmSG1tbdSVn217Dg6Hw+PxyPa02Ww0QUVE1WiMMXGKSDgc9vv9NHtEhma80Ovsy7JixYrzpi56vb6/v5/WiTYajTt27Dh9+jRjzOPxyC6IdNUEAAAAUBskKgBys42lVFRU8DwvDn1QDRIN4OT4SCRbxUtKOnQgdtPFLjslQvF4XDYEMdv27GW4ZOuJiV+/7777jEajLBmYbfuMtm/fbjQaOzs7KQaz2SzLLkKhUPbgCcdxwWBQjFx66SjJqampoQsibWpkZESj0eQ/xqLX62m2/R//+EfZhaLf4rx1bgAAAKAgJCoAnxMKhWar+KL54jR3PJlMer3elpYWGivI8ZGIBk/cbre0f0zz9WlnSjCGhoaoP33w4MGBgQHabdu2bcPDw319ffSW53kqappx+8mTJ9vb23t7e8UDHTx40Gw2V1dXi1+k7TSbnBbmmnH7eS8XPTTG7/dTDBzHSZ//GI1GfT5fS0sLY0y21HIgEBBn0QwMDNClEwShs7Ozrq7OYrFYLJbGxkZxuEZsSnZVs38+6TSYnp6e66+/vry8fPv27bFYTBzD6evri8Vi9KsBAACASmUA4JxEImGz2bL/MxHLqKQ7yEqJcnyU4xCyB71LPw0Ggx6PR2xK+pH0W7Ntj0QilZWVtN3pdNK6wJlMJhwOz3j02bZLhcPhGT/yeDyMsXA4LH1LxI1UUSZuF8/L4/E4nc6Ojo4ZLx1Ng5E1Racsa1n8ovQr0jo06YXKrk9bTFarNRAI+0maiwAAIABJREFU5N5n7dq1P/zhDxcnHgAAAHXSZDKZ8+Uyi+SZZ56pq6srLS1VOhAoYKlUKhwO5174K5VKDQwMXHnllRs3bly0wGA29HyVzs7OeVxaTeVWrVq1Z8+e5ubmHPusW7duzZo1DzzwwKJFBQAFCt0nkCmmW0JFpV+RSATPioaLJAhC9vPgRRMTEzt37rz55pt37Njx61//ejEDAwAAWAjoPoFMMd0SlykdAMCCoyGUrq6uEydOXHrppZ9++unmzZv/8R//Uem4AAAAAGBWSFSgmE1MTDzyyCNHjx797LPPzpw5wxjLZDKbN29+8MEHlQ4N/hfWCAYAAIAZIVGBIiQdQlm2bNn09DRjLJPJXHrppZs2bUKWAgAAAKB+KpqjAjAvfvWrX9XU1OzYsePEiROZTIayFMbYJZdc8tWvfvXBBx9ctWrVqlWrenp6GGMTExP09vjx44yxnp4eektf2bt376pVq771rW/R229961urVq3au3cvvV2Ido4fP67OdiYmJhatnbvuumse2xGfQL8I7TzxxBP5twMAAAC5qWjVr0gkYjabS0pKlA4ECtjHH38ci8XGx8cff/zx0dHR5cuXU8WXaP/+/UajkTFmsViMRuNHH300OjrKGKuurr7yyit///vfnzhxgjG2du1axtjbb7/93nvvXXnlldXV1Yyx0dHRjz766LrrrrvxxhsZYy+++OJCtzM1NUVPEVn8dr70pS9de+21aGch2tm0aRNW/QKA+YLuE8gU0y2hokQFYH69++67Dz/8cCgUOnv27CeffCJu379/f1NTk4KBwRKH5YkBAADygdIvKForV670eDz//d//vW/fPvqT9vLlyxljO3fu7O7uVjo6AAAAAMgFiQoUv6ampmeeeebVV1/9zne+o9PpGHIVAAAAANVDogJLhTjAsn///urq6nfffVfpiAAAAABgVlieGJacpqYmzFEBAAAAUDkVjag8/fTTqVRK6SigsKVSqaefflrpKAAAABYJuk8gU0y3hIoSlWg0KgiC0lFAYRMEgdaHBQAAWArQfQKZYrolVJSoAAAAAAAAECQqAAAAAACgOkhUAAAAAABAdZCoAAAAAACA6qgoUbnjjjvKysqUjgIKW1lZ2R133KF0FAAAAIsE3SeQKaZbQkXPUbFYLEqHAAWvpKQENxIAACwd+FcPZIrpllDRiAoAAAAAAABBogIAAAAAAKqDRAUAAAAAAFQHiQoAAAAAAKiOihKVp59+OpVKXWQjoVBIc47X65V+xPO8+BHP8zN+q6qqKhqNztZ4NBqtqqoSG2ltbRUE4SIDXjRer1eTpbBOIR+pVOrpp59WOgoAAIBFMi/dJygmxXRLqChRiUajF9lpDoVCPp8vEolkMplEIsHzvJir8Dzf1tZGH4XD4ba2NjEhCYVCgUAgkUhkMpmOjo4dO3Ykk8nsxnmet1qtXV1dmXNMJtOWLVtm3FmdnE5nOp0W408kErFYbN++fUrHNZ8EQciRagIAABSZi+8+QZEppltCRYnKRRIEYWhoqKOjgxZl0+v1Lpert7eXfq1AINDY2EgfcRzX2NjY09PDGEsmk4FAoKWlRa/XM8a2bt1qNpv7+/uz2x8cHPR4PBzHiVu2b9/OGJtx54IgvURKxwIAAAAA8DnFk6hotdpDhw45HA5xi8FgWLFiBWMsnU7HYrGGhgbxo4aGBp7nk8kkDaTU1NSIjdTX1w8NDckyUUEQ4vG47Ih6vb6/v5+OyPO83W4XR1eoSEwsMJPWjEmrraSFaqFQSGxZul1apSatXpO2Iy3rkrZzXgaDgTGWSCSy45QWzkm3i6eZTCbtdvuRI0fsdvuMh5ZGJZ4FXagjR45kfyQIQmtr64wnPtsFAQAAAIBiVTyJSraRkRGNRmMwGCgboU65aGpqKpFIJBIJ2kf6USwWS6fT0i2UwLjdbmk2kidZzZjJZGpvbxcEwev1iiVniUQiEAhQR19awBaJRNra2mi7tHqNwqOqLa/XG4/HqaYrEon4fL78u/KUotDpR6PRpqamjo4Oaj8ej1MuRNvF+DmO27Nnj5gjbd682eVyiYemUCnl4Hmezi4cDtfV1YlRDQwMHDt2jAL2eDxerzeZTAqC0N7ebjKZ6CjS8rzZLggAAAAAFDEVPZl+flFNF8dxer1eHDG4GDRy0tzcLGY1wWBQOoAzG1nNmMvlovB4nne5XFRyRoMzYthiAZvFYuno6AgEAna7PRaLGY1GOjoNH7FzQz0mk0mr1dL+Y2NjeZ5RMpn0er1iRVxPT09tbe3WrVup/fb29qamptHRUdpZPGuKnzFGyZJ4atJQI5HI8PBwd3c3nR3HcR6PJxAIVFdXM8YqKyvb29sp4G3btvX29kYiEavVGovF6uvrqXGO4+hEclwQahwAAAAAipKKRlTuuOOOsrKyeWlKEIQ9e/awc9NI5ovD4aDRBqfTyRhrbm7OvUoYO5eQVFRUyLZHIpGpqSnZSI64XSxFY4zV1NTQkEtNTQ19RTpgckFDPX6/X6fTiTVUBoOB4zhp4lRfX0/5A2OsvLy8trY2FotZrVaj0Wi1Wmccx5AW1ImhSnMqcbfh4eGTJ08yxmQfEb1ez3Fcc3OzbCGyHBdkxnMsKyu74447cl8HAACAojGP3ScoDsV0S6goUbFYLCUlJRffDhURxWKxUCi0EH90p9EMKkNijNGk/NzMZnP2xhn764yx8fFxq9UqphNWq/XUqVOMMYvF8sILL9hstrq6OulKyg6HIxwODwwMGAyG3CsOi6t+Ua5ls9lkiVxzc7N4XJ1O5/f7GWN6vf7w4cNOp1P8NJ/SMrPZrNPpzrublMvlCgaDYjYlTpKZ7YLMqKSkhMZeAAAAloL56j5B0SimW0JFicq8mDFLoR687G/wlCcYDIbsP8/n2cm2WCyNjY3xePy8a8DFYrHsjTRJJnt7ZWUlzccQjY2NiUuZ9ff3U8BGo1FcSZnjOHFqh9/vP++Kw1qt9r777mOMSWebMMaCwWDm86i2TczNKMORLu4slUgkxBQie57PbImZFI1ZZTKZYDDodrtpDCfHBQEAAACAYlVUicpsYyk6nc5sNg8ODopbBgcHafoK5TAjIyNiC0NDQ9IKKCJbxUtKnB8iTTwSicT4+Lh46MnJSdm3ZMtt5dguW0+M6PX6AwcOZKdYHMcFg8F8cidam9jv9/f19c0YJy3qJTtlynCMRqN4XOlVjcVitbW15eXlZrNZloYNDg5e0BiLw+HweDyTk5N5XhAAAAAAKDJFlajs27dvxoovrVbb0tLidrup283zfG9v77Zt2xhjer2+paXF5/PREEFfX18sFrPb7bKWafBENpIQjUbD4TC1Q/1pSnhokvqMh2aMhUIhu91uMBgaGxtpwSt2bpksr9dLk8XFA1FT9JgX+qLYQe/p6bn++uuvueYa+iJtpKnn2YnWjGiOO507zZ7v7e0VJ6IcPHjQbDZXV1fzPC+dikOT/q1WK70VTy0ajfp8vpaWFq1WW11dXVtbKw748Dzvdrvpo9mCobxIPHo0Gu3t7W1oaMhxQc57ggAAAABQwDLFIhKJVFZWZp9gOBymHcLhcPZGEgwGaXt2lZGUtAWW9aB38dPKyspwOGyz2cSjSGOz2Wy0aK/0uIwxj8eTHQ/7fDmWdLvYjji5P7sdKY/HIws4k8kkEgmbzSY2JY1TurP0xMVLRN+9//77bTbbjFfV4/FkX1W6MuIVoCPSF6nB8554dn0aQGGxWq2BQCD3PmvXrv3hD3+4OPEAAACokyaTycyWwyyyp5566rbbbistLc29WyqVOu8+sAiSyaTD4WhpaclnjeZFk0qlXnrppTvvvFPpQABmtWrVqj179jQ3N+fYZ926dWvWrHnggQcWLSoAKFB5dp9g6SimW0JFpV8nTpzIPbOiu7v7jjvusFqtExMTixYVFBZBEE6cOKF0FAAAAIvkvN0nWGqK6ZYogAc+vvvuuw8//HAwGKSLvnnz5tWrVysdFAAAAAAALCBVJyrd3d2BQOC//uu/tFqtIAiXXHLJpk2bHnzwQaXjAsbOrZWsdBQAAAAAUJzUmKiIQyiMMRpFSafTl156KbIUAAAAAIAlQl2JytGjR48ePUpDKOl0WqPRMMYymQyNpTidzn/4h39gjP34xz9mjPX394+NjRmNxu9+97uMsUcffXRqaqqysnLjxo2MMdrTbrdXVVVNTU09+uijjLG//uu/vvbaa8fGxmgoAO0UXzsAAAAAUBxUlKh87Wtfe/nll2Ox2GWXXSYIAmUp5LLLLlu3bl0qlXr77bfFje+///7bb7999uxZenvy5Mnf/e531113Hb2lPW+99VbG2JkzZ+jtmTNnGGO523n33XdjsZjK2/n617+OdmZsp6ysDEt+AQDA0nHnnXeWlZUpHQWoSDHdEipanlh07Nixxx577MUXX1y+fDl1VTOZzPLly3/2s581NTUpHR0AwEXB8sQAAAD5UNHyxKKNGzf++7//+6uvvvrDH/5Qr9dfdtllGo3mzJkzu3fv7u7uVjo6AAAAAABYcGpMVMjKlSt37do1MTHx0EMPrV27VqPRTE9P79y5E7kKAAAAAEDRU2+iIhIHWO655x69Xr9z50488BEAAAAAoLgVQKJCxAGW3t5ePPARAAAAAKC4qShReeqpp1Kp1Hl3o4WzAGaUSqWeeuoppaMAAABYJHl2n2DpKKZbQkWJyokTJ+jxjgBzJgjCiRMnlI4CAABgkaD7BDLFdEuoKFEBAAAAAAAgSFQAAAAAAEB1kKgAAAAAAIDqIFEBAAAAAADVUVGicuedd1511VVKRwGF7aqrrrrzzjuVjgIAAGCRoPsEMsV0S1ymdAD/50tf+pLSIUDBW758OW4kAABYOvCvHsgU0y2hohEVAAAAAAAAgkQFAAAAAABUB4kKAAAAAACojiaTyeTeQ6vVnj17dnGiUcSyZcs0Go3SUQDAUvHpp5+uWLGirKwsxz6Tk5PT09OXXnrpokU173bt2uX1epWOAgAACtj5J9N//PHHixCHgs6cOaN0CACwhGg0mqmpqf/5n//Jsc/09PRnn302PT29aFEBQIE6evTo2rVrS0tLlQ4E1KKYbom8Vv265JJLEonEQoey+P7yL//yueeee++996699lqlY4H5MTU1FQqF7r33XqUDAZjVqlWr9uzZ09zcnGOfdevWrVmz5oEHHli0qObRn//5n//6179WOgqApeLtt9++5ZZbiqNXCvOimG4JzFEBAAAAAADVQaICAAAAAACqg0QFAAAAAABUR7FExefzXX311T6fT9zyxBNPPPHEE0rFAwAAAAAA6qGWERWfz+d0OpWO4gJ4vV6NRqPRaApi/U2v11tVVRWNRpUO5IIJgtDa2pr/Rb7qqqs2bdqUf/vRaLSqqmrOP6L069LXoVDIbrcnk0l6TbdKa2urIAhzOxAAAMCMNm3adNVVVykdBahIMd0SaklUClFlZWUkEnG5XEoHUsxGR0f9fn9DQ0Oe+y9fvvzGG28U33Z2diqSntXU1ExNTfX39zPGHA5HIpGw2WyLHwYAABS9G2+8cfny5UpHASpSTLfEgicqVOJF7rnnnuynsnz88cf33HPPT3/6U8aY0+m87bbb3nnnnYWOaqlxuVxjY2MWi0XpQC7Y4OCgzWazWq1z+K7X633sscfmPaR8lJeX19bWDg0NYQgFAAAAYG4WNlHx+XyUgZBHH31UhY8FuPjH0ieTSbvd/u1vf/vb3/62RqORFllR2Q/ViVFREO08Yy2QWCOk0Wh4nqeNVFAk28gktWfS7dLGxdIj9vnSL3r90EMPZZeuSYuU7Hb7jKVKVIsl+670CtCB8j/x7D2lF5bneY7j9Hp99tUQd5aGJJ5mKBRyu93j4+NWqzUUCuW+8uFwmJqVXjQZnufFC37eUjGtVmsymYaHh0+ePJl7TwAAAACY0QImKqdPn/7Nb37T0NDwzjvvnD592u/3M8Z+//vfywZVSkpK7r///p/85CeMMb/f/9JLL91www0LF5XokUceee6558rKyr7whS/MS4NvvfXW3/3d36XT6dra2h07dsj6u5lMxuVyJZNJh8NhNpvT6XQ6nWaMbdmyRZzJ0NzcHA6HM5mMx+Npa2uLRqPRaLSpqamxsTGTyQSDQdrIGON53u12h8PhdDrtdDq9Xi81cvDgQcZYIpGIRCJTU1P0Ntv4+PgXvvAFOlBvby+1GY1GfT6fx+PJZDL19fUDAwPZXxQEob29PRaL0SF6e3spB5BeAdnQzXlPXLandEsikZiamqqoqKC30qsRDofdbjcdfd++fRRSIpEwGo2dnZ2CIDgcDo/HQ+V5DodDGkAkEhkeHt63b594II1G88ILL+S4aNFotK2tLRgM0g/hdrulSeOMKioqxsfHi/JJqQAAAACLIK8n08/N1Vdf/ctf/pIx9s4772zevHliYmLhjnWhHn/88d27d1911VVDQ0NXXnnlvLRZW1tbXl6u1Wrr6+v9fn8kEuE4jj4Sp1hEIpGBgYFwOKzVahljLS0tdXV1kUikuvr/t3f3YU2ded7A71QrJB1pMbEGqTxUKolCB0vRYQyOL929iDuOFbgGOk9Ax906YaVPLSpurSZW0pedgqW0D45UZ501ZLcwD6Buu4ZOtVqJZhRf6OI0UUEuGIZ0CgjSIWl9yfPHPZ45TUKIkOQcwvdz9Q9zcs59fufkLrl/uV9O8qlTp5gxThqNhjbZDQZDc3NzRUUFISQlJYUQ0tTUxKQBaWlpxcXFe/fuZYfR0NAgkUgaGxsvXbo0XKhJSUm0NKYxLZPJmpqamHMplUqPcyo6OjrMZnNWVpZYLBaJRHR0U2ZmJvsOsPcf8cLdbxFbT09Pc3Mz85IdoUKhcDqddLtGo6EZFE2GPa7KQAOoqqoSCoUymczl5jCdNlKptKury2630zgZ9BDaqTLMTXUVGxtLCGlvb2euEQAAAAB8F8AeFTr5ZNq0aQsXLuRblvLSSy9JJJJTp04lJCT4vXymher+1nAbh4aG2tvbY2NjRSKR+w5paWkCgUAulzc3N7e1tRFCkpOTaXNcq9WyBzJlZ2cnJSUxh7C7O0bU1taWlJQkkUhG3JOeVCQSVVZW0uBHPMT3uzGKCHU6nUgkio6O7unpeeaZZ7yci340o0CHnBUUFFgslqqqqtEVAgAA4HdHjhwZGBjgOgrgkVCqEgFMVJqbm3/zm98QQo4ePcoM/eIck6U0NjYGIkshXtvEw20UiUSxsbHDNfrpeDCK9rQIhcK9e/c6nU6LxZKUlFRZWVlXV0fu/fBPhycRQkpKSnxf88r3oUp0eBhlNBqZCSRe+H437jdCOo9FrVZv2bKFEHLnzp2bN28Ody7fUyP2hBaDwcB05ozHBQkAACCEXb16FQu3AFsoVYkAJip0GvHPf/7zpKQkh8Nx5syZEQ+535/Y7xc7S/F7i7OysvLChQt2u509iMuFXC5PT0/X6/V2u91ut+v1eronHTDW0NBgsVgIIQaDgU4KT0lJSUpKOn78OLk36ZxOjWD+LZPJ6FCo2NhYOqecTgenMzSkUqkvPSQU+1xGo9HjHBW6mJXJZOrt7b2vJ5AMd+Hej5JIJLSDyD1Cenamy4jmeEaj8cSJE8z+zOQWJgC6DBdNQrxHLhaLjUYjTcZUKhVzlt7eXr1e78slj7EPBwAAAGCCC2CiQqcr/OY3v5k5c+bMmTNp74p3b7755rRp037/+98HIp6AZimEELVaffjwYZFIZDaby8vLPfYziMVig8HQ3t4uEonoKK/6+nq6p0qlqqqqokO2cnNz6Y/3Mpmsurq6traWbqyqqqITHtg7p6Wl0e1CobCsrCw2NlYikQgEgtra2uHC8EgmkxUVFdFhXX/+8589zlFhn0Iul6emptJ+jBF5uXAvJBKJVCqlo91ohMzdkMvlWVlZKpVKLBZrNBo6M0ev1+fl5fX19dGOKToPRy6X63Q6dgASiSQ2NtbHyKnMzEy1Wp2bmyuRSL7//e8nJSWNmFT7PpQOAAAAADxwjoQQ8sADD/SNCjPc6+c//3lLS8vy5csTExPPnj3b19dHl/natm0b3fPatWvMdGo6VMy/3nnnHUKIRCKxWCwjXrIvmBWlnE4nfZyfWq0eGhryS+Gco1fEHuLFleLi4vT09J6eHh/37+7uLi0tDWhIvqCrsTFVIvRqCIyFXC7X6/Xe91myZMkLL7wQnHj8bunSpYSQHTt2cB0IwIRQWlra3d3NdRTAI6FUJQK46hch5Kc//elPf/pT5iVdBIwqKioqKipiXjJLhAVCoPtSQoPJZEpLS1Or1WVlZS7rAnNo+fLltbW1PT09vncN8QFdHq2oqMhl9TAAAAAA8FHAn0zPucBlKfRhgj5O0uA/hUJRXFxcWVkpEomYgVVcB0WSk5NTU1Nramp83D8yMnLVqlUBDckXTU1NUqlUqVQSQgwGg0Qi8TjnBwAAYIxWrVoVGRnJdRTAI6FUJQTOew+jGHYPgeCBBx4Yp8+tQ18KAPDN3Llzt2/fnpub62WfpUuXPvnkk++9917QovKjZcuWnThxYseOHSHzOw4AAHAilHtUkKUAAAAAAIxTPs1RuXv37k9+8pNAh+Jfd+7cMZvNYrH41KlTyFIAAAAAAMYXXyfT08d3jC/oSwEAAAAAGKdGTlQmTZpECLl9+3bggwEAAAAAACCEV3NUjhw5MjAwwHUUML4NDAwcOXKE6ygAAACCBM0ncBFKVYJHicrVq1ftdjvXUcD4Zrfbr169ynUUAAAAQYLmE7gIpSrBo0QFAAAAAACAQqICAAAAAAC8g0QFAAAAAAB4B4kKAAAAAADwDo8SlVWrVkVGRnIdBYxvkZGRq1at4joKAACAIEHzCVyEUpXgUaIyZ86csLAwrqOA8S0sLGzOnDn+Ks1qtc6fP5/9tFODwSC4R6fTMdt7e3uVSiXdPn/+fKvV6qVY9s4CgUCpVPb29vor5hHP6/vDW3U6ncATg8EQoAjtdnt+fr77Gdm3GgAA2NB8AhehVCV4lKgA8Irdbi8rK2tubma2GAyGkpISi8XidDp7enpMJhNtQPf29qpUKoVC4XQ6nU5nUVFRTk7OcLmKwWCQSCQajcZ5j0KhkEgkvucPoyYWi41Go0Kh8P0QtVo9NDTk/C6VShW4IAkhxcXF7NNZLJba2trAZUcAAADAT0hUADyrq6urrKxkXtrt9lOnThUVFclkMkKIWCzWaDS1tbVWq9VisRBCNmzYQPfMzMxMTU2tqalxL9NkMtFUh50taDSa4uJivV4fMque+5dMJisqKtLr9cHpdwIAAACeQKIC4IHVaj148OChQ4eSkpLoFqFQuHfvXnZngkQimTFjBiFEoVAYjUaxWMzsGR0d7bHY48ePZ2Vl0VSHbfny5eyNzJgr9igyg8GQn5///vvvexxgxh6TxnTOmEym/Pz8rVu3CgSC/Pz8rq4u9tAv9iGj6K9wKfz48ePslzTpYg8eY59369atdIiXj2O6YmNjbTZbT0+Pl/vjcjrminT30O1MbO6HsO+bUqk8fPiw+1t0NKDHMXvDRQUAAACjg0QFwBUd9JWWliaXy73s1tTUJBAIJBKJy/be3l6TyTR79myP25cvX+5elEKhKCwsFAqFhBCdTmcymXp6epxOZ0VFhVwuZ1rJlZWVX375pdPpHBoaSk1NLSsro21u9pg0i8VSUFDANNMrKyunTp3qdDr37t0bHh7OnFGn0+n1enqWnp4evV4/ilyFXXhYWBj7JSEkPz+fuZDGxsa0tDTmQkpKShYvXux0OjUajS8nam9vl0ql9FYPd390Ol1XVxcdqGaxWEpKSpjTabVaQgi9b4SQwsJCu91O58MMF2FDQ8PRo0dpacXFxTqdrre312q15uTkVFRUMGP2tm/fzqRkw31qAAAAMDo8SlQOHz48MDDAdRQwvvX39x8+fHiMhVy4cKG9vZ0ZyuVRb2+vXq9XKBRMRwrDaDTabLaUlBSX7T09PTabzfuprVZrbW2tRqOhxSoUCvaosPT0dBqVUCjMy8szm80dHR00EmZMmstAqaSkpOzsbPfgTSYTcxY6d8XjzJPKykqRSMSe187uLnApnP3ywoULZrO5vLx8uAtRKpXebwX7npSUlOTl5YnF4uHuT19fX1dXV3R0NE32ZDLZpUuXmPF17PtWWFhoNpsvXLjgPcKkpCQmdczOzrbZbBaLhXbpMKmpRqPZu3evUCj0/qkBAAQUmk/g4vDhw/39/VxH4R88SlSuXbuG73UYI4fDce3atbGU0Nvbq9PpmEanR3a7ffv27YQ1L4VhMplyc3OZtME79uArOr6oqalJKpWye3KWL1/e3t5OuwJiY2NFIpFLIRaLxSUvSklJof0khBCmI8L9EPft7twn01+6dIm5NJfC2S/ZfSDMhdDMargLYWi1WvZtkcvlRUVFNI8a7v44nc7FixdrtVqPS6ix88mYmJjU1NT29nbvEXq8b3K5nJ7dpffJ+6cGABBQaD6Bi2vXrjkcDq6j8A8eJSoAfLBnzx6FQuFlaSy73V5YWNje3m4wGFySGZPJlJaWVlVV5bF3QiKRSKVS9haVSsUsbMVMhmloaJBIJEwzPS0tbcSYm5ub5XI5u2X/5Zdfej/EY0Pcv7xnI14wq3719PSkp6er1erMzEzm3eHuj0qlamxsZN51mYvilwjFYnF9fb1arc7NzXWZuzKKTw0AAAC8Q6IC8Dd0TBTzi75cLm9ubk5LS2PmfI86SyGEiESi2NjY48ePe48hPT2dTnVgsGfqe5SUlEQnqHjs9/CIPTc9QNy7FO43OxKLxeXl5WazubS0lNno5f4wK0Q3NjZWVlayj2IMDQ21t7ePOkK6pgKd7qJWqwsKCuhAuFF8agAAAOAdEhWAv6GzNdhP8EhKSmpsbKRzvseSpZB7E0voisbD7eOyvBW5t9iXl84B2rD8eMnGAAAgAElEQVRmH0IXrfKymK/7IX7nfiHHjx8fRR8LnXKj1Wpp34WP90ehUFRVVXV1ddHtJpOJuRs0nUhJSRljhEKh8PXXX5dKpT09PaP41AAAAGBESFQAfFVaWuoxS7FarQUFBd6zFEqhUBQVFblMcjAYDHK5PDU1NTk5WaFQZGVlbdy4kTasmXnkdFa3R7Qpz/y0T+fY0KnnXg7JysqiK1mRe8+D9+/T35OTk1NTU5kLof1U3i9kOJmZmWq1mkY73P0hhLAvgS4wsHjxYnq6hoaGPXv2ENZ6bjKZbBQRmkwm9loCRqORECKXy0fxqQEAAMCIeJSoPPvss5GRkVxHAeNbZGTks88+G4iS6cpOLlMR6CyFmpqa5uZmZt6Cx+d1MFQqFV0OmNmTrixM148ihGg0Gvqsejr2rKKiYsRnyatUKpr/0OWS8/LyRkyZNBpNXl4ePYtIJIqOjva4UrD7ql8+Tv+gQ6SYCykoKHB5zKXv6FJdNpuNrgXs8f4IhcKysrKuri4aoUQiUSgUzE1Qq9WDg4MuVzqKCBUKBV16mPngmEXDRvGpAQD4BZpP4CKUqoTA6XR632Py5MmEkNu3bwclHoBgaGlpIYQkJiZyHQgEHH2+SllZGX/6N+bOnbt9+/bc3Fwv+yxduvTJJ5987733ghaVHy1btuzEiRM7duzwbzcdAABMNDzqUQEItIGBgZqamiVLlvz93//9vn37uA4HAAAAAIY1mesAAIKhpaVl//79R44cuXXr1u3bt+VyeXFxMddBAQAAAMCwkKhAKBsYGGhoaKioqLhy5cqDDz5469at8PDwJ5544tChQw8//DDX0UEweJx7AwAAAPyHRAVCE9OFcvfu3W+++YYQ8u233wqFwtjYWGQpAAAAAPzHozkqhw8f7u/v5zoKGN86OjpefvllOgulrq5uaGiIZimEkClTptAs5cUXX1y7du2JEycIIdevX1+7du3atWvpQwBPnDhBX9JDDhw4sHbt2p07d9KXWq127dq1Bw4coC/pnqMoZ+fOnSOWc/36dT6U097eHrRytFrthCoHAMAv0HwCF6FUJXjUo3Lt2rUf/OAHXEcB49uUKVOcTuf8+fM7Ozvv3r0rEAiYt+7evdvZ2dnZ2fnkk08SQqZNm0YIEQqF9GV4eDjdSF9S0dHRTz755IwZM+jLOXPmREREREdH05ejLueJJ56YOnWq93LoElWclxMeHh78cubMmRPocu7r/gSoHAAAv0DzCVyEUpXg0fLEu3fvVqlUUqk00CeCEGaz2QwGw+bNmwcGBoxG4549e65cuTJ58mRagR988MEpU6YcOnQICxMDh7A8MQD4EZpP4CKUqgSPhn4B+NHDDz+ck5Nz8uTJ3/3ud5mZmUKhMCws7NatWw6HY/Xq1fQ5KgAAAADAW0hUIMQlJiaWl5dfvHjxl7/8ZXx8/J07d/7yl78gVwEAAADgOSQqMCGwO1iys7OdTice+AgAAADAZzyaTP/ss89GRkZyHQWMb5GRkc8++6yXHWgHC572CAAAoQHNJ3ARSlWCR4nKE088wXUIMO6FhYX5UpHwHBUAAAgNaD6Bi1CqEhj6BQAAAAAAvINEBQAAAAAAeAeJCgAAAAAA8A4SFQAAAAAA4B0eJSqHDh3q7+/nOgoY3/r7+w8dOsR1FAAAAEGC5hO4CKUqwaNEpbW11eFwcB0FjG8Oh6O1tZXrKAAAAIIEzSdwEUpVgkeJCgAAAAAAAIVEBQAAAAAAeAeJCgAAAAAA8A4SFQAAAAAA4B0eJSqrV6+OjIzkOgoY3yIjI1evXs11FAAAAEGC5hO4CKUqwaNEJS4uLiwszF+lmUym+fPnW61W+rK3t1epVAoEAoFAwN5O9xTck5+fb7fbvRRrMBgELAaDwV8Be2cymZRKZW9vry872+32/Px8gRudThfoODkXFhYWFxfHdRQAAABB4t/mE4SAUKoSPEpU/Ki3t5fdKO/t7VWpVAqFwul0Op3OoqKinJwcmquYTKa0tLTGxkan0zk0NEQIKSws9Jir0FTn1KlTQ0NDtByLxVJSUjJibuMXCoXCaDSKxWLfDykuLnayWCyW2traoGVWAAAAAABjEZqJyp49exoaGpiXFouFELJhwwb6MjMzMzU1taamhhBy/Pjx4uJihUJBCBEKhYWFhWaz+cKFCy4F2u327du3KxSKvXv3CoVCulEmk1VXV3vcn4dkMllRUZFer/exWwYAAAAAgEMhmKiYTCaTycR+PLlLd4RQKIyOjqb/1mg0Go2G2VMikUilUvcyOzo6rl+/np2d7bI9JiYmKyvroYceoi/ZA8yYnhY6EOv9999nhmOxO2E8HkIIMRgMW7dupYfodDqXoV86nY4Z0GUymXy8M7GxsTabraenhzmFx0LYhTM9MLp7PI6RYxfFHEJjPnz4sPtZXAansc8+XFQAAAAAMKGEWqJCB33l5eVJJBIv+5hMptmzZ7u/ZbFYbDab+7FNTU2PP/54TEyMy3ahUKjRaObPn0/cBphFR0dnZGQwqYVarc7Ly6NDsMxmc11d3YiHlJSULF682Ol0slMp2sTv6uqiI9AsFktBQYGPDfr29napVEqvzmAwlJSUWCwWphCaYOh0OnbhJSUlTOFarZYQ4j5GTqfTsYsqKSlhcpWGhoajR4/S0oqLi3U6XW9vr91uLywsjI6Oplfd2NhYUFBAR+INFxUAAAAATDQ8SlQOHTrU398/xkKMRmNsbGxmZqb3fWw2W0pKist2u92u1+tTU1PdE5K2tjZfTk1YA8zoP+hGQggzwEwmk2VlZZ06dcput3s/JD09XalUupyF9u0UFhbSEWgymezSpUu0ZO+sVmtJSUleXp5YLO7t7dXr9UVFRTKZjLBGhXV1dXV1dUVHR3ssPD09nUbIHiNntVpra2srKipciqLpVlJSEhNqdna2zWazWCxDQ0Pt7e1MoqhQKC5duiSTyYaL6r7GqvX397M70wAAAEKbX5pPEEpCqUrwKFFpbW11OBxjKcFqtR48eJBpGXtkMplyc3OZ1jBbaWmp2Wz2fjjFHq9Fx0H19fWdOnVKoVAwA8zEYrFCoWAyHPcOHLvd7v2Q2NhYkUjkclRTU5NAIPDSX8TQarXsJb/kcnlRUZFKpSL3Oo7YqVpKSorT6fz6668XL16s1Wo9rjDGDjUmJiY1NbW9vZ0OJGPHk5KSQhMSQgjTgcNGLzM3N9dl/NhwUTFj1XzhcDhaW1t93x8AAGBcG3vzCUJMKFUJHiUqY2S328vKytasWeOegTDoGl9VVVW0vc6m0+lqa2urq6s9Hu6SZojFYqPRSEcuFRcXM9tdcgM6Vsq7URziMYFxx6z61dPTk56erlar2R1Nzc3NcrmcncZ8+eWXhBCVStXY2NjQ0CCRSNznonjkMRvxTqPRVFVVVVZWikQi9rrJw0UFAAAAABNN6CQqHR0dZrM5NzeXtnHT0tJoq5c9t3t0WQohJDY21mw2d3R0eI/BZUVgl+kl/jqkvb2dzhLxkVgsLi8vN5vNpaWlzMakpCQ6FYRBx18RQpg5M42NjZWVleyjGHT4Fv03e4I+NWPGjBFTF5VKRc9SVVWl1Wrpx+QlKgAAAACYUEInUaETKpgGbmNjI2310rRkLFkKISQ5OZlZ0dgjupJYV1cX0/9AZ717mQs+ikOI28pdPqLzPbRaLZ0ZT7MIdiEeHyipUCiqqqqYCE0mE7NDT0+P0+lMSUlxL8r3wWmUSqUqLi5ua2vzMSoAAAAAmAhCJ1Hxwmq1FhQUeMxSDAbDiFkKIUQoFL7++usu7WY6U0Wr1ebl5QmFwg0bNrS3tzP9D3V1de3t7e6z4dlGcQhNmcrKymjyQGPwZWmszMxMtVpN192ieQuz1hazVJpIJMrPz2cGYtHZ7YsXL6aTdhoaGvbs2UPujbJLS0uTyWR0bQCmKPaU/eEicYmZTsdfvnz5cFHd12MuAQAAACA08ChRWb16dWRkZCBKrqmpaW5uZkaFMTPgu7q69Hq9y7wI9pNA2Oi8FLrwMd1NIpHQUVJ0XSyxWGwwGEwmE31Xr9cbDAbvjexRHCIUCvfu3RsdHU1nd0gkkry8PPcEzOOBhYWFNptt+/btdrtdpVIVFRXRC2cKEQqFZWVlXV1d7AtkCler1YODgwKBQCQSRUdHM0PUNBoNU5RcLq+oqPAeD71qvV7PnuVP76HHqEa8NLbIyMjVq1ff1yEAAADjV+CaTzBOhVKVEDidTu97TJ48mRBy+/btoMQDPEWfr1JWVjbikmgA4N3cuXO3b9+em5vrZZ+lS5c++eST7733XtCi8qNly5adOHFix44dTPcsAADAKPCoR2VEnZ2dWq02Li6upaWF61gAAAAAACCAJnMdgE+qq6v1ev358+cJIXFxcbNmzeI6IgAAAAAACCBeJyqdnZ379u2rqqq6ffv2rVu3CCFxcXEfffTRww8/zHVoE86IiyYDAAAAAPgRTxMVpgslLCzsm2++cTqdkyZNevzxx5GlAAAAAABMBDxKVOrr6+Pj46urq9ldKDRLeeCBBx5//PFf//rXdPTX8uXLCSEWi+VPf/rT1KlTFyxYQAg5d+7c4ODgzJkz5XI5IeT48eOEELlcPnPmzMHBwXPnzhFCUlJSIiIi/vSnP1ksFpQTkuX09/d/+umnGRkZAaihAAAAvFNfX79s2bJHHnmE60CAL0KqSjhHMmnSpEmTJo2429ht3br1xz/+sVQqjYqKkroxmUy//e1vExMTExMT6f6vvvpqYmJidnY2fZmdnZ2YmPjqq6/Sl3TP3/72t06n8/Lly/RlS0uL0+kMgXJqamombDm7du3yUk53d3dpaamn+gXAF3K5XK/Xe99nyZIlL7zwQnDi8bulS5cSQnbs2MF1IAATQmlpaXd3N9dRAI+EUpXg0fLEu3fvVqlUt27d2rdvn8Fg+Pbbb9knFQqFR44cSUxMDHQYMK7ZbDaDwbB582auAwEYFpYnBgA/os0nqVTKdSDAF6FUJXi3PPGsWbOKi4tbW1tLS0uTk5MJIWFhYYQQu92+atUqLEwMAAAAADAR8C5RYeTk5Hz00Udnz55ds2aNSCSaPHkychUAAAAAgAmCv4kK5dLBYrfbn3322c7OTq7jAgAAAACAAOLRql8ZGRmRkZHDvZuTk5OTk9PZ2VldXR0RERHMwGAciYyMxJJfAAAwcXhvPsEEFEpVgkeJyuzZs0fcZ9asWVu2bAlCMDBOhYWF+VKRAAAAQgO+9cBFKFUJvg/9AgAAAACACQiJCgAAAAAA8I5Pz1G5c+dOcKIBAJgIHnjgAYFA4GWHu3fvjvjHmefwHBUAABijkeeoTJkyJQhxAABMEHfu3ImKipo2bZqXfa5evfrtt99OmjQpaFEBAADwzcg9KkFTX1+/bNmyRx55hOtAYBzr7+//9NNPsfAX8FnIP5keAIIJzSdwEUpVgkdzVNra2hwOB9dRwPjmcDja2tq4jgIAACBI0HwCF6FUJXiUqAAAAAAAAFBIVAAAAAAAgHeQqAAAAAAAAO8gUQEAAAAAAN4ZeXnioMnIyIiMjOQ6ChjfIiMjseQXjAuffPIJ1yEAQChA8wlchFKV4NHyxAAAE8HcuXN9WY9l5cqVWJ4YAAAmMiQqAAAAAADAO5ijAgAAAAAAvINEBQAAAAAAeAeJCgAAAAAA8A6PEpW6urr+/n6uo4Dxrb+/v66ujusoAO4P/voBwKjhDwi4CKUqwaNE5fr1676shAPghcPhuH79OtdRANwf/PUDgFHDHxBwEUpVgkeJCgAAAAAAAIVEBQAAAAAAeAeJCgAAAAAA8M5k/xb3xRdffPPNN6M71mazXb582Wazje7wGTNmREVFje5Y8GIsn2nw9fb22my2S5cucR3IfZg9e3ZERATXUYSstra2mzdvch3FCMb41y9oUFcBAMbC6XS2tLTcuXMnoGcJzndKRETE7NmzA3oK4scn0zc3N+/Zs3f2bNlDDz00uhLu3Ln7wAMPCASjDKCjo33yZMEbb7w2yuPBzdg/0+BzOsndu3cnTRo3XYV375Ivvvg8IUH+wgsFXMcSavr6+nbuLJ4+fca0aRKuYxnBGP/6BQfqKgA/tbW1RUdHh4WFcR0IjODQoSMfffTfCQlJkyf7uZ/ARXC+U/r6er766stdu7TTpk0L3Fn8k6g4nUStztdofjn2osaiqel0a+sftmzZzG0YoYEnn+kE8dvfHoyPj1u58h+4DiSkbNy4ae3af54+/VGuAwkpqKsAAKPQ2tpWXv5eUdGrXAfiT1999ed///dflZe/HbhT+OeH58bGU08/vcgvRY1FSsoiq/Uq11GECJ58phPET3+65vjx41xHEVL6+vqmTAlDluJ3qKsAAKPw8ccfZ2ev4ToKP5s+/dEpU8L6+voCdwr/JCpDQ0MPP/yIX4oCnsBnGmS3bt3mOoSQMjQ09L3vYTZFQKCuAgDcr8HBQf6PQx6F730vYmhoKHDlj5uh/AAAAAAAMHEgUQEAAAAAAN5BogIAAAAwGr29vUqlUqfTMf82GAz0LZ1OZzKZOI3urwwGg1Kp7O3t5TYM9r2yWq3z58/nyf0BPgvs+mgAAAAAE4FYLDYajfTfVqu1trZ2+fLl3IZEqVQqlUrFdRQAo4EeFQAAAAAA4B0kKgAAABD67HZ7fn6+QCAQCATz58+3Wq3MxrKyMqVSKRAI8vPz7XY7IcRgMAjuoaOVGHTYEn3r4MGDzHZm6JfJZJLL5c3NzWlpaUyBXrALFAgE7AFR7JjZb7mE/fzzzz///PMu59LpdHTEl8vQLxonLdBlSNhwV+0ShssN8fHS2PeKunz5MvOu72XChIJEBQAAAEJcb29vRkYGIWRoaMjpdBYVFeXk5NBchRCyadMmjUbjdDr37t0rFAp1Ol1JSYnFYnE6nT09PSaTiWlG0ySkqKjI6XQODQ1ZrdaGhgaXcykUCovFkpSU1NjYSAv0EpjVas3JyaEFOp3OxsbGgoICGphLzI2NjWlpaew0hgl7//79y5YtM5vNHR0dzPWaTKa8vDyxWOxyumeeeUahUNDTKRQKlUpFc5XhrtputxcWFjJh0LeYqThejHiv1Gp1RUWF+00GYCBRAQAAgBBHZ4+8/vrrNG3IzMxMTU1tamqi76rV6uTkZPpvOr2kqKhIJpMRQsRisUaj0Wq1JpPJbrfr9Xq1Wp2ZmUkIEQqFr7/+enp6+lgC6+npIYSkpKTQlwqF4tKlS/TURqPRZrMVFhbSmBUKRXFxsU6nY/pA2GErlUqpVMpckcVisdlsTLGMmpqa1NTULVu20JcbNmygO3u56qGhofb29sWLF9Mw6FScESe9+HKvqqqqFAoFc7ra2lomdQSgkKgAAABAiGtra4uNjRWJRPSlUCjcu3cv09qOjo5m+j1oW5/dxJfL5enp6e3t7S5NdkKISCSKjY0dS2ByuVwqlcrlcpf+BLvdfurUqdTU1JiYGGbj8uXLbTYbzW1cwhaLxQqF4tSpU3T01/Hjx12OpWV2dXW5HGU0GhUKhZerpiXn5ube19Jhvtwr9kt6H5hEC4BCogIAAAChjDbQfd+/ublZLpczUzIkEgkds9TT02Oz2dh7CoXC6OjoscRGU4Xi4mKtVus+W6OyslIkEjGRpKWleSlq+fLldPQXHffFThIomjwMd/hwV00I0Wg0jY2NDQ0NEonEfWaLRyPeqxkzZkgkIfikdvAvJCrAI01N5piYR5qazISQ+vqavLysGzf6CCEOh+ONN7StrVf9ey6lMs2/ZXrBvhwIVQ6HY9u2wm3bCh0OB/13eflb9K2mJjPzb38JUB1GXQVIT0/v6elxfpdKpZJIJFKplL3n/aZAw6FTTZxOZ1VVlVarZXKV4uJilzCYgWHumE4Ji8VCCFEqlfcVw3BXTd9lprXQQWXMzJbhjHivvvzyS6ZrCOrra2JiHhnua6K+vsaPf+1v3OjLy8uqr6/xS2mBhkQFeCojI1uvr42MnEYIaWm59Nlnx7mOaEzYlwMTQXh4+Jtvlm3cuJUQ4nA4amuruY7IV6irEHqEQuHixYvp2C1mo06n87gkV0pKis1mo219ink6IR28xAyvIiP1UYxCZmamWq2mDfrFixebTCaXVbm89GaIxeK8vLxTp04dPnxYoVC4TKMn94aHdXV1MfHT5bx0Op2Xq3YpRCaTFRUVsUegeeTLvWK/HG5SzcQxb17iuXNm9/yhvr5m48ZfcBISHyBRAQAAgBBHuxe2b99O280mk0mr1ebl5bkvySWTybKyspilt+x2e1lZWWpqanJyslAoLCwsNJvNdXV1dOc9e/a4r/pF7vUn+JLDmEwm9rrDHR0dZrOZjtpyidlqtZaUlLgv5MWWkpJiNptLSkqGe9Zkdna22WwuLS2lL+vq6sxmc3Z2tperZj9RngwzecadL/eqpKSEns5qtRYUFGRlZQ3XWTRB/MM/rDp79ozD4WC2OByOL75oyc9/kcOouBWkRIV2M8XEPEL/Y/q26Pb/+I/fbNtWSN+ioybou62tV5XKtI8//m/mWL+PnYBRoyNb6OfC9EgyH6hSmcZ8Xuw9mZFdDNrdSQu5csXC3k7Hn9TX12RmKv/wh5ZlyxYMVwE8BuNe/scf/7dSmeYSgDt6CPOrBq2HTM0crjJ7r64YTsM3w9WZ+vqabdsK33hDy95OByW6/40i360Pb7/9hkv55eVv3bjRt369ymA4sHv3G1767v1bhylaJ5nIXao06ipMKGKxuL6+nhBCp3wUFBRYLBa65JQ7jUZTVFREJ2yIRKLo6GhmlWGZTFZdXV1SUkIncgwODqrVao+n83ECukKhoOsO0wLper50wJVLzHK5vKKiwvtyWzExMampqenp6XK53OMOMpns2LFjNDsSCAR6vf7YsWM0PRjuqsViMX04DD2ELkhQVlbmfdllX+7Vhg0bcnJymKvWaDTeCwx58fHywcGbXV2dzJaurs5HH5XOnZvI3o35UvDYAHNpUZeXv0Vfuvxh7+3tYb4CmO81l0HL5Ltj8jkRjETlxo2+F19cn5mZ09HR39HR/+mn544ePcLu23r55ZcWLvxhR0f/lSs2QsiuXdvY7YDnn//fGzcWdXT0Nze3NTX9HrkKH9C2FyHkyhVbR0e/Wv1iQcE6pml18OD+iooDHR39Gzduddmzrs6Ymalkanx5+VuVle9++um5jo7+iooDBw/udz9XRkZ2XZ1x3rzETz89RwfS+B6MS/lvv/3GH/7QMuLVZWRkb978SmXlu62tVx0Ox/79e6ZPn7F1qyY8PHzEyozqOi54r8AGw4GHHvpeR0e/0dgYFzeHpsp1dUb3v1GtrVd/9rNVKSk/oPXhoYe+ZzAccDlXZOS0ffsMKtW6zZtfoQXeVzyjq8M0toKCda+9Vkpjq6szbtz4C/aXDeoqTDR0pS+XmR50o3sTWaVSMfM0XN6VyWSXLl2ib7311lvM4S7r9tJpJ0aj0UsHCMVM/3CZFuISM33sCXu7e9h0u8tJVSoVewuNkxbovqfHq2YfwjxtxvtFeb9XdPsvfvEL5t0R1zueCITCh6ZOjfj884vMls8/vzh/fjJ7n/r6mrq66ubmNvq3fcWKVa+++jKTgbz88ktZWTm0fXLx4rn4eGlMTCz98nrssZi33tIxDezi4ldoY8Zj25s/gpGonDjxCSFk6dK/oy/j4uasWPGdvq3Nm1/JyMgmhISHhz///IaLF8+1tFxiDi8vfz8lJZUQEhk5bePGoqNHjwRtAjQMh36mtO1OCFmxYtVTTy1g/tdasWIV0xo7ceKTr7768vnnN9A9U1JSN29+pby85MaNvtbWq0ePHlGrX6Q7x8XNee21Uj8G416+Wu1r5+maNc9Pnz5j//49dXUfGAwHNm4sokP2R6zMqK7jgvcKPG9e4sqVGfTfN2701dVVb978Cv1Ymb9RR48eIYR8+GH99Okz1qx5nu6sVr+oUq3zYzxjqcMfflj/1FMLEhPn05eJifNVqnUm02fMDqirAAC8Eh4evnDhD5lGhcPh6Ohoj4uLZ3agX0mZmTnMNMKVKzO++urL1tYr9CXzbRUdPeuppxaoVOtWrFjFlPzHP3bY7UPMnl7a3vwxOQjnyMjIpveC/sJHfw5kf53HxPxtIe1p08TTp88wmT6jN5oQMmvW3wZBRkaKCSGff37R46+SEDQdHe2PPRYjFP51QXo6b5gQQnN65gN1OBxnz5556qkF0dGzmGMVih8dPXqkr6/3xo1eQsj3v/8U81ZkpHjevO/0b44lGPrjMbt8dl3yjjbdMjOVhPW/PfGhMqO6jgvD1Rlq+vQZ06b99SfG1tYrJ08e27ixiHmX/vXv6Gh3OBw2W3dKyg+YL4zw8HCpNMpm6/ZXPGOpw0z3Y1OTmdZkQsjmza94LAp1FSBwdDqdVqv1+FZSUlJ1dfX9Tsw4c+YMIeT06dP05cDAwOXLlxctWkRfRkREJCYmTp06NTHxvr9P74vJZPKyXHJVVRU6SUbh+99/qrb2g66uzri4OTRzYC9tEhk5Ta+vpf8uL39r9+43XA5nt6i9Y+9Jv9dMps+Y37b4IxiJCh0tc/LkMUIIHfxQXv4W+7uc/X0pFIoee+xvLyWSR+k3KEXTmCDEDF7Q9pnv+xsMB1zGw9BspLOzw2VPXz5f9vIX8+Ylvv323uGCcS/fYyLETjkIIeXl79NUhP4CffHiOebHdTJSZUZ1HRfutwITQpiGPmPz5lfs9qE//rFDKo1ib4+JiR2xcPa3y5Ilz5SUvDfGOsyuljS2jRu3sit2efn7K1as2rVrG3MI6ipA0Gg0mjHOvmhpafnDH/7Q0tJy+fJlJj9x4XH7okWLFi1alJCQkJCQMGvWLPcdxoKOWPNvmRAdPWvWrP9FfzYymT5TKH7ksgPTCqJD4gkhBQWj6cn3/WcvbgUjUaETD5qb24Zb77Kzs4P5xdrlu7+n5883bk0MoHIAAA1aSURBVPQS8tcf+fr6er/66svAhwz+RJtN7ttpjwqbL58v06dBeRlS6f4/4Y0bve7j++Pi5hiNje6HHz16hOZX+/fv2bnzTTomx3tlRnUNSfPmJVZUHHDvanA4HOxfVaiOjpEX+dm4cSv7/4ix12H2b2xMmfv373nqqQWHDn1Cq67LWVBXAfhvYGCgpqamurr68uXLzMb4ePmcOfKZMx+bOjVizhwPM+YvXDhLCLly5Qur9YvTp08zCcyiRYtycnKys7PdDwH+YEZ/paam2Wzd7HFfhJDW1quVle8yv6jSLaM7EbvtzWcBT1Toj5fsUQ03bvQ1Nf2e/QXP/mqn35fsDJJ9K90HC0Hw0f+L6uqq7fYh2gYihNCOBZeEhNnzxo0+pmVP54G9++4+99EmHhthow6Gzhxgl+/++/Rw6N+CzZtfWbkyo6Bg3dGjRzIysn2pzKiu/Oelzuzc+abLznFx8dOnz/huLf3rggoZGdlSaVRT0++Z6j2Kvhrv8Yy6DtNffFJSfsAU2NXVefHiOTpYmSkKdRWAn06fPr1v3z6j0UhfLlnyTHz83OTkhU8/vXDEY9n7DA7evHLFcuHC2ZMnP6FJi0ajWbFixebNm/3ewQL+Qkd/ffrpx1JplMuvorSZxP4N6/PPL95vw4lit73pF4THecK+N5wCJOCT6emg7YsXzzGrrR08uJ8ZokDt3v0GHYp940bfq6++zJ4ASgihiy8RQlpbr+7YsYU9URu4QmeTM8tHNDWZd+9+IysrJywszPueNAGg88DozGDm871xo6+8vMTj6WhK494D4z2YuXMTVqxYxa4/lZXvzpuXyB7x4hGz0teaNc+zg/SlMqO6jgvD1RmmWc+IjJyWmZnDXi+L9qrREmgiwaxWx/TCuWDmrgzXeeL3OkzH0NIkityr0i5fZqirADw0MDCwbt26rKwso9Eolc7ctOmVw4ePlZRUrF//gi9ZioupUyOefnrh+vUvVFUdOnz42HPPrRGJvlddXb1w4cLdu3cHIn4YOzr66+WXX3If90VH/zLLotAvhdGdxWPbm/5wxqytMpby/SUYQ7/or+zLli2gL8vL3y8vf7+y8t2urk46Y1WrfaO8vIQZ9+/yq/yaNc+zR1qzh/0AV+iKq7t2bYuPl5J7AyXj4ua4P3vBZU9CSF2dkT03nbDqxr/+6zsex5/QaV6ZmUqVah0zCmvEYAghGzdujYmJpeXPm5e4adMrHldAdlFZ+a7BcKCuzkh/yaDrehUUrKuoOOClMtMtqK7jgpc64y4jI3vWrBhmmopKtW7fPgOthJGR0959d9+LL66PiXmEvpWf/+Lg4KB7IQrFjzIzlbReufe2+70Oh4eH79z55q5d25KSZtMtdXVGpv+HbkFdBeCb06dPv/TSS52dnfHx8sLCV0aRmXgRFRW9adMrmza98uGH9W+//UZpaenRo0cPHDiArhW+ob9tLVnyjMu4L0JIXNyciooDBQXr6ETHJUue2bPnNzt3/ovJ9Jn7zt4N1/bOyMju6GinXzpLljzz2mulO3Zs8cNVjZbALxOhGhoabtz4RqFYcr8HsgdRuL/LPAfA91F0xcX/sm/f3vsNA9yN+jPls6Ymc3l5ybvv7htuutRYjKK6sr311s733nvH71FNWH/84x9//Wv9P/7jBq4D8TO/1GHUVQAeqq6ufumllwghzz23ZtOmV0bcfywGB28WF287efJYREREbW1toNcHA0LIW2+VrFz53NSpEVwH4mf/9m97/umf8h577LEAlR+kJ9MDBB99/DbzNEY6tIy9mCwAz6EOA0wQnZ2ddAnjX/3qYKCzFELI1KkRJSUVWu2bN2/epNkRAD8hUYGQRZ8guXHjL2JiHomJeSQpaXZmZo7H9ccA+Al1GGCCeOmll27evLlpk5+He3m3cmXGkiXPXL58ubR0NE9bBgiCYMxR8cJ9VU224daNBfBRSkpqR0d/cM6F6gqBEIg6jLoKwCvV1dWnT59OTl7w3HNrgnxqrfZNlWr17t27lUolBoABD6FHBQAAAIAz9DEp69f/n+CfeurUiJ/8JJOJAYBvkKgAAAAAcKalpYV89/knwZScvJAgUQG+QqICAAAAwJkzZ87Ex3t4xnxw0ASJJksAfINEBQAAAIBL/f1Bmk45nDNnznAbAIBHSFQAAAAAuPTnP9u4OrXV+gVXpwYYkX8SlbCwsKGhv/ilKOAJfKZBNnnyJK5DCClTpkxxOOxcRxGaUFcBAoGrhOHqVQsn551owsPD//KXr7mOwv8cDvuUKVMCV75/EpWFC39w5sxJvxQ1Fq2tlqgoKddRhAiefKYTxMcf/9fChdxMowxVjz766M2bN+7evct1IKEGdRUgQC5ePMfJeU+e/IST8040P/rRjw4fruY6Cj+7e/fuzZs3Hn300cCdQuB0Ov1S0CeffFJd/f8WL/67hx56yC8F3q/r1691dLTt3v3Wgw8+yEkAoYfzz3SC+J//uXD79jevvVbMdSChxmq98vbbZSkpi6ZNk3AdS4hAXQUIhKioqEmTJguFwl/96qBMNjeYpz5x4pOtW1+g/+7u7g7mqSegfft+/T//c1mhWDZ5MsePMfSLvr6epqbTmzYVymTxgTuL3xIVQsjg4Ndm8xmH4xt/FXhfpFLpggUpnJw6hHH7mU4ETieZMydu7tygfjNNKCdOfDY4eJPrKEIB6ipAgERFRc2e/URb27X4eHlV1aGgnbe7u0ulWv3114NOp1MgECBRCYLu7u7z5y/4se3NoalTI5Yu/VGgz+LPRAUAAAAA7ktUVFRy8oKpUyNOnjz29NMLtdo3o6KiA33S8+fPFhdv6+7uWr/+hX37/i9BjwrwElb9AgAAAOCYVvvmkiXPnD9/VqVa/cEHBwN3osHBm2+//cY///MamqWsX/9C4M4FMEZIVAAAAAA4NnVqRElJhVb7JiHk7bffyM1d/dFHh/w7crW7u+uDDw7m5mZ88MFBqXTmr351EFkK8FwozOYBAAAACAErV2Y8/fTCXbtevnDh3K5dL9MtS5b83ZIlz4y6zMHBm599dvzEid+dPHmMbvnxj1dv2vTK1KkR/gkaIGAwRwUAAACAM3SOyt69evbG7u6uDz+s/6//qrPZ/kS3xMfLk5MXymTznnhCNuLiYBcunLty5Yt7/1mYEp57bu2SJc+4pCgLF8oJ5qgALyFRAQAAAOCMx0SFcf782Q8/rLt61cLkG6wDo2fO/M60e6v1i6+/HnTZLTl5QXz83B//OGO49AaJCvAWhn4BAAAA8NTTTy98+um/PmX1/PmzV69azp//PZ27cuHCue7uLpf9k5MXEEKioqJlsnlPPbUgyA9mAfAvJCoAAAAA4wBNWp57bg3XgQAECVb9AgAAAAAA3kGiAgAAAAAAvINEBQAAAAAAeAeJCgAAAAAA8A4SFQAAAAAA4B0kKgAAAAAAwDtIVAAAAAAAgHeQqAAAAAAAAO8gUQEAAAAAAN5BogIAAAAAALyDRAUAAAAAAHgHiQoAAAAAAPAOEhUAAAAAAOAdJCoAAAAAAMA7SFQAAAAAAIB3kKgAAAAAAADvIFEBAAAAAADeQaICAAAAMKE99thjXIcA4AESFQAAAADOPPbYY1euWLg6e3d3FyEkMTGRqwAAvECiAgAAAMCZWbNmff31IE0Ygs9q/YIQkpCQwMnZAbxDogIAAADAmUWLFpF7CUPwXbhwliBRAb5CogIAAADAGaVSSQgpLt42OHgzyKe2Wr/44IODERERNFkC4BskKgAAAACcSUxM3Lx589dfDxYXbwvmeQcHb27d+gIh5MCBAw8//HAwTw3gIyQqAAAAAFzasmVLQkLCyZPHgtav0t3dtXXrC93dXevXr0d3CvAWEhUAAAAAjr3zzjsJCQkfflifm5tx/vzZgJ7rww/rVarV58+f/eEPf7h58+aAngtgLAROp5PrGAAAAAAmuoGBgd27d+/bt48QsnJlRk7OGplsrn9PcfLksQ8/rDt58lhERMSWLVvWr1/v3/IB/AuJCgAAAABfnD59et26dTdv3iSEREVF/+xna5cseSYqKnosZXZ3d/3nf/77yZPH6CLICQkJ77zzDp6dAvyHRAUAAACAX44ePVpTU2M0GunL+Hh5fPzc+Pi5Tz21wMdulgsXzl258sX587+/csVC85OIiAilUrl+/XqkKDBeIFEBAAAA4KOBgYGamprq6urLly+ztz/99EL6j6ioaKaz5cqVL77+epAQMjh40+VR98p7sLoXjC9IVAAAAAD47vTp05cvX25pabl8+bJL3uIuISFh0aJFCQkJCQkJ6D+B8QuJCgAAAMD4MzAw4JKxYKFhCDFIVAAAAAAAgHfwHBUAAAAAAOAdJCoAAAAAAMA7SFQAAAAAAIB3kKgAAAAAAADvIFEBAAAAAADeQaICAAAAAAC8g0QFAAAAAAB4B4kKAAAAAADwDhIVAAAAAADgHSQqAAAAAADAO0hUAAAAAACAd5CoAAAAAAAA7yBRAQAAAAAA3kGiAgAAAAAAvINEBQAAAAAAeAeJCgAAAAAA8A4SFQAAAAAA4J3/DxA6RciDfTlMAAAAAElFTkSuQmCC;" vertex="1" parent="1">
          <mxGeometry x="35.004438476562484" y="-2.000764770507814" width="1080" height="1310" as="geometry" />
        </mxCell>
      </root>
    </mxGraphModel>
  </diagram>
</mxfile>
